<svg xmlns="http://www.w3.org/2000/svg" viewBox="0 0 500 500"><g id="freepik--background-complete--inject-91"><path d="M283.85,183.57c5.28,0,137-.92,174.15-.92,2.6,0-.69-4.5-2.12-4.82-4.57-1-9.34-1.05-14-1.53A45.73,45.73,0,0,1,428.57,173c-3.66-1.54-7.31-3.33-11.28-4-7.66-1.2-14.38,3-21.57,4.79A16.27,16.27,0,0,1,382.65,172c-3.32-2-6.34-4.38-9.81-6.14a53.82,53.82,0,0,0-43-2,50.28,50.28,0,0,0-9.41,4.81c-3.51,2.31-6.54,5.25-10.06,7.53-7.8,5-17.44,3.4-25.95,6.29C283.92,182.69,283.39,183.57,283.85,183.57Z" style="fill:#ebebeb"></path><path d="M276.28,65.56c7,0,124.38.77,131.76.54.53,0,.81-.8.29-1.06-4.66-2.3-9.93-1.84-14.76-3.47-2.85-1-4.6-2.82-6.57-5a13.53,13.53,0,0,0-6.11-4,12.93,12.93,0,0,0-6.65-.21c-2.38.57-4.45,1.93-6.72,2.79-5.64,2.13-11.12.11-15.15-4.06-3.32-3.44-6.59-6.69-11.1-8.54a14.71,14.71,0,0,0-11.76-.16c-4.31,1.95-7.26,5.87-11.31,8.23-4.79,2.8-10.53,2.14-15.82,3s-9.36,5.31-14,7.88a9.94,9.94,0,0,1-5.06,1.57c-1,0-2.06-.31-3.08-.44-1.6-.2-3.12-.15-4.2,1.18C275.77,64.18,275.83,65.56,276.28,65.56Z" style="fill:#ebebeb"></path><path d="M41.33,126.57c5.09,0,90.8.57,96.19.39.38,0,.59-.58.21-.77-3.4-1.68-7.25-1.34-10.78-2.53-2.08-.7-3.35-2.06-4.79-3.61a10,10,0,0,0-4.46-2.92,9.43,9.43,0,0,0-4.86-.15,42,42,0,0,0-4.91,2c-4.11,1.55-8.11.08-11.05-3-2.43-2.51-4.81-4.88-8.11-6.23a10.72,10.72,0,0,0-8.58-.12c-3.15,1.42-5.31,4.29-8.26,6-3.5,2.05-7.69,1.56-11.55,2.18s-6.84,3.87-10.23,5.75a7.18,7.18,0,0,1-3.7,1.14c-.75,0-1.5-.22-2.25-.31a3.06,3.06,0,0,0-3.06.86C41,125.57,41,126.57,41.33,126.57Z" style="fill:#ebebeb"></path><path d="M359.85,128.8c5.1,0,90.81.57,96.19.39.39,0,.6-.58.21-.77-3.39-1.68-7.24-1.34-10.77-2.53-2.08-.7-3.35-2.06-4.79-3.61a10,10,0,0,0-4.46-2.92,9.43,9.43,0,0,0-4.86-.15,42,42,0,0,0-4.91,2c-4.12,1.55-8.12.08-11.06-3-2.42-2.51-4.81-4.88-8.1-6.23a10.74,10.74,0,0,0-8.59-.12c-3.14,1.42-5.3,4.29-8.25,6-3.5,2-7.69,1.56-11.56,2.18s-6.83,3.87-10.22,5.75A7.21,7.21,0,0,1,365,127a21.37,21.37,0,0,1-2.25-.32,3.07,3.07,0,0,0-3.06.87C359.48,127.79,359.52,128.8,359.85,128.8Z" style="fill:#ebebeb"></path><path d="M125.28,212.22c5.1,0,90.81.57,96.2.39.38,0,.59-.58.21-.77-3.4-1.68-7.25-1.34-10.78-2.53-2.08-.7-3.35-2.06-4.79-3.61a10,10,0,0,0-4.46-2.92,9.43,9.43,0,0,0-4.86-.15,42,42,0,0,0-4.91,2c-4.11,1.55-8.12.08-11-3-2.43-2.51-4.81-4.88-8.11-6.23a10.74,10.74,0,0,0-8.59-.12c-3.14,1.42-5.3,4.29-8.25,6-3.5,2-7.69,1.56-11.55,2.18s-6.84,3.87-10.23,5.75a7.18,7.18,0,0,1-3.7,1.14,21.75,21.75,0,0,1-2.25-.32,3.08,3.08,0,0,0-3.06.87C124.91,211.22,125,212.22,125.28,212.22Z" style="fill:#ebebeb"></path><path d="M87.56,164.05c.1.29,135.1,0,133.39,0-.77,0,1.18-1.16.42-1.54-4.39-2.18-9.2-2.24-14-2.68a21.51,21.51,0,0,1-8.18-2c-2.54-1.33-4.13-3.65-5.93-5.78a25.37,25.37,0,0,0-23.05-8.74c-9.6,1.51-17.17,8.82-26.78,10.16-5.78.81-11.24-1.42-16.89-2.21a20.63,20.63,0,0,0-12.68,2.32c-3,1.51-5.86,2.78-9.3,3-2.64.18-5.29-.12-7.94-.15A17.76,17.76,0,0,0,85,161.15C84.52,161.52,83.16,164.05,87.56,164.05Z" style="fill:#ebebeb"></path></g><g id="freepik--high-school-building--inject-91"><rect x="180.08" y="173.99" width="139.84" height="195.12" style="fill:#FFC727"></rect><rect x="180.08" y="173.99" width="139.84" height="195.12" style="fill:#fff;opacity:0.7000000000000001"></rect><rect x="200.08" y="303.04" width="99.84" height="5.03" style="fill:#FFC727"></rect><rect x="219.5" y="308.07" width="61.06" height="57.05" style="fill:#455a64"></rect><rect x="223.61" y="312.28" width="52.84" height="52.84" style="fill:#37474f"></rect><g style="opacity:0.5"><polygon points="276.45 334.33 276.45 344.14 255.48 365.12 245.67 365.12 276.45 334.33" style="fill:#455a64"></polygon><polygon points="237.41 312.28 223.62 326.07 223.62 316.26 227.59 312.28 237.41 312.28" style="fill:#455a64"></polygon><polygon points="266.89 312.28 223.62 355.56 223.62 350.66 261.99 312.28 266.89 312.28" style="fill:#455a64"></polygon><polygon points="276.45 349.24 276.45 354.15 265.48 365.12 260.57 365.12 276.45 349.24" style="fill:#455a64"></polygon><polygon points="276.45 317.19 276.45 318.08 229.43 365.12 228.51 365.12 276.45 317.19" style="fill:#455a64"></polygon><polygon points="243.13 312.28 223.62 331.79 223.62 330.88 242.22 312.28 243.13 312.28" style="fill:#455a64"></polygon><polygon points="259.77 312.28 223.62 348.43 223.62 347.51 258.85 312.28 259.77 312.28" style="fill:#455a64"></polygon></g><rect x="248.34" y="312.28" width="3.4" height="52.84" style="fill:#455a64"></rect><rect x="201.9" y="195.27" width="21.8" height="33.79" style="fill:#455a64"></rect><rect x="204.15" y="197.75" width="17.31" height="28.84" style="fill:#37474f"></rect><rect x="198.78" y="229.06" width="28.04" height="4.86" style="fill:#FFC727"></rect><g style="opacity:0.5"><polygon points="221.46 197.75 221.46 201.31 204.14 218.63 204.14 212.04 218.44 197.75 221.46 197.75" style="fill:#455a64"></polygon><polygon points="221.46 219.13 221.46 222.42 217.29 226.59 214 226.59 221.46 219.13" style="fill:#455a64"></polygon><polygon points="209.97 197.75 204.14 203.58 204.14 200.28 206.67 197.75 209.97 197.75" style="fill:#455a64"></polygon><polygon points="221.46 213.97 221.46 215.03 209.89 226.59 208.83 226.59 221.46 213.97" style="fill:#455a64"></polygon></g><rect x="201.9" y="214.71" width="21.8" height="2.47" style="fill:#455a64"></rect><rect x="239.1" y="195.27" width="21.8" height="33.79" style="fill:#455a64"></rect><rect x="241.35" y="197.75" width="17.31" height="28.84" style="fill:#37474f"></rect><rect x="235.98" y="229.06" width="28.04" height="4.86" style="fill:#FFC727"></rect><g style="opacity:0.5"><polygon points="258.66 197.75 258.66 201.31 241.34 218.63 241.34 212.04 255.64 197.75 258.66 197.75" style="fill:#455a64"></polygon><polygon points="258.66 219.13 258.66 222.42 254.49 226.59 251.19 226.59 258.66 219.13" style="fill:#455a64"></polygon><polygon points="247.17 197.75 241.34 203.58 241.34 200.28 243.87 197.75 247.17 197.75" style="fill:#455a64"></polygon><polygon points="258.66 213.97 258.66 215.03 247.09 226.59 246.03 226.59 258.66 213.97" style="fill:#455a64"></polygon></g><rect x="239.1" y="214.71" width="21.8" height="2.47" style="fill:#455a64"></rect><rect x="276.3" y="195.27" width="21.8" height="33.79" style="fill:#455a64"></rect><rect x="278.55" y="197.75" width="17.31" height="28.84" style="fill:#37474f"></rect><rect x="273.18" y="229.06" width="28.04" height="4.86" style="fill:#FFC727"></rect><g style="opacity:0.5"><polygon points="295.86 197.75 295.86 201.31 278.54 218.63 278.54 212.04 292.84 197.75 295.86 197.75" style="fill:#455a64"></polygon><polygon points="295.86 219.13 295.86 222.42 291.69 226.59 288.4 226.59 295.86 219.13" style="fill:#455a64"></polygon><polygon points="284.37 197.75 278.54 203.58 278.54 200.28 281.07 197.75 284.37 197.75" style="fill:#455a64"></polygon><polygon points="295.86 213.97 295.86 215.03 284.29 226.59 283.23 226.59 295.86 213.97" style="fill:#455a64"></polygon></g><rect x="276.3" y="214.71" width="21.8" height="2.47" style="fill:#455a64"></rect><rect x="201.9" y="246.3" width="21.8" height="33.79" style="fill:#455a64"></rect><rect x="204.15" y="248.77" width="17.31" height="28.84" style="fill:#37474f"></rect><rect x="198.78" y="280.09" width="28.04" height="4.86" style="fill:#FFC727"></rect><g style="opacity:0.5"><polygon points="221.46 248.77 221.46 252.34 204.14 269.65 204.14 263.07 218.44 248.77 221.46 248.77" style="fill:#455a64"></polygon><polygon points="221.46 270.15 221.46 273.45 217.29 277.62 214 277.62 221.46 270.15" style="fill:#455a64"></polygon><polygon points="209.97 248.77 204.14 254.6 204.14 251.31 206.67 248.77 209.97 248.77" style="fill:#455a64"></polygon><polygon points="221.46 264.99 221.46 266.05 209.89 277.62 208.83 277.62 221.46 264.99" style="fill:#455a64"></polygon></g><rect x="201.9" y="265.74" width="21.8" height="2.47" style="fill:#455a64"></rect><rect x="239.1" y="246.3" width="21.8" height="33.79" style="fill:#455a64"></rect><rect x="241.35" y="248.77" width="17.31" height="28.84" style="fill:#37474f"></rect><rect x="235.98" y="280.09" width="28.04" height="4.86" style="fill:#FFC727"></rect><g style="opacity:0.5"><polygon points="258.66 248.77 258.66 252.34 241.34 269.65 241.34 263.07 255.64 248.77 258.66 248.77" style="fill:#455a64"></polygon><polygon points="258.66 270.15 258.66 273.45 254.49 277.62 251.19 277.62 258.66 270.15" style="fill:#455a64"></polygon><polygon points="247.17 248.77 241.34 254.6 241.34 251.31 243.87 248.77 247.17 248.77" style="fill:#455a64"></polygon><polygon points="258.66 264.99 258.66 266.05 247.09 277.62 246.03 277.62 258.66 264.99" style="fill:#455a64"></polygon></g><rect x="239.1" y="265.74" width="21.8" height="2.47" style="fill:#455a64"></rect><rect x="276.3" y="246.3" width="21.8" height="33.79" style="fill:#455a64"></rect><rect x="278.55" y="248.77" width="17.31" height="28.84" style="fill:#37474f"></rect><rect x="273.18" y="280.09" width="28.04" height="4.86" style="fill:#FFC727"></rect><g style="opacity:0.5"><polygon points="295.86 248.77 295.86 252.34 278.54 269.65 278.54 263.07 292.84 248.77 295.86 248.77" style="fill:#455a64"></polygon><polygon points="295.86 270.15 295.86 273.45 291.69 277.62 288.4 277.62 295.86 270.15" style="fill:#455a64"></polygon><polygon points="284.37 248.77 278.54 254.6 278.54 251.31 281.07 248.77 284.37 248.77" style="fill:#455a64"></polygon><polygon points="295.86 264.99 295.86 266.05 284.29 277.62 283.23 277.62 295.86 264.99" style="fill:#455a64"></polygon></g><rect x="276.3" y="265.74" width="21.8" height="2.47" style="fill:#455a64"></rect><polygon points="319.92 292.92 180.08 292.92 180.08 294.63 319.92 293.77 319.92 292.92" style="fill:#FFC727;opacity:0.5"></polygon><rect x="180.08" y="290.54" width="139.84" height="2.38" style="fill:#fff"></rect><polygon points="319.92 240.34 180.08 240.34 180.08 242.06 319.92 241.2 319.92 240.34" style="fill:#FFC727;opacity:0.5"></polygon><rect x="180.08" y="237.96" width="139.84" height="2.38" style="fill:#fff"></rect><polygon points="319.92 187.77 180.08 187.77 180.08 189.49 319.92 188.63 319.92 187.77" style="fill:#FFC727;opacity:0.5"></polygon><rect x="180.08" y="185.39" width="139.84" height="2.38" style="fill:#fff"></rect><rect x="174.08" y="173.99" width="6" height="195.12" style="fill:#FFC727"></rect><rect x="174.08" y="173.99" width="6" height="195.12" style="fill:#fff;opacity:0.8"></rect><rect x="319.92" y="173.99" width="6" height="195.12" style="fill:#FFC727"></rect><rect x="319.92" y="173.99" width="6" height="195.12" style="fill:#fff;opacity:0.8"></rect><rect x="290.53" y="308.07" width="5.16" height="57.05" style="fill:#FFC727"></rect><rect x="290.53" y="308.07" width="5.16" height="57.05" style="fill:#fff;opacity:0.9"></rect><rect x="204.31" y="308.07" width="5.16" height="57.05" style="fill:#FFC727"></rect><rect x="204.31" y="308.07" width="5.16" height="57.05" style="fill:#fff;opacity:0.9"></rect><rect x="194.26" y="367.13" width="111.47" height="2.01" style="fill:#ebebeb"></rect><rect x="199.7" y="365.12" width="100.6" height="2.01" style="fill:#ebebeb"></rect><polygon points="300.3 366.62 199.7 366.12 199.7 367.13 300.3 367.13 300.3 366.62" style="fill:#dbdbdb"></polygon><rect x="49.63" y="228.05" width="124.46" height="141.07" style="fill:#FFC727"></rect><rect x="49.63" y="228.05" width="124.46" height="141.07" style="fill:#fff;opacity:0.7000000000000001"></rect><rect x="49.63" y="347.79" width="124.46" height="21.33" style="fill:#FFC727;opacity:0.5"></rect><rect x="63.75" y="246.06" width="21.8" height="33.79" style="fill:#455a64"></rect><rect x="66" y="248.53" width="17.31" height="28.84" style="fill:#37474f"></rect><rect x="60.63" y="279.85" width="28.04" height="4.86" style="fill:#FFC727"></rect><g style="opacity:0.5"><polygon points="83.31 248.54 83.31 252.1 66 269.42 66 262.83 80.29 248.54 83.31 248.54" style="fill:#455a64"></polygon><polygon points="83.31 269.92 83.31 273.21 79.14 277.38 75.85 277.38 83.31 269.92" style="fill:#455a64"></polygon><polygon points="71.83 248.54 66 254.37 66 251.07 68.52 248.54 71.83 248.54" style="fill:#455a64"></polygon><polygon points="83.31 264.76 83.31 265.81 71.75 277.38 70.69 277.38 83.31 264.76" style="fill:#455a64"></polygon></g><rect x="63.75" y="265.5" width="21.8" height="2.47" style="fill:#455a64"></rect><rect x="100.95" y="246.06" width="21.8" height="33.79" style="fill:#455a64"></rect><rect x="103.2" y="248.53" width="17.31" height="28.84" style="fill:#37474f"></rect><rect x="97.83" y="279.85" width="28.04" height="4.86" style="fill:#FFC727"></rect><g style="opacity:0.5"><polygon points="120.51 248.54 120.51 252.1 103.2 269.42 103.2 262.83 117.49 248.54 120.51 248.54" style="fill:#455a64"></polygon><polygon points="120.51 269.92 120.51 273.21 116.34 277.38 113.05 277.38 120.51 269.92" style="fill:#455a64"></polygon><polygon points="109.03 248.54 103.2 254.37 103.2 251.07 105.72 248.54 109.03 248.54" style="fill:#455a64"></polygon><polygon points="120.51 264.76 120.51 265.81 108.94 277.38 107.89 277.38 120.51 264.76" style="fill:#455a64"></polygon></g><rect x="100.95" y="265.5" width="21.8" height="2.47" style="fill:#455a64"></rect><rect x="138.15" y="246.06" width="21.8" height="33.79" style="fill:#455a64"></rect><rect x="140.4" y="248.53" width="17.31" height="28.84" style="fill:#37474f"></rect><rect x="135.03" y="279.85" width="28.04" height="4.86" style="fill:#FFC727"></rect><g style="opacity:0.5"><polygon points="157.71 248.54 157.71 252.1 140.4 269.42 140.4 262.83 154.69 248.54 157.71 248.54" style="fill:#455a64"></polygon><polygon points="157.71 269.92 157.71 273.21 153.54 277.38 150.25 277.38 157.71 269.92" style="fill:#455a64"></polygon><polygon points="146.23 248.54 140.4 254.37 140.4 251.07 142.93 248.54 146.23 248.54" style="fill:#455a64"></polygon><polygon points="157.71 264.76 157.71 265.81 146.15 277.38 145.09 277.38 157.71 264.76" style="fill:#455a64"></polygon></g><rect x="138.15" y="265.5" width="21.8" height="2.47" style="fill:#455a64"></rect><rect x="63.75" y="297.08" width="21.8" height="33.79" style="fill:#455a64"></rect><rect x="66" y="299.56" width="17.31" height="28.84" style="fill:#37474f"></rect><rect x="60.63" y="330.88" width="28.04" height="4.86" style="fill:#FFC727"></rect><g style="opacity:0.5"><polygon points="83.31 299.56 83.31 303.13 66 320.44 66 313.86 80.29 299.56 83.31 299.56" style="fill:#455a64"></polygon><polygon points="83.31 320.94 83.31 324.24 79.14 328.4 75.85 328.4 83.31 320.94" style="fill:#455a64"></polygon><polygon points="71.83 299.56 66 305.39 66 302.1 68.52 299.56 71.83 299.56" style="fill:#455a64"></polygon><polygon points="83.31 315.78 83.31 316.84 71.75 328.4 70.69 328.4 83.31 315.78" style="fill:#455a64"></polygon></g><rect x="63.75" y="316.52" width="21.8" height="2.47" style="fill:#455a64"></rect><rect x="100.95" y="297.08" width="21.8" height="33.79" style="fill:#455a64"></rect><rect x="103.2" y="299.56" width="17.31" height="28.84" style="fill:#37474f"></rect><rect x="97.83" y="330.88" width="28.04" height="4.86" style="fill:#FFC727"></rect><g style="opacity:0.5"><polygon points="120.51 299.56 120.51 303.13 103.2 320.44 103.2 313.86 117.49 299.56 120.51 299.56" style="fill:#455a64"></polygon><polygon points="120.51 320.94 120.51 324.24 116.34 328.4 113.05 328.4 120.51 320.94" style="fill:#455a64"></polygon><polygon points="109.03 299.56 103.2 305.39 103.2 302.1 105.72 299.56 109.03 299.56" style="fill:#455a64"></polygon><polygon points="120.51 315.78 120.51 316.84 108.94 328.4 107.89 328.4 120.51 315.78" style="fill:#455a64"></polygon></g><rect x="100.95" y="316.52" width="21.8" height="2.47" style="fill:#455a64"></rect><rect x="138.15" y="297.08" width="21.8" height="33.79" style="fill:#455a64"></rect><rect x="140.4" y="299.56" width="17.31" height="28.84" style="fill:#37474f"></rect><rect x="135.03" y="330.88" width="28.04" height="4.86" style="fill:#FFC727"></rect><g style="opacity:0.5"><polygon points="157.71 299.56 157.71 303.13 140.4 320.44 140.4 313.86 154.69 299.56 157.71 299.56" style="fill:#455a64"></polygon><polygon points="157.71 320.94 157.71 324.24 153.54 328.4 150.25 328.4 157.71 320.94" style="fill:#455a64"></polygon><polygon points="146.23 299.56 140.4 305.39 140.4 302.1 142.93 299.56 146.23 299.56" style="fill:#455a64"></polygon><polygon points="157.71 315.78 157.71 316.84 146.15 328.4 145.09 328.4 157.71 315.78" style="fill:#455a64"></polygon></g><rect x="138.15" y="316.52" width="21.8" height="2.47" style="fill:#455a64"></rect><rect x="45.38" y="221.02" width="128.7" height="7.03" style="fill:#FFC727"></rect><polygon points="174.08 291.33 49.63 291.33 49.63 293.04 174.08 292.18 174.08 291.33" style="fill:#FFC727;opacity:0.5"></polygon><rect x="49.63" y="288.95" width="124.46" height="2.38" style="fill:#fff"></rect><polygon points="164.95 228.05 174.08 228.05 174.08 369.12 171.15 369.12 164.95 228.05" style="fill:#FFC727;opacity:0.5"></polygon><rect x="325.92" y="228.05" width="124.46" height="141.07" transform="translate(776.29 597.17) rotate(180)" style="fill:#FFC727"></rect><rect x="325.92" y="228.05" width="124.46" height="141.07" transform="translate(776.29 597.17) rotate(180)" style="fill:#fff;opacity:0.7000000000000001"></rect><rect x="340.04" y="246.06" width="21.8" height="33.79" style="fill:#455a64"></rect><rect x="342.29" y="248.53" width="17.31" height="28.84" style="fill:#37474f"></rect><rect x="336.92" y="279.85" width="28.04" height="4.86" style="fill:#FFC727"></rect><g style="opacity:0.5"><polygon points="359.6 248.54 359.6 252.1 342.29 269.42 342.29 262.83 356.58 248.54 359.6 248.54" style="fill:#455a64"></polygon><polygon points="359.6 269.92 359.6 273.21 355.43 277.38 352.14 277.38 359.6 269.92" style="fill:#455a64"></polygon><polygon points="348.12 248.54 342.29 254.37 342.29 251.07 344.82 248.54 348.12 248.54" style="fill:#455a64"></polygon><polygon points="359.6 264.76 359.6 265.81 348.04 277.38 346.98 277.38 359.6 264.76" style="fill:#455a64"></polygon></g><rect x="340.04" y="265.5" width="21.8" height="2.47" style="fill:#455a64"></rect><rect x="377.24" y="246.06" width="21.8" height="33.79" style="fill:#455a64"></rect><rect x="379.49" y="248.53" width="17.31" height="28.84" style="fill:#37474f"></rect><rect x="374.12" y="279.85" width="28.04" height="4.86" style="fill:#FFC727"></rect><g style="opacity:0.5"><polygon points="396.8 248.54 396.8 252.1 379.49 269.42 379.49 262.83 393.78 248.54 396.8 248.54" style="fill:#455a64"></polygon><polygon points="396.8 269.92 396.8 273.21 392.63 277.38 389.34 277.38 396.8 269.92" style="fill:#455a64"></polygon><polygon points="385.32 248.54 379.49 254.37 379.49 251.07 382.02 248.54 385.32 248.54" style="fill:#455a64"></polygon><polygon points="396.8 264.76 396.8 265.81 385.24 277.38 384.18 277.38 396.8 264.76" style="fill:#455a64"></polygon></g><rect x="377.24" y="265.5" width="21.8" height="2.47" style="fill:#455a64"></rect><rect x="414.44" y="246.06" width="21.8" height="33.79" style="fill:#455a64"></rect><rect x="416.69" y="248.53" width="17.31" height="28.84" style="fill:#37474f"></rect><rect x="411.32" y="279.85" width="28.04" height="4.86" style="fill:#FFC727"></rect><g style="opacity:0.5"><polygon points="434 248.54 434 252.1 416.69 269.42 416.69 262.83 430.98 248.54 434 248.54" style="fill:#455a64"></polygon><polygon points="434 269.92 434 273.21 429.83 277.38 426.54 277.38 434 269.92" style="fill:#455a64"></polygon><polygon points="422.52 248.54 416.69 254.37 416.69 251.07 419.22 248.54 422.52 248.54" style="fill:#455a64"></polygon><polygon points="434 264.76 434 265.81 422.44 277.38 421.38 277.38 434 264.76" style="fill:#455a64"></polygon></g><rect x="414.44" y="265.5" width="21.8" height="2.47" style="fill:#455a64"></rect><rect x="340.04" y="297.08" width="21.8" height="33.79" style="fill:#455a64"></rect><rect x="342.29" y="299.56" width="17.31" height="28.84" style="fill:#37474f"></rect><rect x="336.92" y="330.88" width="28.04" height="4.86" style="fill:#FFC727"></rect><g style="opacity:0.5"><polygon points="359.6 299.56 359.6 303.13 342.29 320.44 342.29 313.86 356.58 299.56 359.6 299.56" style="fill:#455a64"></polygon><polygon points="359.6 320.94 359.6 324.24 355.43 328.4 352.14 328.4 359.6 320.94" style="fill:#455a64"></polygon><polygon points="348.12 299.56 342.29 305.39 342.29 302.1 344.82 299.56 348.12 299.56" style="fill:#455a64"></polygon><polygon points="359.6 315.78 359.6 316.84 348.04 328.4 346.98 328.4 359.6 315.78" style="fill:#455a64"></polygon></g><rect x="340.04" y="316.52" width="21.8" height="2.47" style="fill:#455a64"></rect><rect x="377.24" y="297.08" width="21.8" height="33.79" style="fill:#455a64"></rect><rect x="379.49" y="299.56" width="17.31" height="28.84" style="fill:#37474f"></rect><rect x="374.12" y="330.88" width="28.04" height="4.86" style="fill:#FFC727"></rect><g style="opacity:0.5"><polygon points="396.8 299.56 396.8 303.13 379.49 320.44 379.49 313.86 393.78 299.56 396.8 299.56" style="fill:#455a64"></polygon><polygon points="396.8 320.94 396.8 324.24 392.63 328.4 389.34 328.4 396.8 320.94" style="fill:#455a64"></polygon><polygon points="385.32 299.56 379.49 305.39 379.49 302.1 382.02 299.56 385.32 299.56" style="fill:#455a64"></polygon><polygon points="396.8 315.78 396.8 316.84 385.24 328.4 384.18 328.4 396.8 315.78" style="fill:#455a64"></polygon></g><rect x="377.24" y="316.52" width="21.8" height="2.47" style="fill:#455a64"></rect><rect x="414.44" y="297.08" width="21.8" height="33.79" style="fill:#455a64"></rect><rect x="416.69" y="299.56" width="17.31" height="28.84" style="fill:#37474f"></rect><rect x="411.32" y="330.88" width="28.04" height="4.86" style="fill:#FFC727"></rect><g style="opacity:0.5"><polygon points="434 299.56 434 303.13 416.69 320.44 416.69 313.86 430.98 299.56 434 299.56" style="fill:#455a64"></polygon><polygon points="434 320.94 434 324.24 429.83 328.4 426.54 328.4 434 320.94" style="fill:#455a64"></polygon><polygon points="422.52 299.56 416.69 305.39 416.69 302.1 419.22 299.56 422.52 299.56" style="fill:#455a64"></polygon><polygon points="434 315.78 434 316.84 422.44 328.4 421.38 328.4 434 315.78" style="fill:#455a64"></polygon></g><rect x="414.44" y="316.52" width="21.8" height="2.47" style="fill:#455a64"></rect><rect x="325.92" y="221.02" width="128.7" height="7.03" transform="translate(780.54 449.07) rotate(180)" style="fill:#FFC727"></rect><rect x="325.92" y="347.79" width="124.46" height="21.33" style="fill:#FFC727;opacity:0.5"></rect><polygon points="450.37 291.33 325.92 291.33 325.92 293.04 450.37 292.18 450.37 291.33" style="fill:#FFC727;opacity:0.5"></polygon><rect x="325.92" y="288.95" width="124.46" height="2.38" style="fill:#fff"></rect><polygon points="335.05 228.05 325.92 228.05 325.92 369.12 328.85 369.12 335.05 228.05" style="fill:#FFC727;opacity:0.5"></polygon><rect x="191.66" y="154.44" width="116.69" height="22.73" style="fill:#FFC727"></rect><rect x="191.65" y="174.44" width="116.69" height="0.5" style="fill:#fff"></rect><rect x="191.65" y="156.67" width="116.69" height="0.5" style="fill:#fff"></rect><path d="M203.12,169.9V162a.75.75,0,0,1,1.49,0v3.22h3.48V162a.73.73,0,0,1,.74-.74.75.75,0,0,1,.75.74v7.92a.74.74,0,0,1-.75.74.73.73,0,0,1-.74-.74v-3.22h-3.48v3.22a.75.75,0,0,1-1.49,0Z" style="fill:#fff"></path><path d="M212.07,162a.73.73,0,0,1,.74-.74.75.75,0,0,1,.75.74v7.92a.75.75,0,0,1-.75.74.73.73,0,0,1-.74-.74Z" style="fill:#fff"></path><path d="M215.65,165.82a4.89,4.89,0,0,1,5-4.84,4.94,4.94,0,0,1,3.06,1,.77.77,0,1,1-.94,1.21,3.52,3.52,0,0,0-2.12-.72,3.33,3.33,0,0,0-2.42,1,3.17,3.17,0,0,0,0,4.64,3.33,3.33,0,0,0,2.42,1,3.71,3.71,0,0,0,1.84-.51v-1.84h-1.92a.77.77,0,0,1-.77-.76.76.76,0,0,1,.77-.76h2.67a.76.76,0,0,1,.78.76v3a1.37,1.37,0,0,1,0,.23.21.21,0,0,0,0,.07h0a.6.6,0,0,1-.26.32,5,5,0,0,1-8-3.77Z" style="fill:#fff"></path><path d="M226.4,169.9V162a.73.73,0,0,1,.74-.74.75.75,0,0,1,.75.74v3.22h3.47V162a.75.75,0,0,1,1.49,0v7.92a.75.75,0,0,1-1.49,0v-3.22h-3.47v3.22a.74.74,0,0,1-.75.74A.73.73,0,0,1,226.4,169.9Z" style="fill:#fff"></path><path d="M239.65,168.3a.71.71,0,0,1,1-.09,4.35,4.35,0,0,0,2.57,1,3,3,0,0,0,1.68-.49,1.21,1.21,0,0,0,.57-1,.8.8,0,0,0-.12-.43,1.26,1.26,0,0,0-.4-.4,5.35,5.35,0,0,0-1.84-.63h0a6.87,6.87,0,0,1-1.73-.53,2.89,2.89,0,0,1-1.25-1,2.07,2.07,0,0,1-.31-1.1,2.46,2.46,0,0,1,1.08-2,3.94,3.94,0,0,1,2.32-.71,5.31,5.31,0,0,1,2.93,1.07.68.68,0,0,1,.18.95.67.67,0,0,1-.95.2,3.92,3.92,0,0,0-2.16-.86,2.55,2.55,0,0,0-1.5.46,1,1,0,0,0-.51.85.6.6,0,0,0,.09.37,1.34,1.34,0,0,0,.36.35,4.63,4.63,0,0,0,1.68.59h0a8,8,0,0,1,1.85.57,3,3,0,0,1,1.34,1.11,2.2,2.2,0,0,1,.33,1.14,2.6,2.6,0,0,1-1.16,2.08,4.16,4.16,0,0,1-2.48.77,5.82,5.82,0,0,1-3.44-1.35A.73.73,0,0,1,239.65,168.3Z" style="fill:#fff"></path><path d="M248.49,165.81a4.92,4.92,0,0,1,4.93-4.83,5,5,0,0,1,3.1,1,.8.8,0,0,1,.13,1.08.78.78,0,0,1-1.07.14,3.36,3.36,0,0,0-2.16-.73,3.55,3.55,0,0,0-2.42,1,3.35,3.35,0,0,0-1,2.34,3.27,3.27,0,0,0,1,2.33,3.56,3.56,0,0,0,2.42,1,3.41,3.41,0,0,0,2.16-.74.81.81,0,0,1,1.07.15.79.79,0,0,1-.13,1.07,5,5,0,0,1-3.1,1A4.91,4.91,0,0,1,248.49,165.81Z" style="fill:#fff"></path><path d="M259.26,169.9V162a.73.73,0,0,1,.74-.74.74.74,0,0,1,.75.74v3.22h3.48V162a.73.73,0,0,1,.74-.74.75.75,0,0,1,.75.74v7.92a.74.74,0,0,1-.75.74.73.73,0,0,1-.74-.74v-3.22h-3.48v3.22a.73.73,0,0,1-.75.74A.73.73,0,0,1,259.26,169.9Z" style="fill:#fff"></path><path d="M275.79,162.41a5,5,0,0,1,1.36,3.4,4.9,4.9,0,0,1-1.36,3.39,4.36,4.36,0,0,1-3.21,1.44,4.51,4.51,0,0,1-3.29-1.44,4.87,4.87,0,0,1-1.33-3.39,4.93,4.93,0,0,1,1.33-3.4,4.5,4.5,0,0,1,3.29-1.43A4.36,4.36,0,0,1,275.79,162.41Zm-.17,3.4a3.49,3.49,0,0,0-.92-2.35,2.9,2.9,0,0,0-4.29,0,3.4,3.4,0,0,0-.92,2.35,3.31,3.31,0,0,0,.92,2.33,2.86,2.86,0,0,0,4.29,0A3.4,3.4,0,0,0,275.62,165.81Z" style="fill:#fff"></path><path d="M287.07,162.41a5,5,0,0,1,1.36,3.4,4.9,4.9,0,0,1-1.36,3.39,4.36,4.36,0,0,1-3.21,1.44,4.5,4.5,0,0,1-3.28-1.44,4.83,4.83,0,0,1-1.33-3.39,4.89,4.89,0,0,1,1.33-3.4,4.49,4.49,0,0,1,3.28-1.43A4.36,4.36,0,0,1,287.07,162.41Zm-.17,3.4a3.48,3.48,0,0,0-.91-2.35,2.91,2.91,0,0,0-4.3,0,3.44,3.44,0,0,0-.91,2.35,3.35,3.35,0,0,0,.91,2.33,2.87,2.87,0,0,0,4.3,0A3.39,3.39,0,0,0,286.9,165.81Z" style="fill:#fff"></path><path d="M291,169.9V162a.74.74,0,0,1,.74-.74.75.75,0,0,1,.75.74v7.17h3.64a.75.75,0,0,1,0,1.49h-4.39A.74.74,0,0,1,291,169.9Z" style="fill:#fff"></path><g style="opacity:0.5"><rect x="58.61" y="339.44" width="8.12" height="2.8" style="fill:#FFC727"></rect><path d="M62.2,345.78c-2.4,0-5.73.11-8.11.11H54v-3h.13c2.39,0,5.76,0,8.11.06h.07V343l-.07,2.81Zm0,0L62.14,343l.06.07c-1.35,0-2.7,0-4.05,0l-4.06,0,.12-.13v2.81l-.11-.12c2.33,0,5.74.07,8.11.12Z" style="fill:#FFC727"></path><path d="M199.59,261.5c-2.41,0-5.74.11-8.12.11h-.11v-3h.13c2.39,0,5.76,0,8.12.06h.06v.06l-.06,2.81Zm0,0-.07-2.81.07.07c-1.36,0-2.71,0-4.06,0l-4.06,0,.12-.13v2.81l-.11-.12c2.33,0,5.75.08,8.12.12Z" style="fill:#FFC727"></path><rect x="186.94" y="262.23" width="8.12" height="2.8" style="fill:#FFC727"></rect><path d="M190.55,261.5c-2.41,0-5.74.11-8.12.11h-.11v-.11l0-2.81v-.12h.13c2.39,0,5.76,0,8.12.06h.06v.06l-.06,2.81Zm0,0-.07-2.81.07.07c-1.36,0-2.71,0-4.06,0l-4.06,0,.12-.13v2.81l-.11-.12c2.33,0,5.75.08,8.12.12Z" style="fill:#FFC727"></path><path d="M441.88,241.2c-2.41,0-5.74.12-8.12.11h-.11v-3h.13c2.39,0,5.76,0,8.12.07h.06v.06l-.06,2.8Zm0,0-.07-2.8.07.06-4.06,0h-4.06l.12-.12v2.8l-.11-.11c2.33,0,5.75.07,8.12.11Z" style="fill:#FFC727"></path><path d="M441.88,298.49c-2.41,0-5.74.12-8.12.12h-.11v-3.05h.13c2.39,0,5.76,0,8.12.07h.06v.06l-.06,2.8Zm0,0-.07-2.8.07.06-4.06.05h-4.06l.12-.12v2.8l-.11-.11c2.33,0,5.75.07,8.12.11Z" style="fill:#FFC727"></path><rect x="438.23" y="234.85" width="8.12" height="2.8" style="fill:#FFC727"></rect><rect x="335.44" y="240.66" width="8.12" height="2.8" style="fill:#FFC727"></rect><path d="M343.59,345.05c-2.41,0-5.74.12-8.12.11h-.11v-.11l0-2.8v-.13h.13c2.39,0,5.76,0,8.12.06h.06v.07l-.06,2.8Zm0,0-.07-2.8.07.06c-1.36,0-2.71,0-4.06,0l-4.06,0,.12-.12v2.8l-.11-.12c2.33,0,5.75.08,8.12.12Z" style="fill:#FFC727"></path><rect x="339.94" y="338.7" width="8.12" height="2.8" style="fill:#FFC727"></rect><path d="M437.33,237.66c-2.4,0-5.73.12-8.11.11h-.12v-3h.13c2.39,0,5.76,0,8.11.06h.07v.06l-.07,2.8Zm0,0-.06-2.8.06.06-4.05.05h-4.06l.12-.12v2.8l-.11-.11c2.33,0,5.74.07,8.11.11Z" style="fill:#FFC727"></path><path d="M102.84,267.14c-2.41,0-5.74.12-8.12.12h-.11v-3h.13c2.39,0,5.76,0,8.12.06h.06v.06l-.06,2.8Zm0,0-.06-2.8.06.06-4.06.05-4.06,0,.13-.13,0,2.8-.11-.11c2.33,0,5.75.07,8.12.11Z" style="fill:#FFC727"></path><path d="M195.09,344.08c-2.41,0-5.74.12-8.12.11h-.11v-3H187c2.39,0,5.76,0,8.12.06h.06v.07l-.06,2.8Zm0,0-.06-2.8.06.06-4.06.05H187l.13-.12,0,2.8L187,344c2.33,0,5.75.07,8.12.11Z" style="fill:#FFC727"></path><path d="M93.8,267.14c-2.41,0-5.74.12-8.12.12h-.11v-3h.12c2.39,0,5.76,0,8.12.06h.06v.06l-.06,2.8Zm0,0-.06-2.8.06.06-4.06.05-4.06,0,.13-.13,0,2.8-.11-.11c2.33,0,5.75.07,8.12.11Z" style="fill:#FFC727"></path><path d="M310.59,315.39c-2.4,0-5.74.11-8.11.11h-.12v-3h.13c2.39,0,5.75,0,8.11.06h.07v.06l-.07,2.81Zm0,0-.06-2.81.06.07c-1.35,0-2.7,0-4.06,0l-4,0,.12-.13v2.81l-.11-.12c2.33,0,5.74.08,8.11.12Z" style="fill:#FFC727"></path><path d="M310.59,200.36c-2.4,0-5.74.12-8.11.11h-.12v-3h.13c2.39,0,5.75,0,8.11.06h.07v.06l-.07,2.8Zm0,0-.06-2.8.06.06-4.06,0h-4l.12-.12v2.8l-.11-.11c2.33,0,5.74.07,8.11.11Z" style="fill:#FFC727"></path><rect x="307" y="201.09" width="8.12" height="2.8" style="fill:#FFC727"></rect><rect x="125.88" y="232.52" width="8.12" height="2.8" style="fill:#FFC727"></rect></g></g><g id="freepik--Floor--inject-91"><path d="M34.57,376.63c138-.61,292.84-.61,430.86,0-138,.62-292.84.62-430.86,0Z" style="fill:#263238"></path><path d="M34.57,459.43c138-.61,292.84-.62,430.86,0-138,.62-292.84.61-430.86,0Z" style="fill:#263238"></path><rect x="41.36" y="369.13" width="417.27" height="7.27" style="fill:#c7c7c7"></rect><path d="M70.62,369.13a13.73,13.73,0,0,1,0,7.27,12,12,0,0,1-.5-3.63A12.34,12.34,0,0,1,70.62,369.13Z" style="fill:#263238"></path><path d="M103.23,369.13a12.34,12.34,0,0,1,.5,3.64,12,12,0,0,1-.5,3.63,13.73,13.73,0,0,1,0-7.27Z" style="fill:#263238"></path><path d="M135.85,369.13a13.73,13.73,0,0,1,0,7.27,12,12,0,0,1-.5-3.63A12.34,12.34,0,0,1,135.85,369.13Z" style="fill:#263238"></path><path d="M168.46,369.13a12.34,12.34,0,0,1,.5,3.64,12,12,0,0,1-.5,3.63,13.73,13.73,0,0,1,0-7.27Z" style="fill:#263238"></path><path d="M201.08,369.13a13.73,13.73,0,0,1,0,7.27,12,12,0,0,1-.5-3.63A12.34,12.34,0,0,1,201.08,369.13Z" style="fill:#263238"></path><path d="M233.69,369.13a12.34,12.34,0,0,1,.5,3.64,12,12,0,0,1-.5,3.63,13.73,13.73,0,0,1,0-7.27Z" style="fill:#263238"></path><path d="M266.31,369.13a13.73,13.73,0,0,1,0,7.27,12,12,0,0,1-.5-3.63A12.34,12.34,0,0,1,266.31,369.13Z" style="fill:#263238"></path><path d="M298.92,369.13a12.34,12.34,0,0,1,.5,3.64,12,12,0,0,1-.5,3.63,13.73,13.73,0,0,1,0-7.27Z" style="fill:#263238"></path><path d="M331.54,369.13a13.73,13.73,0,0,1,0,7.27,12,12,0,0,1-.5-3.63A12.34,12.34,0,0,1,331.54,369.13Z" style="fill:#263238"></path><path d="M364.15,369.13a12.34,12.34,0,0,1,.5,3.64,12,12,0,0,1-.5,3.63,13.73,13.73,0,0,1,0-7.27Z" style="fill:#263238"></path><path d="M396.77,369.13a13.73,13.73,0,0,1,0,7.27,12,12,0,0,1-.5-3.63A12.34,12.34,0,0,1,396.77,369.13Z" style="fill:#263238"></path><path d="M429.38,369.13a12.34,12.34,0,0,1,.5,3.64,12,12,0,0,1-.5,3.63,13.73,13.73,0,0,1,0-7.27Z" style="fill:#263238"></path><polygon points="220.13 376.63 279.87 376.63 392.74 459.43 107.33 459.43 220.13 376.63" style="fill:#ebebeb"></polygon></g><g id="freepik--Plants--inject-91"><path d="M88.42,369.13s-.84-3.92-2.52-4.53-2.71,1.16-2.71,1.16-.39-3.76-2.78-4.88-4.17,1.18-4.17,1.18-1.83-4.76-5.1-4.76-4.91,7-4.91,7-1.93-2.07-3.91-.9-2,5.77-2,5.77Z" style="fill:#37474f"></path><path d="M367.26,369.13s-.84-3.92-2.52-4.53-2.7,1.16-2.7,1.16-.4-3.76-2.78-4.88-4.17,1.18-4.17,1.18-1.83-4.76-5.1-4.76-4.92,7-4.92,7-1.92-2.07-3.9-.9-2,5.77-2,5.77Z" style="fill:#455a64"></path><path d="M162.7,369.13H133.15s1-4.16,2.93-4.46a2.91,2.91,0,0,1,2.88,1.64s-.09-5.81,3.57-6.8,6.72,4.14,6.72,4.14,2.3-2.92,5.42-2.74,3.93,5,3.93,5S161.44,364.26,162.7,369.13Z" style="fill:#37474f"></path><path d="M62.16,369.13H46.61s0-2.31,1.56-2.93a2.09,2.09,0,0,1,2.44.59s.62-4.26,3.47-4.26,4.22,3.67,4.22,3.67a2.18,2.18,0,0,1,2.22-.9C62.1,365.51,62.16,369.13,62.16,369.13Z" style="fill:#455a64"></path><path d="M174.9,369.13H159.35s0-2.31,1.56-2.93a2.09,2.09,0,0,1,2.44.59s.63-4.26,3.48-4.26S171,366.2,171,366.2a2.18,2.18,0,0,1,2.22-.9C174.84,365.51,174.9,369.13,174.9,369.13Z" style="fill:#455a64"></path><path d="M430.7,369.13H415.15s0-2.31,1.56-2.93a2.09,2.09,0,0,1,2.44.59s.62-4.26,3.47-4.26,4.22,3.67,4.22,3.67a2.17,2.17,0,0,1,2.22-.9C430.64,365.51,430.7,369.13,430.7,369.13Z" style="fill:#455a64"></path><path d="M453.39,369.13H427.75s.06-3.81,2.58-4.83a3.44,3.44,0,0,1,4,1s1-7,5.73-7S447,364.3,447,364.3a3.6,3.6,0,0,1,3.66-1.49C453.29,363.15,453.39,369.13,453.39,369.13Z" style="fill:#37474f"></path></g></svg>