<svg xmlns="http://www.w3.org/2000/svg" xmlns:xlink="http://www.w3.org/1999/xlink" viewBox="0 0 500 500"><defs><clipPath id="freepik--clip-path--inject-12"><path d="M240.27,211.61a64.17,64.17,0,0,1-4.63,7.48A63,63,0,0,1,155.05,238c-1.39-.73-2.75-1.51-4.05-2.33s-2.57-1.66-3.79-2.56c-1.48-1.07-2.9-2.21-4.26-3.4l0,0a1.65,1.65,0,0,1-.24-.22l0,0a63.08,63.08,0,1,1,97.61-17.83Z" style="fill:#92E3A9;stroke:#263238;stroke-linecap:round;stroke-linejoin:round"></path></clipPath><clipPath id="freepik--clip-path-2--inject-12"><path d="M261.16,407.57a8.14,8.14,0,0,1-3.4-.93c-17-8.87-30.22-23.53-38.18-34.05A125.73,125.73,0,0,1,211.05,360l4.08-17.48s3.84,10,19.27,19.83,33.76,13.07,39.69,23C279.34,394,270.09,408,261.16,407.57Z" style="fill:#fff;stroke:#263238;stroke-linecap:round;stroke-linejoin:round"></path></clipPath><clipPath id="freepik--clip-path-3--inject-12"><path d="M306.56,382.09s-6.31-.19-14.75.09c-12.76.4-30.39,1.84-38.45,6.53l-.38-.13L245.6,386l-.15-.22c-1.36-2-12.33-17.75-28-24.16l-22.16-61.92s23,1,35.57,21.78l6.31,2.28s37.55-11.12,58.57-7.12Z" style="fill:#92E3A9;stroke:#263238;stroke-linecap:round;stroke-linejoin:round"></path></clipPath><clipPath id="freepik--clip-path-4--inject-12"><path d="M354.81,427.87c-6.35,1.73-13.25-9.43-21.67-21.61h0c-5.56-8-11.78-16.53-18.93-22-.57-.43-1.15-.85-1.73-1.25l4.18-21c8.68,4.55,14.06,11.84,23.07,19.33,14.5,12.07,27.35,19.48,30.91,24.82S365.69,424.9,354.81,427.87Z" style="fill:#fff;stroke:#263238;stroke-linecap:round;stroke-linejoin:round"></path></clipPath><clipPath id="freepik--clip-path-5--inject-12"><path d="M319,382.18a3.47,3.47,0,0,1-2,1.62,7,7,0,0,1-.69.23l-.19,0c-6.71,1.75-21.81-1.89-21.81-1.89s-9.89-4.7-10.49-5.81a27.22,27.22,0,0,1-1.11-2.7l-.27-.79s-3.56-2-4-3.56-1.19-2,1-2.28,14,0,14,0l-12.85-5.24s-8.51-4.29-9.3-5.8-1.78-2.51,2.57-1.91,13.85,3.36,13.85,3.36L295.2,359l-7.44-3.17s-14.64-1.77-11.87-6.32h8.31a85.79,85.79,0,0,1,14,1.78c2.42.74,18.42,10.68,18.42,10.68" style="fill:#fff;stroke:#263238;stroke-linecap:round;stroke-linejoin:round"></path></clipPath><clipPath id="freepik--clip-path-6--inject-12"><path d="M136.78,417.62l36.62,11,67-15.29S199.48,401.71,199.1,402,136.78,417.62,136.78,417.62Z" style="fill:#92E3A9;stroke:#263238;stroke-linecap:round;stroke-linejoin:round"></path></clipPath><clipPath id="freepik--clip-path-7--inject-12"><path d="M137.31,404.72c-2.57.18-3.21,9.44-.53,12.9l59.16-12.28,4.74-11.22Z" style="fill:#92E3A9;stroke:#263238;stroke-linecap:round;stroke-linejoin:round"></path></clipPath><clipPath id="freepik--clip-path-8--inject-12"><path d="M139.2,406a8.82,8.82,0,0,1,.45,11A10.41,10.41,0,0,1,139.2,406Z" style="fill:#263238;stroke:#263238;stroke-linecap:round;stroke-linejoin:round"></path></clipPath><clipPath id="freepik--clip-path-9--inject-12"><polygon points="276.07 420.62 340.02 423.24 333.79 445.25 255.12 442.25 276.07 420.62" style="fill:#fff;stroke:#263238;stroke-linecap:round;stroke-linejoin:round"></polygon></clipPath></defs><g id="freepik--background-simple--inject-12"><path d="M67.93,167.09s-27.88,72,11.3,144.5S199.11,422.39,263.7,455.14s131.66,16.8,163.53-36.84-11.84-91.93-11.9-168.42,11.45-96.74-30-161.36-143.06-78.93-219.9-31S67.93,167.09,67.93,167.09Z" style="fill:#fff;opacity:0.7000000000000001"></path><path d="M63.69,139.16C90.4,87.32,140,48.1,201.75,42.58A171.52,171.52,0,0,1,320.48,76.93c16.86,13,31.84,29.55,41.79,48.44,11.42,21.7,14.75,46.72,26.5,68.32,14.61,26.85,42.05,37.93,60.48,61.13,15.17,19.11,20.38,44.72,18.64,69.06-3.18,44.43-29.21,86.61-67.5,109.38-32.37,19.25-71.39,24.56-109,22.81-58-2.69-115.74-21.82-161.42-57.65s-78.51-88.8-86.29-146.33C38.39,213,46.08,173.33,63.69,139.16Z" style="fill:#92E3A9"></path><path d="M63.69,139.16C90.4,87.32,140,48.1,201.75,42.58A171.52,171.52,0,0,1,320.48,76.93c16.86,13,31.84,29.55,41.79,48.44,11.42,21.7,14.75,46.72,26.5,68.32,14.61,26.85,42.05,37.93,60.48,61.13,15.17,19.11,20.38,44.72,18.64,69.06-3.18,44.43-29.21,86.61-67.5,109.38-32.37,19.25-71.39,24.56-109,22.81-58-2.69-115.74-21.82-161.42-57.65s-78.51-88.8-86.29-146.33C38.39,213,46.08,173.33,63.69,139.16Z" style="fill:#fff;opacity:0.7000000000000001"></path></g><g id="freepik--Character--inject-12"><path d="M417.33,428.05c-5.36,4.46-46.65,32.8-105.57,28.23-3.17-26.82-15.26-137-1.51-154.28,0,0,33.36-15.91,64.09-9.23s42.69,13.08,44.88,18.62C420.88,315.58,418.51,393.6,417.33,428.05Z" style="fill:#263238"></path><path d="M373.32,304.54c-17.7,15.33-40.5,12.09-40,.32.08-1.84,2.05-4.12,2.05-4.12l-.69-1.06-3-4.53c-2.19-3.39-4.93-7.65-6.84-10.75-1.6-2.64,38.29-27.18,38.29-13.07,0,19.88,9.76,23.62,9.76,23.62C376.57,296.43,380,298.77,373.32,304.54Z" style="fill:#fff;stroke:#263238;stroke-linecap:round;stroke-linejoin:round"></path><path d="M384.51,334.9s-3.57,12.24-1.88,15.75" style="fill:none;stroke:#fff;stroke-linecap:round;stroke-linejoin:round"></path><path d="M380.34,299.36c0,11.81-35.23,23.38-45.55,11.53" style="fill:none;stroke:#fff;stroke-linecap:round;stroke-linejoin:round"></path><path d="M351.36,285.73S349,294.63,338,301.58a4.12,4.12,0,0,0-2.37-1.87,3.11,3.11,0,0,0-1,0l-3-4.53C337.32,291.08,351.36,285.73,351.36,285.73Z" style="fill:#263238"></path><path d="M356.3,274.79s-.12,8.78-2,10.57c-13.95,13.38-27.59,14.44-29.84,10.91-15.15-23.76-11.57-30-13.11-34.07-2.73-7.14-6.08-18.8-4.6-25.86,3.3-15.77,33-28,48.64-12.14,7.5,7.59,9.87,24.06,8.29,37.78" style="fill:#fff;stroke:#263238;stroke-linecap:round;stroke-linejoin:round"></path><path d="M313.26,254.86s-4.17-1.87-5.07.36" style="fill:none;stroke:#263238;stroke-linecap:round;stroke-linejoin:round"></path><path d="M323.37,255s8.67-3.63,12.57.78" style="fill:none;stroke:#263238;stroke-linecap:round;stroke-linejoin:round"></path><path d="M333,261.15c.14,1.3-.49,2.43-1.42,2.54s-1.79-.88-1.93-2.18.49-2.44,1.42-2.54S332.82,259.85,333,261.15Z" style="fill:#263238"></path><path d="M316,261.54c.15,1.3-.49,2.44-1.42,2.54s-1.79-.87-1.93-2.17.49-2.44,1.42-2.54S315.84,260.24,316,261.54Z" style="fill:#263238"></path><path d="M316.42,258.12c1.21,1.95.55,5.28-1.05,9.85s-.19,6.22,5.95,6.68" style="fill:#fff;stroke:#263238;stroke-linecap:round;stroke-linejoin:round"></path><path d="M321.32,282.56s8-.73,11.66-2.74" style="fill:none;stroke:#263238;stroke-linecap:round;stroke-linejoin:round"></path><path d="M372,237.22c0-5.94-5.86-18.13-16.14-19.5h0c-5.91-6.18-14.33-8.45-24.55-6.1-23.62,5.42-30.81,28.74-31.84,32.6-.1.36-.15.56-.15.56l6.32-1.6-2.72,5.31,3.31,2.19-.76.84,3.84,3.7-1.2-6.76c.74-4.36,5.76-10.46,5.76-10.46a16.31,16.31,0,0,0-3.3,8.19c2-5.19,14-10,14-10-3.89,3.16-6,9.34-6,9.34,3.7-4.56,12.37-7.51,17.92-9.08,1.87,4.51,4.84,9.22,9.08,11.83,4,2.46,3.86,7.54,3.86,7.54a23.32,23.32,0,0,1,9,12.36l4.84,6.62S372,264.09,372,237.22Z" style="fill:#263238"></path><path d="M351.63,257.52c-1.62-3.47,4.26-12.87,8.43-11.71,2.34.66,5.4,4.93,6,9.41s-2.57,13-5.95,14.85c-2.15,1.2-3.92-2.07-3.92-2.07" style="fill:#fff;stroke:#263238;stroke-linecap:round;stroke-linejoin:round"></path><polygon points="96.51 427.25 209.5 400.83 445.18 428.05 384.5 469.55 96.51 427.25" style="fill:#fff"></polygon><polyline points="96.51 427.25 209.5 400.83 445.18 428.05" style="fill:#fff;stroke:#263238;stroke-linecap:round;stroke-linejoin:round"></polyline><polygon points="194.29 432.55 240.03 412.33 297.86 415.32 272.14 437.31 194.29 432.55" style="fill:#fff;stroke:#263238;stroke-linecap:round;stroke-linejoin:round"></polygon><path d="M312.48,301c-14.67,6-17.83,19.49-42.76,72.8,0,0-11.07,2.27-17,15.72s4,24.07,15.43,23.71c0,0,4.59,4,14,3.59s51-64.05,51-64.05Z" style="fill:#263238"></path><path d="M274.09,376.93c6.56,5.84,10.33,14.41,8.33,23.91" style="fill:none;stroke:#fff;stroke-linecap:round;stroke-linejoin:round"></path><path d="M280.42,379.74s8.06,1.76,9.31,12.08" style="fill:none;stroke:#fff;stroke-linecap:round;stroke-linejoin:round"></path><path d="M304,349.54a58.84,58.84,0,0,1-3.82-29.67" style="fill:none;stroke:#fff;stroke-linecap:round;stroke-linejoin:round"></path><path d="M302.86,335.94c-.61,4.2,3.73,26.56,3.7,50.07" style="fill:none;stroke:#fff;stroke-linecap:round;stroke-linejoin:round"></path><path d="M412.52,305.42c18.35,9.22,20.53,37.59,3.22,71.51-12.23,23.94-29.11,59.29-39.79,61.66s-21.1-4.28-21.1-4.28-9-.42-11.72-6.82C335.69,410,354.6,387.9,362,393.19c0,0,23.76-51.67,28.09-54.93" style="fill:#263238"></path><path d="M341.43,416.86C339,404.79,358,390.55,362,393.19c0,0,14.11.79,16.22,10.55" style="fill:none;stroke:#fff;stroke-linecap:round;stroke-linejoin:round"></path><path d="M393.12,419.43c8.26-14.57,22.62-42.5,22.62-42.5" style="fill:none;stroke:#fff;stroke-linecap:round;stroke-linejoin:round"></path><path d="M362,393.19s9.89-5.92,17.28-.32" style="fill:none;stroke:#fff;stroke-linecap:round;stroke-linejoin:round"></path><path d="M365.38,386s5.46-12,11-23,18.22-27.29,23.49-28.08" style="fill:none;stroke:#fff;stroke-linecap:round;stroke-linejoin:round"></path><path d="M261.16,407.57a8.14,8.14,0,0,1-3.4-.93c-17-8.87-30.22-23.53-38.18-34.05A125.73,125.73,0,0,1,211.05,360l4.08-17.48s3.84,10,19.27,19.83,33.76,13.07,39.69,23C279.34,394,270.09,408,261.16,407.57Z" style="fill:#fff"></path><g style="clip-path:url(#freepik--clip-path-2--inject-12)"><path d="M261.16,407.57a16.55,16.55,0,0,0-1-3.69c-3.57-8.94-25.17-26.71-25.17-26.71-5.14-.16-10.79-2.3-15.39-4.58A125.73,125.73,0,0,1,211.05,360l4.08-17.48s3.84,10,19.27,19.83,33.76,13.07,39.69,23C279.34,394,270.09,408,261.16,407.57Z" style="fill:#92E3A9;opacity:0.4"></path></g><path d="M261.16,407.57a8.14,8.14,0,0,1-3.4-.93c-17-8.87-30.22-23.53-38.18-34.05A125.73,125.73,0,0,1,211.05,360l4.08-17.48s3.84,10,19.27,19.83,33.76,13.07,39.69,23C279.34,394,270.09,408,261.16,407.57Z" style="fill:none;stroke:#263238;stroke-linecap:round;stroke-linejoin:round"></path><path d="M222.66,358.94s-2.11,9.32-7.67,7.23c-3-1.13-8.78-10.09-9.87-14.61Z" style="fill:#fff;stroke:#263238;stroke-linecap:round;stroke-linejoin:round"></path><path d="M198.15,301.55l4.54-2.34s12.83.11,20.79,6.58c7.23,5.88,10.9,15.09,10.9,15.09s28.09-15.51,56.78-6.61l11.7,65.21L249.07,383,215.5,351.11Z" style="fill:#fff;stroke:#263238;stroke-linecap:round;stroke-linejoin:round"></path><path d="M306.56,382.09s-6.31-.19-14.75.09c-12.76.4-30.39,1.84-38.45,6.53l-.38-.13L245.6,386l-.15-.22c-1.36-2-12.33-17.75-28-24.16l-22.16-61.92s23,1,35.57,21.78l6.31,2.28s37.55-11.12,58.57-7.12Z" style="fill:#92E3A9"></path><g style="clip-path:url(#freepik--clip-path-3--inject-12)"><path d="M245.45,385.79c-1.36-2-12.33-17.75-28-24.16l-22.16-61.92s23,1,35.57,21.78Z" style="fill-opacity:0.7000000000000001;opacity:0.30000000000000004"></path><path d="M291.81,382.18c-12.76.4-30.39,1.84-38.45,6.53l-.38-.13L238.24,326s12.06-2.71,15.77-1.34C254,324.68,278.52,342.77,291.81,382.18Z" style="fill-opacity:0.7000000000000001;opacity:0.30000000000000004"></path></g><path d="M306.56,382.09s-6.31-.19-14.75.09c-12.76.4-30.39,1.84-38.45,6.53l-.38-.13L245.6,386l-.15-.22c-1.36-2-12.33-17.75-28-24.16l-22.16-61.92s23,1,35.57,21.78l6.31,2.28s37.55-11.12,58.57-7.12Z" style="fill:none;stroke:#263238;stroke-linecap:round;stroke-linejoin:round"></path><line x1="237.19" y1="323.77" x2="251.66" y2="383.8" style="fill:none;stroke:#263238;stroke-linecap:round;stroke-linejoin:round"></line><line x1="245.6" y1="386.01" x2="231.54" y2="326.02" style="fill:none;stroke:#263238;stroke-linecap:round;stroke-linejoin:round"></line><path d="M209.88,360.05c-3.21-.89-9.68-20.18-6.72-28.49,0,0,3.52-6.11,5-6.53,2.24-.65,11.28-.46,10.84,1.06-1,3.52-7.94,3.46-7.94,3.46l-2.25,4.12.09,2.27s3.27-2.38,4.47-2.31c.62,0,3.82,1.6,6.36,2.94,2.17,1.15,3.5,1.78,3,2.82-1.61,3.46-8.46,1-8.46,1l-2.58,3.89s2.49.43,3.58.55,10.14,6.15,9.87,6.9c-1.07,2.94-9.65-.24-9.65-.24l-1.52,1.27s6.32,1.63,7,1.87c1,.37,4.85,3.33,4.79,3.67-.46,2.6-5.77.69-5.77.69l-4.65-.19a5.72,5.72,0,0,1-2.48,1.28" style="fill:#fff;stroke:#263238;stroke-linecap:round;stroke-linejoin:round"></path><path d="M208.86,335.94s-3,2.52-3.77,3.25-.58,3.05-.58,3.05" style="fill:none;stroke:#263238;stroke-linecap:round;stroke-linejoin:round"></path><path d="M206.69,347.36c0,2.54,1.7,4.08,2.48,4.9s-1.25,3.05,1,4.65" style="fill:none;stroke:#263238;stroke-linecap:round;stroke-linejoin:round"></path><path d="M354.81,427.87c-6.35,1.73-13.25-9.43-21.67-21.61h0c-5.56-8-11.78-16.53-18.93-22-.57-.43-1.15-.85-1.73-1.25l4.18-21c8.68,4.55,14.06,11.84,23.07,19.33,14.5,12.07,27.35,19.48,30.91,24.82S365.69,424.9,354.81,427.87Z" style="fill:#fff"></path><g style="clip-path:url(#freepik--clip-path-4--inject-12)"><path d="M333.14,406.25c-5.56-8-11.78-16.53-18.93-22a7,7,0,0,0,2.77-.42S328.28,393,333.14,406.25Z" style="fill:#92E3A9;opacity:0.4"></path></g><path d="M354.81,427.87c-6.35,1.73-13.25-9.43-21.67-21.61h0c-5.56-8-11.78-16.53-18.93-22-.57-.43-1.15-.85-1.73-1.25l4.18-21c8.68,4.55,14.06,11.84,23.07,19.33,14.5,12.07,27.35,19.48,30.91,24.82S365.69,424.9,354.81,427.87Z" style="fill:none;stroke:#263238;stroke-linecap:round;stroke-linejoin:round"></path><path d="M319,382.18a3.47,3.47,0,0,1-2,1.62,7,7,0,0,1-.69.23l-.19,0c-6.71,1.75-21.81-1.89-21.81-1.89s-9.89-4.7-10.49-5.81a27.22,27.22,0,0,1-1.11-2.7l-.27-.79s-3.56-2-4-3.56-1.19-2,1-2.28,14,0,14,0l-12.85-5.24s-8.51-4.29-9.3-5.8-1.78-2.51,2.57-1.91,13.85,3.36,13.85,3.36L295.2,359l-7.44-3.17s-14.64-1.77-11.87-6.32h8.31a85.79,85.79,0,0,1,14,1.78c2.42.74,18.42,10.68,18.42,10.68" style="fill:#fff"></path><g style="clip-path:url(#freepik--clip-path-5--inject-12)"><path d="M316.1,384.07c-6.71,1.75-21.81-1.89-21.81-1.89s-9.89-4.7-10.49-5.81a27.22,27.22,0,0,1-1.11-2.7L294.83,375a5.15,5.15,0,0,0,0,5C296.18,382.43,311.56,384.89,316.1,384.07Z" style="fill:#92E3A9;opacity:0.4"></path></g><path d="M319,382.18a3.47,3.47,0,0,1-2,1.62,7,7,0,0,1-.69.23l-.19,0c-6.71,1.75-21.81-1.89-21.81-1.89s-9.89-4.7-10.49-5.81a27.22,27.22,0,0,1-1.11-2.7l-.27-.79s-3.56-2-4-3.56-1.19-2,1-2.28,14,0,14,0l-12.85-5.24s-8.51-4.29-9.3-5.8-1.78-2.51,2.57-1.91,13.85,3.36,13.85,3.36L295.2,359l-7.44-3.17s-14.64-1.77-11.87-6.32h8.31a85.79,85.79,0,0,1,14,1.78c2.42.74,18.42,10.68,18.42,10.68" style="fill:none;stroke:#263238;stroke-linecap:round;stroke-linejoin:round"></path><line x1="282.42" y1="372.88" x2="297.03" y2="375.03" style="fill:none;stroke:#263238;stroke-linecap:round;stroke-linejoin:round"></line><path d="M136.78,417.62l36.62,11,67-15.29S199.48,401.71,199.1,402,136.78,417.62,136.78,417.62Z" style="fill:#92E3A9"></path><g style="clip-path:url(#freepik--clip-path-6--inject-12)"><path d="M136.78,417.62l36.62,11,67-15.29S199.48,401.71,199.1,402,136.78,417.62,136.78,417.62Z" style="fill-opacity:0.7000000000000001;opacity:0.30000000000000004"></path></g><path d="M136.78,417.62l36.62,11,67-15.29S199.48,401.71,199.1,402,136.78,417.62,136.78,417.62Z" style="fill:none;stroke:#263238;stroke-linecap:round;stroke-linejoin:round"></path><path d="M137.31,404.72c-2.57.18-3.21,9.44-.53,12.9l59.16-12.28,4.74-11.22Z" style="fill:#92E3A9"></path><g style="clip-path:url(#freepik--clip-path-7--inject-12)"><path d="M137.31,404.72c-2.57.18-3.21,9.44-.53,12.9l59.16-12.28,4.74-11.22Z" style="fill-opacity:0.7000000000000001;opacity:0.30000000000000004"></path></g><path d="M137.31,404.72c-2.57.18-3.21,9.44-.53,12.9l59.16-12.28,4.74-11.22Z" style="fill:none;stroke:#263238;stroke-linecap:round;stroke-linejoin:round"></path><path d="M237.53,404.59s-.88,4.87-.31,7.87l-63.89,14.46L139.65,417s-3.5-6.19-.45-11l61.54-10.45Z" style="fill:#fff;stroke:#263238;stroke-linecap:round;stroke-linejoin:round"></path><polygon points="137.31 404.72 200.68 394.12 240.03 404.09 173.85 417.28 137.31 404.72" style="fill:#92E3A9;stroke:#263238;stroke-linecap:round;stroke-linejoin:round"></polygon><polyline points="139.56 410.64 173.07 420.62 227.92 409.58" style="fill:none;stroke:#263238;stroke-linecap:round;stroke-linejoin:round"></polyline><line x1="237.04" y1="410.6" x2="178.06" y2="423.18" style="fill:none;stroke:#263238;stroke-linecap:round;stroke-linejoin:round"></line><path d="M140.35,414.57c.51.05,25.26,7.67,25.26,7.67" style="fill:none;stroke:#263238;stroke-linecap:round;stroke-linejoin:round"></path><line x1="232.22" y1="408.29" x2="236.91" y2="407.53" style="fill:none;stroke:#263238;stroke-linecap:round;stroke-linejoin:round"></line><line x1="171.98" y1="424.09" x2="169.49" y2="423.53" style="fill:none;stroke:#263238;stroke-linecap:round;stroke-linejoin:round"></line><path d="M139.2,406a8.82,8.82,0,0,1,.45,11A10.41,10.41,0,0,1,139.2,406Z" style="fill:#263238"></path><g style="clip-path:url(#freepik--clip-path-8--inject-12)"><path d="M139.2,406a8.82,8.82,0,0,1,.45,11A10.41,10.41,0,0,1,139.2,406Z" style="fill:#fff;fill-opacity:0.7000000000000001;opacity:0.30000000000000004"></path></g><path d="M139.2,406a8.82,8.82,0,0,1,.45,11A10.41,10.41,0,0,1,139.2,406Z" style="fill:none;stroke:#263238;stroke-linecap:round;stroke-linejoin:round"></path><polygon points="276.07 420.62 340.02 423.24 333.79 445.25 255.12 442.25 276.07 420.62" style="fill:#fff"></polygon><g style="clip-path:url(#freepik--clip-path-9--inject-12)"><polygon points="276.07 420.62 340.02 423.24 333.79 445.25 255.12 442.25 276.07 420.62" style="fill:#92E3A9;opacity:0.4"></polygon></g><polygon points="276.07 420.62 340.02 423.24 333.79 445.25 255.12 442.25 276.07 420.62" style="fill:none;stroke:#263238;stroke-linecap:round;stroke-linejoin:round"></polygon></g></svg>