<svg xmlns="http://www.w3.org/2000/svg" viewBox="0 0 750 500"><g id="freepik--background-complete--inject-141"><path d="M140.53,66.84A36.84,36.84,0,1,1,98.79,35.77,36.81,36.81,0,0,1,140.53,66.84Z" style="fill:#f5f5f5"></path><path d="M131.85,68.11a28.07,28.07,0,1,1-31.8-23.68A28,28,0,0,1,131.85,68.11Z" style="fill:#ebebeb"></path><path d="M131.72,67.24c-.17,0-.46-1.18-1.22-3.24a29.76,29.76,0,0,0-4.44-8,29.1,29.1,0,0,0-4.41-4.51,28.2,28.2,0,0,0-6.14-3.79,27.7,27.7,0,0,0-7.63-2.2,26.42,26.42,0,0,0-4.2-.24,26.78,26.78,0,0,0-8.5,1.51,26.13,26.13,0,0,0-3.86,1.67,27,27,0,0,0-3.44,2.16,26.19,26.19,0,0,0-3,2.53,28.47,28.47,0,0,0-4.45,5.67,28.73,28.73,0,0,0-4,14.84c0,2.2.13,3.43,0,3.46s-.54-1.16-.8-3.41a26,26,0,0,1,.77-9.56,28.82,28.82,0,0,1,2.5-6.21,28.24,28.24,0,0,1,4.6-6.18,26.4,26.4,0,0,1,3.14-2.78,27.57,27.57,0,0,1,3.68-2.37,28.24,28.24,0,0,1,4.15-1.84A31.55,31.55,0,0,1,99,43.51a30.6,30.6,0,0,1,4.65-.44,28.79,28.79,0,0,1,8.8,1.26,26.79,26.79,0,0,1,3.9,1.53,28,28,0,0,1,10.93,9.19,25.88,25.88,0,0,1,4,8.71C131.83,66,131.84,67.21,131.72,67.24Z" style="fill:#e0e0e0"></path><path d="M109.62,88.25l.78,4.83-4.31.69-.75-4.7c-4.31.43-8.62-.25-11.29-1.73l1.53-5.64a17.7,17.7,0,0,0,8.85,1.73l-1.15-7.2c-5-.4-10.57-1.14-11.56-7.3-.73-4.57,2-9,8.65-10.89l-.77-4.79,4.31-.69.75,4.7a19.7,19.7,0,0,1,9.17,1.23l-1.3,5.65a17.79,17.79,0,0,0-7-1.19l1.18,7.33c5,.35,10.48,1.11,11.45,7.18C118.92,82,116.26,86.35,109.62,88.25Zm-7.36-18.36-1-6.12c-2.2.88-2.9,2.28-2.68,3.7S100.27,69.59,102.26,69.89Zm9.08,9.2c-.24-1.51-1.62-2.12-3.58-2.48l.95,6C110.79,81.74,111.56,80.47,111.34,79.09Z" style="fill:#e0e0e0"></path><path d="M729.51,380a27.88,27.88,0,1,1-31.6-23.51A27.85,27.85,0,0,1,729.51,380Z" style="fill:#f5f5f5"></path><path d="M722.94,381a21.25,21.25,0,1,1-24.07-17.92A21.2,21.2,0,0,1,722.94,381Z" style="fill:#ebebeb"></path><path d="M722.84,380.34a12.46,12.46,0,0,1-.92-2.45,22.58,22.58,0,0,0-3.36-6.09,22.28,22.28,0,0,0-3.34-3.42,21.76,21.76,0,0,0-4.65-2.87,19.76,19.76,0,0,0-2.77-1,19.47,19.47,0,0,0-3-.64,20.9,20.9,0,0,0-3.18-.18,22.88,22.88,0,0,0-3.27.31,22,22,0,0,0-3.17.83,19.52,19.52,0,0,0-2.92,1.27,20,20,0,0,0-2.6,1.63,19.11,19.11,0,0,0-2.25,1.92,21.08,21.08,0,0,0-5.33,8.65,22.58,22.58,0,0,0-1.06,6.87,12.51,12.51,0,0,1,0,2.62,6.13,6.13,0,0,1-.61-2.58A19.68,19.68,0,0,1,681,378a22.42,22.42,0,0,1,1.89-4.7,21.84,21.84,0,0,1,3.48-4.68,21,21,0,0,1,2.38-2.1,21.64,21.64,0,0,1,5.93-3.19,23.84,23.84,0,0,1,3.42-.9,23.52,23.52,0,0,1,3.52-.33,22.73,22.73,0,0,1,3.43.22,22,22,0,0,1,3.23.73,19.79,19.79,0,0,1,3,1.16,21.47,21.47,0,0,1,4.88,3.2,20.84,20.84,0,0,1,3.39,3.76,19.42,19.42,0,0,1,3,6.59A6.14,6.14,0,0,1,722.84,380.34Z" style="fill:#e0e0e0"></path><path d="M706.12,396.25l.58,3.66-3.26.52-.57-3.56a15.63,15.63,0,0,1-8.54-1.31l1.15-4.27a13.42,13.42,0,0,0,6.7,1.31l-.87-5.45c-3.76-.3-8-.86-8.75-5.53-.55-3.46,1.49-6.83,6.55-8.24l-.58-3.63,3.26-.52.57,3.56a14.82,14.82,0,0,1,6.94.93l-1,4.27a13.58,13.58,0,0,0-5.26-.89l.89,5.54c3.75.27,7.93.84,8.67,5.44C713.15,391.48,711.14,394.81,706.12,396.25Zm-5.58-13.9-.74-4.63c-1.67.67-2.2,1.72-2,2.8S699,382.12,700.54,382.35Zm6.88,7c-.19-1.15-1.23-1.61-2.71-1.88l.72,4.5C707,391.32,707.58,390.36,707.42,389.32Z" style="fill:#e0e0e0"></path><path d="M105.49,368.57a36.87,36.87,0,1,1-41.78-31.1A36.83,36.83,0,0,1,105.49,368.57Z" style="fill:#f5f5f5"></path><path d="M96.8,369.83A28.09,28.09,0,1,1,65,346.13,28,28,0,0,1,96.8,369.83Z" style="fill:#ebebeb"></path><path d="M96.67,369c-.17,0-.46-1.17-1.22-3.24A29.61,29.61,0,0,0,91,357.67a28.8,28.8,0,0,0-4.42-4.52,27.82,27.82,0,0,0-6.14-3.79A25.3,25.3,0,0,0,76.79,348a25.65,25.65,0,0,0-4-.84,26.61,26.61,0,0,0-4.21-.25,27.68,27.68,0,0,0-8.51,1.51,27.27,27.27,0,0,0-3.86,1.68,26,26,0,0,0-3.44,2.16,25.34,25.34,0,0,0-3,2.53,28,28,0,0,0-4.46,5.68,28.91,28.91,0,0,0-2.59,5.76,29.73,29.73,0,0,0-1.4,9.09c0,2.2.14,3.43,0,3.46s-.54-1.16-.81-3.42a26.25,26.25,0,0,1,.78-9.56,28.18,28.18,0,0,1,7.1-12.4,27.2,27.2,0,0,1,3.14-2.78,28.28,28.28,0,0,1,3.68-2.38,28.84,28.84,0,0,1,4.16-1.84,28.68,28.68,0,0,1,9.18-1.63,29.39,29.39,0,0,1,4.53.3,29.11,29.11,0,0,1,8.18,2.49,29,29,0,0,1,6.46,4.23,28.67,28.67,0,0,1,4.48,5,25.92,25.92,0,0,1,4,8.72C96.78,367.68,96.8,368.94,96.67,369Z" style="fill:#e0e0e0"></path><path d="M74.56,390l.77,4.84-4.31.69-.75-4.71c-4.32.43-8.63-.25-11.3-1.73l1.53-5.64a17.63,17.63,0,0,0,8.86,1.72L68.21,378c-5-.4-10.58-1.14-11.57-7.31-.73-4.57,2-9,8.65-10.9L64.53,355l4.31-.69.75,4.7a19.87,19.87,0,0,1,9.18,1.23l-1.31,5.66a17.79,17.79,0,0,0-7-1.19L71.68,372c5,.36,10.49,1.11,11.46,7.19C83.86,383.68,81.2,388.09,74.56,390Zm-7.37-18.38-1-6.12c-2.2.88-2.91,2.28-2.68,3.7S65.2,371.32,67.19,371.61Zm9.09,9.21c-.24-1.51-1.63-2.12-3.59-2.48l1,6C75.73,383.48,76.5,382.21,76.28,380.82Z" style="fill:#e0e0e0"></path><path d="M392,48a23.49,23.49,0,0,1,5.72-2.48l1.18-5.66,9.56-.17,1.38,5.62a23.18,23.18,0,0,1,5.8,2.28l4.84-3.17,6.88,6.64-3,4.94a23.92,23.92,0,0,1,2.49,5.72l5.66,1.18.16,9.57-5.61,1.37a23.81,23.81,0,0,1-2.28,5.8L428,84.51l-6.64,6.88-4.94-3a23.75,23.75,0,0,1-5.72,2.49l-1.18,5.66-9.56.16-1.38-5.61a23.33,23.33,0,0,1-5.8-2.28L387.9,92,381,85.33l3-4.94a23.33,23.33,0,0,1-2.48-5.72l-5.66-1.18-.17-9.56,5.62-1.38a23.33,23.33,0,0,1,2.28-5.8l-3.17-4.83L387.07,45,392,48Zm5.1,12.74a10.27,10.27,0,1,0,14.51-.25A10.26,10.26,0,0,0,397.11,60.77Z" style="fill:#f5f5f5"></path><path d="M442.28,25.42a15,15,0,0,1,3.61-1.57l.74-3.57,6-.11.87,3.55a14.82,14.82,0,0,1,3.66,1.44l3.05-2,4.34,4.19-1.89,3.12a14.8,14.8,0,0,1,1.57,3.61l3.57.74.1,6-3.54.87A14.52,14.52,0,0,1,463,45.38l2,3-4.19,4.35-3.12-1.89A14.56,14.56,0,0,1,454,52.45L453.3,56l-6,.1-.87-3.54a14.82,14.82,0,0,1-3.66-1.44l-3.05,2L435.34,49l1.89-3.11a15,15,0,0,1-1.57-3.61l-3.57-.75-.1-6,3.54-.87A14.67,14.67,0,0,1,437,30.92l-2-3.05,4.19-4.34,3.12,1.89Zm3.22,8a6.47,6.47,0,1,0,9.15-.16A6.47,6.47,0,0,0,445.5,33.46Z" style="fill:#f5f5f5"></path><path d="M523.37,117.68a24.37,24.37,0,0,1,6-2.59l1.22-5.89,10-.18,1.44,5.85a24.19,24.19,0,0,1,6,2.38l5-3.3,7.17,6.92L557.07,126a24.09,24.09,0,0,1,2.59,6l5.9,1.23.17,10-5.84,1.44a24.74,24.74,0,0,1-2.38,6l3.3,5-6.92,7.16-5.15-3.12a24.37,24.37,0,0,1-6,2.59l-1.23,5.9-10,.17-1.43-5.85a24.38,24.38,0,0,1-6-2.37l-5,3.3-7.17-6.92,3.12-5.15a24.54,24.54,0,0,1-2.59-6l-5.89-1.23-.18-10,5.85-1.43a24.81,24.81,0,0,1,2.38-6l-3.3-5,6.92-7.17,5.15,3.12ZM528.68,131a10.69,10.69,0,1,0,15.11-.26A10.7,10.7,0,0,0,528.68,131Z" style="fill:#f5f5f5"></path><path d="M679,167.23a24.37,24.37,0,0,1,6-2.59l1.22-5.9,10-.17,1.43,5.85a23.82,23.82,0,0,1,6,2.38l5-3.3,7.17,6.92-3.12,5.14a24.54,24.54,0,0,1,2.59,6l5.89,1.23.18,10-5.85,1.44a24.74,24.74,0,0,1-2.38,6l3.3,5-6.92,7.17-5.15-3.12a24.37,24.37,0,0,1-6,2.59l-1.22,5.9-10,.17-1.43-5.85a24.19,24.19,0,0,1-6-2.38l-5,3.3-7.17-6.92,3.12-5.14a24.51,24.51,0,0,1-2.58-6l-5.9-1.23-.18-10,5.85-1.43a24.65,24.65,0,0,1,2.38-6.05l-3.3-5,6.92-7.17,5.15,3.12Zm5.31,13.27a10.69,10.69,0,1,0,15.11-.27A10.68,10.68,0,0,0,684.33,180.5Z" style="fill:#f5f5f5"></path><path d="M36.54,218.66a24.51,24.51,0,0,1,6-2.58l1.23-5.9,10-.18,1.43,5.85a24.81,24.81,0,0,1,6.05,2.38l5-3.3,7.17,6.92L70.25,227a24.37,24.37,0,0,1,2.59,6l5.89,1.22.18,10-5.85,1.43a24.58,24.58,0,0,1-2.38,6l3.3,5-6.92,7.17-5.15-3.12A24.44,24.44,0,0,1,56,263.29l-1.23,5.9-10,.18-1.44-5.85a24.58,24.58,0,0,1-6-2.38l-5,3.3-7.16-6.92,3.12-5.15a24,24,0,0,1-2.59-6l-5.9-1.22-.17-10,5.85-1.43a24.16,24.16,0,0,1,2.37-6l-3.3-5,6.92-7.17,5.15,3.12Zm5.31,13.28A10.69,10.69,0,1,0,57,231.67,10.68,10.68,0,0,0,41.85,231.94Z" style="fill:#f5f5f5"></path></g><g id="freepik--Floor--inject-141"><path d="M719.31,462.09c0,.14-154.17.26-344.29.26s-344.33-.12-344.33-.26,154.13-.26,344.33-.26S719.31,461.94,719.31,462.09Z" style="fill:#263238"></path></g><g id="freepik--Coins--inject-141"><rect x="84.02" y="376.27" width="72.99" height="14.72" transform="translate(241.02 767.27) rotate(180)" style="fill:#92E3A9"></rect><path d="M152.31,376.52c-.17,0-.32,3.19-.32,7.13s.15,7.14.32,7.14.32-3.19.32-7.14S152.49,376.52,152.31,376.52Z" style="fill:#263238"></path><path d="M145.54,376.52c-.17,0-.31,3.19-.31,7.13s.14,7.14.31,7.14.32-3.19.32-7.14S145.72,376.52,145.54,376.52Z" style="fill:#263238"></path><path d="M138.86,376.52c-.18,0-.32,3.19-.32,7.13s.14,7.14.32,7.14.31-3.19.31-7.14S139,376.52,138.86,376.52Z" style="fill:#263238"></path><path d="M132.2,376.52c-.17,0-.31,3.19-.31,7.13s.14,7.14.31,7.14.32-3.19.32-7.14S132.38,376.52,132.2,376.52Z" style="fill:#263238"></path><path d="M125.55,376.52c-.17,0-.32,3.19-.32,7.13s.15,7.14.32,7.14.32-3.19.32-7.14S125.73,376.52,125.55,376.52Z" style="fill:#263238"></path><path d="M118.9,376.52c-.18,0-.32,3.19-.32,7.13s.14,7.14.32,7.14.31-3.19.31-7.14S119.07,376.52,118.9,376.52Z" style="fill:#263238"></path><path d="M112.25,376.52c-.18,0-.32,3.19-.32,7.13s.14,7.14.32,7.14.31-3.19.31-7.14S112.42,376.52,112.25,376.52Z" style="fill:#263238"></path><path d="M105.59,376.52c-.17,0-.31,3.19-.31,7.13s.14,7.14.31,7.14.32-3.19.32-7.14S105.77,376.52,105.59,376.52Z" style="fill:#263238"></path><path d="M98.94,376.52c-.17,0-.32,3.19-.32,7.13s.15,7.14.32,7.14.32-3.19.32-7.14S99.12,376.52,98.94,376.52Z" style="fill:#263238"></path><path d="M92.29,376.52c-.18,0-.32,3.19-.32,7.13s.14,7.14.32,7.14.32-3.19.32-7.14S92.46,376.52,92.29,376.52Z" style="fill:#263238"></path><path d="M85.64,376.52c-.18,0-.32,3.19-.32,7.13s.14,7.14.32,7.14.31-3.19.31-7.14S85.81,376.52,85.64,376.52Z" style="fill:#263238"></path><g style="opacity:0.30000000000000004"><path d="M155.83,376.29a266.12,266.12,0,0,1-70.65,0Z"></path></g><path d="M84,376.32c0,.17,16.31.32,36.42.32s36.44-.15,36.44-.32-16.31-.32-36.44-.32S84,376.14,84,376.32Z" style="fill:#263238"></path><rect x="82.38" y="390.75" width="72.99" height="14.72" transform="translate(237.74 796.21) rotate(180)" style="fill:#92E3A9"></rect><path d="M150.67,391c-.17,0-.31,3.2-.31,7.14s.14,7.13.31,7.13.32-3.19.32-7.13S150.85,391,150.67,391Z" style="fill:#263238"></path><path d="M143.9,391c-.17,0-.31,3.2-.31,7.14s.14,7.13.31,7.13.32-3.19.32-7.13S144.08,391,143.9,391Z" style="fill:#263238"></path><path d="M137.22,391c-.18,0-.32,3.2-.32,7.14s.14,7.13.32,7.13.31-3.19.31-7.13S137.39,391,137.22,391Z" style="fill:#263238"></path><path d="M130.56,391c-.17,0-.31,3.2-.31,7.14s.14,7.13.31,7.13.32-3.19.32-7.13S130.74,391,130.56,391Z" style="fill:#263238"></path><path d="M123.91,391c-.17,0-.32,3.2-.32,7.14s.15,7.13.32,7.13.32-3.19.32-7.13S124.09,391,123.91,391Z" style="fill:#263238"></path><path d="M117.26,391c-.18,0-.32,3.2-.32,7.14s.14,7.13.32,7.13.32-3.19.32-7.13S117.43,391,117.26,391Z" style="fill:#263238"></path><path d="M110.61,391c-.18,0-.32,3.2-.32,7.14s.14,7.13.32,7.13.31-3.19.31-7.13S110.78,391,110.61,391Z" style="fill:#263238"></path><path d="M104,391c-.17,0-.31,3.2-.31,7.14s.14,7.13.31,7.13.32-3.19.32-7.13S104.13,391,104,391Z" style="fill:#263238"></path><path d="M97.3,391c-.17,0-.32,3.2-.32,7.14s.15,7.13.32,7.13.32-3.19.32-7.13S97.48,391,97.3,391Z" style="fill:#263238"></path><path d="M90.65,391c-.18,0-.32,3.2-.32,7.14s.14,7.13.32,7.13.32-3.19.32-7.13S90.82,391,90.65,391Z" style="fill:#263238"></path><path d="M84,391c-.18,0-.32,3.2-.32,7.14s.14,7.13.32,7.13.31-3.19.31-7.13S84.17,391,84,391Z" style="fill:#263238"></path><g style="opacity:0.30000000000000004"><path d="M154.19,390.76a266.12,266.12,0,0,1-70.65,0Z"></path></g><path d="M82.36,390.79c0,.18,16.31.32,36.43.32s36.43-.14,36.43-.32-16.31-.31-36.43-.31S82.36,390.62,82.36,390.79Z" style="fill:#263238"></path><rect x="89.31" y="404.99" width="72.99" height="14.72" transform="translate(251.6 824.7) rotate(180)" style="fill:#92E3A9"></rect><path d="M157.6,405.23c-.17,0-.31,3.2-.31,7.14s.14,7.14.31,7.14.32-3.2.32-7.14S157.78,405.23,157.6,405.23Z" style="fill:#263238"></path><path d="M150.83,405.23c-.17,0-.31,3.2-.31,7.14s.14,7.14.31,7.14.32-3.2.32-7.14S151,405.23,150.83,405.23Z" style="fill:#263238"></path><path d="M144.15,405.23c-.18,0-.32,3.2-.32,7.14s.14,7.14.32,7.14.31-3.2.31-7.14S144.32,405.23,144.15,405.23Z" style="fill:#263238"></path><path d="M137.49,405.23c-.17,0-.31,3.2-.31,7.14s.14,7.14.31,7.14.32-3.2.32-7.14S137.67,405.23,137.49,405.23Z" style="fill:#263238"></path><path d="M130.84,405.23c-.17,0-.32,3.2-.32,7.14s.15,7.14.32,7.14.32-3.2.32-7.14S131,405.23,130.84,405.23Z" style="fill:#263238"></path><path d="M124.19,405.23c-.18,0-.32,3.2-.32,7.14s.14,7.14.32,7.14.32-3.2.32-7.14S124.36,405.23,124.19,405.23Z" style="fill:#263238"></path><path d="M117.54,405.23c-.18,0-.32,3.2-.32,7.14s.14,7.14.32,7.14.31-3.2.31-7.14S117.71,405.23,117.54,405.23Z" style="fill:#263238"></path><path d="M110.88,405.23c-.17,0-.31,3.2-.31,7.14s.14,7.14.31,7.14.32-3.2.32-7.14S111.06,405.23,110.88,405.23Z" style="fill:#263238"></path><path d="M104.23,405.23c-.17,0-.32,3.2-.32,7.14s.15,7.14.32,7.14.32-3.2.32-7.14S104.41,405.23,104.23,405.23Z" style="fill:#263238"></path><path d="M97.58,405.23c-.18,0-.32,3.2-.32,7.14s.14,7.14.32,7.14.32-3.2.32-7.14S97.75,405.23,97.58,405.23Z" style="fill:#263238"></path><path d="M90.93,405.23c-.18,0-.32,3.2-.32,7.14s.14,7.14.32,7.14.31-3.2.31-7.14S91.1,405.23,90.93,405.23Z" style="fill:#263238"></path><g style="opacity:0.30000000000000004"><path d="M161.12,405a265.7,265.7,0,0,1-70.65,0Z"></path></g><path d="M89.29,405c0,.18,16.31.32,36.43.32s36.43-.14,36.43-.32-16.31-.31-36.43-.31S89.29,404.86,89.29,405Z" style="fill:#263238"></path><rect x="80.76" y="419.6" width="72.99" height="14.15" transform="translate(234.5 853.35) rotate(180)" style="fill:#92E3A9"></rect><path d="M149.05,419.83c-.17,0-.31,3.08-.31,6.87s.14,6.86.31,6.86.32-3.07.32-6.86S149.23,419.83,149.05,419.83Z" style="fill:#263238"></path><path d="M142.28,419.83c-.17,0-.31,3.08-.31,6.87s.14,6.86.31,6.86.32-3.07.32-6.86S142.46,419.83,142.28,419.83Z" style="fill:#263238"></path><path d="M135.6,419.83c-.18,0-.32,3.08-.32,6.87s.14,6.86.32,6.86.31-3.07.31-6.86S135.77,419.83,135.6,419.83Z" style="fill:#263238"></path><path d="M128.94,419.83c-.17,0-.31,3.08-.31,6.87s.14,6.86.31,6.86.32-3.07.32-6.86S129.12,419.83,128.94,419.83Z" style="fill:#263238"></path><path d="M122.29,419.83c-.17,0-.32,3.08-.32,6.87s.15,6.86.32,6.86.32-3.07.32-6.86S122.47,419.83,122.29,419.83Z" style="fill:#263238"></path><path d="M115.64,419.83c-.18,0-.32,3.08-.32,6.87s.14,6.86.32,6.86.32-3.07.32-6.86S115.81,419.83,115.64,419.83Z" style="fill:#263238"></path><path d="M109,419.83c-.18,0-.32,3.08-.32,6.87s.14,6.86.32,6.86.31-3.07.31-6.86S109.16,419.83,109,419.83Z" style="fill:#263238"></path><path d="M102.33,419.83c-.17,0-.31,3.08-.31,6.87s.14,6.86.31,6.86.32-3.07.32-6.86S102.51,419.83,102.33,419.83Z" style="fill:#263238"></path><path d="M95.68,419.83c-.17,0-.32,3.08-.32,6.87s.15,6.86.32,6.86.32-3.07.32-6.86S95.86,419.83,95.68,419.83Z" style="fill:#263238"></path><path d="M89,419.83c-.18,0-.32,3.08-.32,6.87s.14,6.86.32,6.86.32-3.07.32-6.86S89.2,419.83,89,419.83Z" style="fill:#263238"></path><path d="M82.38,419.83c-.18,0-.32,3.08-.32,6.87s.14,6.86.32,6.86.31-3.07.31-6.86S82.55,419.83,82.38,419.83Z" style="fill:#263238"></path><g style="opacity:0.30000000000000004"><path d="M152.57,419.61a208.7,208.7,0,0,1-70.65,0Z"></path></g><path d="M80.74,419.64c0,.18,16.31.32,36.43.32s36.43-.14,36.43-.32-16.31-.31-36.43-.31S80.74,419.47,80.74,419.64Z" style="fill:#263238"></path><rect x="85.45" y="433.76" width="72.99" height="14.16" transform="translate(243.89 881.68) rotate(180)" style="fill:#92E3A9"></rect><path d="M153.74,434c-.17,0-.31,3.07-.31,6.86s.14,6.86.31,6.86.32-3.07.32-6.86S153.92,434,153.74,434Z" style="fill:#263238"></path><path d="M147,434c-.18,0-.32,3.07-.32,6.86s.14,6.86.32,6.86.31-3.07.31-6.86S147.15,434,147,434Z" style="fill:#263238"></path><path d="M140.29,434c-.18,0-.32,3.07-.32,6.86s.14,6.86.32,6.86.32-3.07.32-6.86S140.46,434,140.29,434Z" style="fill:#263238"></path><path d="M133.64,434c-.18,0-.32,3.07-.32,6.86s.14,6.86.32,6.86.31-3.07.31-6.86S133.81,434,133.64,434Z" style="fill:#263238"></path><path d="M127,434c-.17,0-.31,3.07-.31,6.86s.14,6.86.31,6.86.32-3.07.32-6.86S127.16,434,127,434Z" style="fill:#263238"></path><path d="M120.33,434c-.17,0-.32,3.07-.32,6.86s.15,6.86.32,6.86.32-3.07.32-6.86S120.51,434,120.33,434Z" style="fill:#263238"></path><path d="M113.68,434c-.18,0-.32,3.07-.32,6.86s.14,6.86.32,6.86.32-3.07.32-6.86S113.85,434,113.68,434Z" style="fill:#263238"></path><path d="M107,434c-.18,0-.32,3.07-.32,6.86s.14,6.86.32,6.86.31-3.07.31-6.86S107.2,434,107,434Z" style="fill:#263238"></path><path d="M100.37,434c-.17,0-.31,3.07-.31,6.86s.14,6.86.31,6.86.32-3.07.32-6.86S100.55,434,100.37,434Z" style="fill:#263238"></path><path d="M93.72,434c-.17,0-.32,3.07-.32,6.86s.15,6.86.32,6.86.32-3.07.32-6.86S93.9,434,93.72,434Z" style="fill:#263238"></path><path d="M87.07,434c-.18,0-.32,3.07-.32,6.86s.14,6.86.32,6.86.32-3.07.32-6.86S87.24,434,87.07,434Z" style="fill:#263238"></path><g style="opacity:0.30000000000000004"><path d="M157.26,433.78a184.89,184.89,0,0,1-70.64,0Z"></path></g><path d="M85.43,433.81c0,.17,16.31.31,36.43.31s36.43-.14,36.43-.31-16.31-.32-36.43-.32S85.43,433.63,85.43,433.81Z" style="fill:#263238"></path><rect x="81.28" y="447.72" width="72.99" height="14.16" transform="translate(235.55 909.6) rotate(180)" style="fill:#92E3A9"></rect><path d="M149.57,448c-.17,0-.31,3.07-.31,6.86s.14,6.86.31,6.86.32-3.07.32-6.86S149.75,448,149.57,448Z" style="fill:#263238"></path><path d="M142.81,448c-.18,0-.32,3.07-.32,6.86s.14,6.86.32,6.86.31-3.07.31-6.86S143,448,142.81,448Z" style="fill:#263238"></path><path d="M136.12,448c-.18,0-.32,3.07-.32,6.86s.14,6.86.32,6.86.32-3.07.32-6.86S136.29,448,136.12,448Z" style="fill:#263238"></path><path d="M129.47,448c-.18,0-.32,3.07-.32,6.86s.14,6.86.32,6.86.31-3.07.31-6.86S129.64,448,129.47,448Z" style="fill:#263238"></path><path d="M122.81,448c-.17,0-.31,3.07-.31,6.86s.14,6.86.31,6.86.32-3.07.32-6.86S123,448,122.81,448Z" style="fill:#263238"></path><path d="M116.16,448c-.17,0-.32,3.07-.32,6.86s.15,6.86.32,6.86.32-3.07.32-6.86S116.34,448,116.16,448Z" style="fill:#263238"></path><path d="M109.51,448c-.18,0-.32,3.07-.32,6.86s.14,6.86.32,6.86.32-3.07.32-6.86S109.68,448,109.51,448Z" style="fill:#263238"></path><path d="M102.86,448c-.18,0-.32,3.07-.32,6.86s.14,6.86.32,6.86.31-3.07.31-6.86S103,448,102.86,448Z" style="fill:#263238"></path><path d="M96.2,448c-.17,0-.31,3.07-.31,6.86s.14,6.86.31,6.86.32-3.07.32-6.86S96.38,448,96.2,448Z" style="fill:#263238"></path><path d="M89.55,448c-.17,0-.32,3.07-.32,6.86s.15,6.86.32,6.86.32-3.07.32-6.86S89.73,448,89.55,448Z" style="fill:#263238"></path><path d="M82.9,448c-.18,0-.32,3.07-.32,6.86s.14,6.86.32,6.86.32-3.07.32-6.86S83.07,448,82.9,448Z" style="fill:#263238"></path><g style="opacity:0.30000000000000004"><path d="M153.09,447.74a208.9,208.9,0,0,1-70.64,0Z"></path></g><path d="M81.26,447.77c0,.17,16.31.31,36.43.31s36.43-.14,36.43-.31-16.31-.32-36.43-.32S81.26,447.59,81.26,447.77Z" style="fill:#263238"></path><path d="M154.27,461.88a.64.64,0,0,1,0-.24c0-.19,0-.42,0-.72,0-.66,0-1.58,0-2.75,0-2.43,0-5.91-.07-10.25v-.16h.16l4,0-.18.18c0-4.14,0-8.93,0-14.17l.22.22h-4.92v-.23c0-4.37,0-9.12,0-14v-.24h8.79l-.24.24c0-5.24,0-10.27,0-15l.23.22H155v-.21c0-5.12,0-9.75.05-13.73v-.17H157l-.16.16c0-4.56,0-8.22,0-10.77,0-1.24,0-2.21,0-2.9,0-.31,0-.55,0-.75a.72.72,0,0,1,0-.25s0,.09,0,.25,0,.44,0,.75c0,.69,0,1.66.07,2.9.05,2.55.11,6.21.19,10.77v.16h-1.95l.17-.17c0,4,0,8.61,0,13.73l-.21-.21,6.93,0h.22v.23c0,4.72,0,9.75,0,15V420H153.6l.23-.23c0,4.92,0,9.67,0,14l-.22-.22h4.91v.21c0,5.24,0,10,0,14.17v.17h-.17l-4,0,.16-.15c0,4.34-.06,7.82-.08,10.25,0,1.17,0,2.09,0,2.75,0,.3,0,.53,0,.72A1.1,1.1,0,0,1,154.27,461.88Z" style="fill:#263238"></path></g><g id="freepik--Device--inject-141"><path d="M575.8,458.08H174.46a24,24,0,0,1-24-24V158.61A17.52,17.52,0,0,1,168,141.09h415.3a16.56,16.56,0,0,1,16.56,16.56V434.06A24,24,0,0,1,575.8,458.08Z" style="fill:#e0e0e0"></path><path d="M575.8,458.08l1-.07L578,458c.49,0,1-.15,1.67-.23l1-.16,1.1-.29,1.2-.31,1.28-.47a24.43,24.43,0,0,0,2.79-1.25c.49-.25,1-.57,1.47-.87l.75-.46.74-.55a23.72,23.72,0,0,0,9.41-15.28c.07-.45.13-.9.2-1.36s.06-.93.09-1.4c.07-.94.08-1.9.07-2.88q0-3,0-6.1,0-6.3,0-13.4c0-37.9-.05-92.72-.08-160.46q0-25.41,0-53.17V160.14c0-1.22,0-2.45-.06-3.65a16.33,16.33,0,0,0-7-12.28,16,16,0,0,0-6.82-2.7c-.31,0-.61-.11-.92-.13l-.93,0c-.62,0-1.25,0-1.88,0H466.11l-291.41,0h-4.84c-.81,0-1.62,0-2.41,0l-1.19.06c-.4,0-.79.11-1.18.17a6.56,6.56,0,0,0-1.17.24c-.38.1-.77.19-1.15.3a19,19,0,0,0-2.2.88,16.63,16.63,0,0,0-4,2.6,17.65,17.65,0,0,0-3.11,3.57,18.56,18.56,0,0,0-2,4.27,17.87,17.87,0,0,0-.76,4.65c-.05,1.58,0,3.19,0,4.78q0,19.16,0,38v74.35c0,48.75,0,95.77,0,140.56q0,8.4,0,16.69c0,1.39.05,2.75.15,4.11l.31,2c.13.66.32,1.32.49,2a24,24,0,0,0,3.53,7.27,23.56,23.56,0,0,0,12.94,9c.65.15,1.28.37,1.94.47l2,.3c1.33.07,2.65.15,4,.13H245.7l110.81,0L517,458l43.63,0,11.34,0,3.87,0-3.87,0-11.34,0-43.63,0-160.45.08-110.81,0H176c-1.33,0-2.68-.06-4-.13l-2-.31c-.67-.1-1.32-.32-2-.47a24.09,24.09,0,0,1-13.18-9.21,24.58,24.58,0,0,1-3.61-7.42c-.16-.67-.36-1.34-.5-2l-.31-2.06c-.1-1.38-.17-2.78-.15-4.16V415.83c0-44.79,0-91.81,0-140.56V162.89c0-1.6,0-3.18,0-4.79a18.1,18.1,0,0,1,.78-4.79,18.79,18.79,0,0,1,2.08-4.39,17.76,17.76,0,0,1,3.19-3.67,17.14,17.14,0,0,1,4.07-2.67,20.33,20.33,0,0,1,2.27-.92l1.19-.31a8,8,0,0,1,1.2-.24c.4-.06.8-.13,1.21-.18l1.22-.06c.82-.05,1.62,0,2.43,0h4.84l291.41,0H582c.63,0,1.25,0,1.89,0l1,0c.31,0,.62.09.94.14a16.46,16.46,0,0,1,7,2.77A16.75,16.75,0,0,1,600,156.46c.09,1.25,0,2.46.06,3.68v39.17q0,27.74,0,53.17c0,67.74-.06,122.56-.08,160.46q0,7.1,0,13.4v6.1c0,1,0,1.94-.07,2.89,0,.47,0,.95-.1,1.41l-.21,1.36a23.72,23.72,0,0,1-3.7,9.34,24.29,24.29,0,0,1-5.79,6l-.74.55-.76.46c-.51.3-1,.62-1.48.87a26.26,26.26,0,0,1-2.8,1.24L583,457l-1.21.31-1.1.28-1,.16c-.64.08-1.19.2-1.67.22l-1.21.05Z" style="fill:#263238"></path><path d="M599.35,462.9H154.87a23.21,23.21,0,0,1-23.22-23.22v-3.62a.89.89,0,0,1,.89-.89H617.62a.89.89,0,0,1,.89.89v7.68A19.16,19.16,0,0,1,599.35,462.9Z" style="fill:#e0e0e0"></path><path d="M599.35,462.9l.65,0a15.27,15.27,0,0,0,1.94-.18,19.12,19.12,0,0,0,11.49-6.07,19,19,0,0,0,3.6-5.7,19.83,19.83,0,0,0,1.4-7.73c0-1.41,0-2.88,0-4.38v-2.3c0-.39,0-.78-.26-1s-.66-.21-1.06-.22l-108.25.08-357.14.07H132.58a.65.65,0,0,0-.29.06.62.62,0,0,0-.37.42,4.29,4.29,0,0,0,0,.75v1.62c0,1.08,0,2.14.09,3.21a22.36,22.36,0,0,0,1.37,6.2,23.48,23.48,0,0,0,1.29,2.9,24.71,24.71,0,0,0,1.71,2.67,23,23,0,0,0,9.83,7.7,24.21,24.21,0,0,0,6.07,1.56c2.08.2,4.19.16,6.3.16h132.3l160.56.06,108.25.08,29.42,0,7.66,0,2.61,0-2.61,0-7.66,0-29.42.05-108.25.08-160.56.05-94.83,0H158.55c-2.1,0-4.22,0-6.35-.16A24.77,24.77,0,0,1,146,461.4a23.74,23.74,0,0,1-10-7.86,25.84,25.84,0,0,1-1.75-2.73,24.56,24.56,0,0,1-1.31-3,22.49,22.49,0,0,1-1.4-6.34c-.07-1.08-.11-2.17-.09-3.24v-1.62a3.81,3.81,0,0,1,0-.87,1.13,1.13,0,0,1,.65-.76,1.21,1.21,0,0,1,.49-.09h19.13l357.14.07,108.25.08h.6a1,1,0,0,1,.59.26,1,1,0,0,1,.3.56c0,.23,0,.4,0,.6,0,.78,0,1.54,0,2.3v4.38a20,20,0,0,1-1.43,7.79,19.23,19.23,0,0,1-3.65,5.73,18.28,18.28,0,0,1-4.38,3.55,18.06,18.06,0,0,1-7.19,2.48,14.1,14.1,0,0,1-2,.15Z" style="fill:#263238"></path><rect x="168.86" y="160.44" width="411.28" height="259.66" rx="5" style="fill:#455a64"></rect><path d="M575.14,420.1s.29,0,.86-.09a5,5,0,0,0,2.3-1.07,5,5,0,0,0,1.79-3.67v-5.86c0-8.89,0-22-.05-38.85,0-33.74,0-82.55-.08-142.87q0-22.62,0-47.34,0-6.16,0-12.47v-1.57a11.26,11.26,0,0,0-.05-1.55,4.81,4.81,0,0,0-4-4.06,9.93,9.93,0,0,0-1.56-.06H546.58l-113.23,0-259.46,0a4.79,4.79,0,0,0-3.62,1.64,4.69,4.69,0,0,0-1,1.78,6.69,6.69,0,0,0-.19,2.07v59.55q0,33.61,0,66.2v63.9q0,15.65,0,31v26.53a9,9,0,0,0,.37,3.61,4.77,4.77,0,0,0,2.42,2.5,4.83,4.83,0,0,0,1.71.42c.6,0,1.24,0,1.85,0H281.23l98.66,0,142.86.08,38.84.05,10.1,0c2.28,0,3.45,0,3.45,0l-3.45,0-10.1,0-38.84.05-142.86.08-98.66,0H175.44c-.62,0-1.23,0-1.87,0a5.09,5.09,0,0,1-1.88-.46,5.29,5.29,0,0,1-2.66-2.73,5.21,5.21,0,0,1-.39-1.91V386.8q0-15.32,0-31v-63.9q0-32.55,0-66.2V166.18a7.28,7.28,0,0,1,.21-2.21,5.1,5.1,0,0,1,1.08-2,5.23,5.23,0,0,1,4-1.82l259.46,0,113.23,0h27.74a11.29,11.29,0,0,1,1.63.07,5.21,5.21,0,0,1,2.89,1.49,5.13,5.13,0,0,1,1.43,2.9,11,11,0,0,1,.06,1.61v14q0,24.71,0,47.34c0,60.32-.06,109.13-.08,142.87,0,16.87,0,30,0,38.85,0,2.22,0,4.18,0,5.86a5,5,0,0,1-1.84,3.71,5,5,0,0,1-2.33,1,3.89,3.89,0,0,1-.65.07Z" style="fill:#263238"></path><polygon points="330.83 434.63 336.87 444.88 421.88 444.88 427.49 434.63 330.83 434.63" style="fill:#263238"></polygon><path d="M378.45,151.65a3.37,3.37,0,1,1-3.37-3.37A3.37,3.37,0,0,1,378.45,151.65Z" style="fill:#263238"></path><path d="M557,183.56H541.21a1.12,1.12,0,0,1-1.13-1.13V174.6a1.12,1.12,0,0,1,1.12-1.12H557a.25.25,0,0,1,.2.09.27.27,0,0,1,.09.2v2.58h1.68a.29.29,0,0,1,.29.29v3.78a.29.29,0,0,1-.29.28h-1.68v2.59A.29.29,0,0,1,557,183.56Zm-.29-9.51H541.2a.54.54,0,0,0-.55.55v7.83a.56.56,0,0,0,.56.56h15.46v-2.58a.29.29,0,0,1,.29-.29h1.69v-3.2H557a.29.29,0,0,1-.29-.29Z" style="fill:#263238"></path><path d="M541.94,180.74V176.3a1,1,0,0,1,1-1h7.41a1,1,0,0,1,1,1v4.44a1,1,0,0,1-1,1H542.9A1,1,0,0,1,541.94,180.74Z" style="fill:#263238"></path></g><g id="freepik--Calculator--inject-141"><rect x="564.09" y="64.66" width="121.67" height="60.9" rx="6.62" style="fill:#fff"></rect><path d="M564.09,111.41H685.76a0,0,0,0,1,0,0v137a7.23,7.23,0,0,1-7.23,7.23H571.32a7.23,7.23,0,0,1-7.23-7.23v-137A0,0,0,0,1,564.09,111.41Z" style="fill:#f5f5f5"></path><rect x="564.09" y="111.14" width="91.57" height="30.13" style="fill:#e0e0e0"></rect><path d="M679.2,255.72c5.54,0,6.87-3.11,6.87-7.36l-.31-137H656V255.67Z" style="fill:#92E3A9"></path><path d="M685.76,141.54c0,.12-27.53.22-61.48.22s-61.49-.1-61.49-.22,27.53-.22,61.49-.22S685.76,141.42,685.76,141.54Z" style="fill:#263238"></path><path d="M685.76,170.85c0,.12-27.53.22-61.48.22s-61.49-.1-61.49-.22,27.53-.22,61.49-.22S685.76,170.73,685.76,170.85Z" style="fill:#263238"></path><path d="M685.76,201.89c0,.12-27.53.22-61.48.22s-61.49-.1-61.49-.22,27.53-.23,61.49-.23S685.76,201.76,685.76,201.89Z" style="fill:#263238"></path><path d="M685.76,231.2c0,.12-27.53.22-61.48.22s-61.49-.1-61.49-.22,27.53-.22,61.49-.22S685.76,231.08,685.76,231.2Z" style="fill:#263238"></path><path d="M590.54,231.2c-.13,0-.22-26.73-.22-59.69s.09-59.69.22-59.69.22,26.72.22,59.69S590.66,231.2,590.54,231.2Z" style="fill:#263238"></path><path d="M624.93,255.72c-.14,0-.26-32.21-.26-71.94s.12-72,.26-72,.25,32.21.25,72S625.06,255.72,624.93,255.72Z" style="fill:#263238"></path><path d="M656,255.67c-.14,0-.25-32.2-.25-71.92s.11-71.93.25-71.93.25,32.2.25,71.93S656.13,255.67,656,255.67Z" style="fill:#263238"></path><path d="M580.73,152.2v1l-4.07,9.08h-1.52l4-8.81h-4.6v1.8h-1.38V152.2Z" style="fill:#263238"></path><path d="M611.82,159.42c0,1.82-1.55,3-4,3s-4-1.14-4-3A2.49,2.49,0,0,1,605.6,157a2.28,2.28,0,0,1-1.41-2.17c0-1.68,1.45-2.73,3.62-2.73s3.65,1,3.65,2.73A2.28,2.28,0,0,1,610,157,2.5,2.5,0,0,1,611.82,159.42Zm-1.44,0c0-1.1-1-1.79-2.57-1.79s-2.54.69-2.54,1.79,1,1.84,2.54,1.84S610.38,160.51,610.38,159.37Zm-4.77-4.5c0,1,.82,1.61,2.2,1.61s2.24-.61,2.24-1.61-.89-1.62-2.24-1.62S605.61,153.87,605.61,154.87Z" style="fill:#263238"></path><path d="M643.57,156.28c0,3.43-1.94,5.27-4.75,5.27a4.75,4.75,0,0,1-2.5-.59l.54-1.12a3.5,3.5,0,0,0,1.94.48c2,0,3.34-1.28,3.34-3.8v-.36a3.37,3.37,0,0,1-2.91,1.33c-2,0-3.43-1.2-3.43-3.05a3.24,3.24,0,0,1,3.55-3.18C642.05,151.26,643.57,153.07,643.57,156.28Zm-1.76-1.91c0-1-.84-1.94-2.4-1.94a2,2,0,0,0-2.22,1.95c0,1.18.88,1.94,2.29,1.94A2.09,2.09,0,0,0,641.81,154.37Z" style="fill:#263238"></path><path d="M635.26,123.88a2.15,2.15,0,1,1,2.14,2.37A2.14,2.14,0,0,1,635.26,123.88Zm3,0c0-.93-.36-1.37-.9-1.37s-.9.46-.9,1.37.37,1.36.9,1.36S638.3,124.8,638.3,123.88Zm4.22-2.28H644l-5.87,8.6h-1.46Zm-1.41,6.33a2.14,2.14,0,1,1,2.13,2.37A2.13,2.13,0,0,1,641.11,127.93Zm3,0c0-.91-.35-1.36-.89-1.36s-.9.44-.9,1.36.37,1.36.9,1.36S644.13,128.84,644.13,127.93Z" style="fill:#263238"></path><path d="M573,126.7a4.37,4.37,0,0,1,4.58-4.42,4.27,4.27,0,0,1,3.29,1.35l-.8.78a3.21,3.21,0,0,0-2.44-1,3.33,3.33,0,1,0,2.44,5.61l.8.78a4.29,4.29,0,0,1-3.3,1.36A4.37,4.37,0,0,1,573,126.7Z" style="fill:#263238"></path><path d="M581.38,190.11h-1.91v2.47h-1.39v-2.47h-5.59v-1l5.14-6.58h1.55l-4.93,6.35h3.87v-2.18h1.35v2.18h1.91Z" style="fill:#263238"></path><path d="M611.58,189.56c0,1.74-1.24,3.14-3.81,3.14a5.71,5.71,0,0,1-3.69-1.23l.66-1.13a4.5,4.5,0,0,0,3,1.08c1.53,0,2.39-.71,2.39-1.8s-.72-1.84-3-1.84h-2.28l.53-5.26H611v1.25h-4.47l-.28,2.76h1.13C610.4,186.53,611.58,187.78,611.58,189.56Z" style="fill:#263238"></path><path d="M643.88,188.7c0,1.94-1.57,3.17-3.57,3.17-2.7,0-4.22-1.81-4.22-5,0-3.44,1.94-5.28,4.75-5.28a4.84,4.84,0,0,1,2.5.59l-.54,1.12a3.55,3.55,0,0,0-1.93-.47c-2,0-3.35,1.28-3.35,3.79a2.23,2.23,0,0,0,0,.36,3.35,3.35,0,0,1,2.89-1.32C642.42,185.65,643.88,186.84,643.88,188.7Zm-1.4.05c0-1.17-.89-1.94-2.3-1.94a2.09,2.09,0,0,0-2.31,2c0,1,.83,1.94,2.38,1.94A2,2,0,0,0,642.48,188.75Z" style="fill:#263238"></path><path d="M578.78,212.26v10.06h-1.42v-8.81h-2.27v-1.25Z" style="fill:#263238"></path><path d="M611.61,221.07v1.25h-7.23v-1l4.09-4c1.07-1,1.27-1.67,1.27-2.3,0-1-.74-1.67-2.14-1.67a3.2,3.2,0,0,0-2.58,1.09l-1-.84a4.61,4.61,0,0,1,3.68-1.53c2.09,0,3.44,1.08,3.44,2.81,0,1-.28,1.85-1.65,3.16l-3.07,3Z" style="fill:#263238"></path><path d="M643,218.53c0,1.7-1.25,3.08-3.81,3.08a5.7,5.7,0,0,1-3.69-1.22l.66-1.14a4.49,4.49,0,0,0,3,1.08c1.51,0,2.37-.69,2.37-1.78s-.76-1.76-2.48-1.76h-.81v-1l2.53-3.11h-4.84v-1.25h6.64v1l-2.63,3.25C642,215.85,643,217,643,218.53Z" style="fill:#263238"></path><path d="M592.41,244.5c0-3.28,1.75-5.15,4.11-5.15s4.09,1.87,4.09,5.15-1.75,5.14-4.09,5.14S592.41,247.77,592.41,244.5Zm6.77,0c0-2.58-1.1-3.87-2.66-3.87s-2.67,1.29-2.67,3.87,1.09,3.86,2.67,3.86S599.18,247.07,599.18,244.5Z" style="fill:#263238"></path><path d="M640.79,243a2.92,2.92,0,0,1-.25,1l-.67,2H639l.53-2.14a.91.91,0,0,1-.6-.89,1,1,0,0,1,1-1A.93.93,0,0,1,640.79,243Z" style="fill:#263238"></path><rect x="665.97" y="240.87" width="9.81" height="1.03" style="fill:#263238"></rect><rect x="665.97" y="243.98" width="9.81" height="1.03" style="fill:#263238"></rect><rect x="667.2" y="216.36" width="7.35" height="0.77" style="fill:#263238"></rect><path d="M674.93,217.51h-8.11V216h8.11Zm-7.35-.76h0Z" style="fill:#263238"></path><rect x="667.2" y="216.36" width="7.35" height="0.77" transform="translate(454.13 887.62) rotate(-90)" style="fill:#263238"></rect><path d="M671.64,220.8h-1.53v-8.11h1.53Zm-.77-.76h0v0Z" style="fill:#263238"></path><polygon points="674.28 154.35 673.2 153.27 670.88 155.6 668.55 153.27 667.47 154.35 669.79 156.68 667.47 159 668.55 160.08 670.88 157.76 673.2 160.08 674.28 159 671.96 156.68 674.28 154.35" style="fill:#263238"></polygon><rect x="667.2" y="187.27" width="7.35" height="0.77" style="fill:#263238"></rect><path d="M674.93,188.42h-8.11v-1.53h8.11Zm-7.35-.76,6.59,0Z" style="fill:#263238"></path><rect x="667.2" y="126.82" width="7.35" height="0.77" style="fill:#263238"></rect><path d="M674.93,128h-8.11v-1.53h8.11Zm-7.35-.76,6.59,0Z" style="fill:#263238"></path><path d="M672.11,123.17a1.24,1.24,0,1,1-1.23-1.23A1.23,1.23,0,0,1,672.11,123.17Z" style="fill:#263238"></path><path d="M672.11,131a1.24,1.24,0,0,1-2.47,0,1.24,1.24,0,1,1,2.47,0Z" style="fill:#263238"></path><polygon points="611.72 125.06 611.06 124.41 609.65 125.82 608.25 124.41 607.59 125.06 609 126.47 607.59 127.88 608.25 128.54 609.65 127.13 611.06 128.54 611.72 127.88 610.31 126.47 611.72 125.06" style="fill:#263238"></polygon><path d="M613.43,130.45h-7a1.28,1.28,0,0,1-.92-.4l-2.48-2.7a1.32,1.32,0,0,1,0-1.76l2.48-2.69a1.23,1.23,0,0,1,.92-.4h7a1.27,1.27,0,0,1,1.26,1.28v5.39A1.27,1.27,0,0,1,613.43,130.45Zm-7-7.1a.39.39,0,0,0-.29.13l-2.48,2.69a.47.47,0,0,0,0,.61l2.48,2.69a.39.39,0,0,0,.29.13h7a.42.42,0,0,0,.41-.43v-5.39a.42.42,0,0,0-.41-.43Z" style="fill:#263238"></path><path d="M624.8,80.53V98.41h-1.31V81.7h-4.36V80.53Z" style="fill:#263238"></path><path d="M641.61,80.53v.92l-7.69,17h-1.43L640.1,81.7h-10v3.42h-1.28V80.53Z" style="fill:#263238"></path><path d="M655.43,93.38c0,3-2.15,5.16-6.26,5.16a8.58,8.58,0,0,1-6.31-2.4l.66-1a7.63,7.63,0,0,0,5.65,2.2c3.22,0,4.93-1.54,4.93-4s-1.64-4-5.21-4h-1.13v-1l5.29-6.77h-9.53V80.53h11.22v.92l-5.37,6.87C653.43,88.42,655.43,90.46,655.43,93.38Z" style="fill:#263238"></path><path d="M671.62,93.5c0,3.12-2.58,5-6.8,5s-6.74-1.92-6.74-5c0-2.24,1.38-3.8,3.81-4.44a4.09,4.09,0,0,1-3.17-4c0-2.86,2.4-4.62,6.1-4.62S671,82.16,671,85a4.11,4.11,0,0,1-3.22,4C670.22,89.7,671.62,91.28,671.62,93.5Zm-1.3,0c0-2.37-2.05-3.88-5.5-3.88s-5.44,1.51-5.44,3.88,2,3.91,5.44,3.91S670.32,95.91,670.32,93.5Zm-5.5-5c3,0,4.86-1.36,4.86-3.48s-1.89-3.55-4.86-3.55-4.8,1.36-4.8,3.53S661.78,88.55,664.82,88.55Z" style="fill:#263238"></path><circle cx="573" cy="73.35" r="3" style="fill:#e0e0e0"></circle><circle cx="583.1" cy="73.35" r="3" style="fill:#e0e0e0"></circle><path d="M596.2,73.35a3,3,0,1,1-3-3A3,3,0,0,1,596.2,73.35Z" style="fill:#e0e0e0"></path><path d="M679.28,255.72l.4,0a6.44,6.44,0,0,0,1.17-.18,6.73,6.73,0,0,0,3.78-2.5,6.63,6.63,0,0,0,1.3-3.1,14,14,0,0,0,.07-2c0-.69,0-1.41,0-2.16,0-3,0-6.44,0-10.33,0-15.55-.05-38-.09-65.84s0-60.89,0-97.64a6.65,6.65,0,0,0-2.72-5.82A6.5,6.5,0,0,0,680,65c-1.11-.09-2.33,0-3.49,0H570.89a6.58,6.58,0,0,0-6,4,7.71,7.71,0,0,0-.48,1.83c0,.62,0,1.29,0,1.94V92.19q0,15.5,0,30.51c0,20,0,39.29,0,57.67s0,35.84,0,52.19q0,6.13,0,12v3a12.72,12.72,0,0,0,.16,2.85,6.68,6.68,0,0,0,3.26,4.32,6.57,6.57,0,0,0,2.62.78c.9.05,1.86,0,2.78,0h16.19l65.83.08,17.9,0,4.66,0,1.58,0-1.58,0-4.66,0-17.9.05-65.83.08H573.12c-.93,0-1.84,0-2.81,0a6.83,6.83,0,0,1-2.78-.82,7.1,7.1,0,0,1-3.47-4.57,13.41,13.41,0,0,1-.18-2.95v-3q0-5.91,0-12c0-16.35,0-33.81,0-52.19s0-37.67,0-57.67v-50a19.35,19.35,0,0,1,0-2,7,7,0,0,1,7-6.25H676.51c1.19,0,2.32,0,3.54,0a7,7,0,0,1,3.34,1.29A7.14,7.14,0,0,1,686.31,72c0,36.75,0,69.84-.06,97.64s-.06,50.29-.08,65.84c0,3.89,0,7.34,0,10.33,0,.75,0,1.47,0,2.16a11.76,11.76,0,0,1-.09,2,6.78,6.78,0,0,1-5.19,5.63,6,6,0,0,1-1.18.16Z" style="fill:#263238"></path></g><g id="freepik--Screen--inject-141"><path d="M64.82,132.9H329.37a9.85,9.85,0,0,1,9.85,9.85V309.2a11.75,11.75,0,0,1-11.75,11.75H67.09a9.86,9.86,0,0,1-9.86-9.86V140.48a7.59,7.59,0,0,1,7.59-7.59Z" style="fill:#fff"></path><rect x="109.56" y="200.18" width="46.39" height="18.61" style="fill:#92E3A9"></rect><rect x="248.74" y="200.18" width="46.39" height="18.61" style="fill:#92E3A9"></rect><rect x="248.74" y="237.14" width="46.39" height="18.61" style="fill:#92E3A9"></rect><rect x="248.74" y="255.63" width="46.39" height="18.61" style="fill:#92E3A9"></rect><rect x="155.96" y="237.48" width="46.39" height="18.61" style="fill:#92E3A9"></rect><rect x="202.27" y="256.31" width="46.39" height="18.61" style="fill:#92E3A9"></rect><rect x="155.96" y="293.23" width="46.39" height="19.36" style="fill:#ebebeb"></rect><rect x="248.74" y="293.49" width="46.39" height="18.61" style="fill:#92E3A9"></rect><rect x="80.17" y="181.99" width="250.49" height="18.19" style="fill:#e0e0e0"></rect><rect x="65.65" y="181.99" width="43.92" height="130.99" style="fill:#e0e0e0"></rect><path d="M110.2,313.62H65V181.36H110.2Zm-43.92-1.27h42.65V182.62H66.28Z" style="fill:#e0e0e0"></path><path d="M64.82,132.9H329.37a9.85,9.85,0,0,1,9.85,9.85v11.48a0,0,0,0,1,0,0h-282a0,0,0,0,1,0,0V140.48A7.59,7.59,0,0,1,64.82,132.9Z" style="fill:#e0e0e0"></path><rect x="66.15" y="162.01" width="43.42" height="12.21" style="fill:#ebebeb"></rect><rect x="114.65" y="162.01" width="41.87" height="12.21" style="fill:#ebebeb"></rect><rect x="160.57" y="162.01" width="41.87" height="12.21" style="fill:#ebebeb"></rect><rect x="206.49" y="162.01" width="41.87" height="12.21" style="fill:#ebebeb"></rect><rect x="252.41" y="162.01" width="41.87" height="12.21" style="fill:#ebebeb"></rect><rect x="298.33" y="162.01" width="34.42" height="12.21" style="fill:#ebebeb"></rect><path d="M65.65,312.6s.44,0,1.29,0l3.79,0,14.65,0,54.89-.08,190.39-.15-.31.31c0-40.4,0-84.58,0-130.59v0l.33.33-265-.08.24-.25c0,40.26-.1,72.88-.13,95.45,0,11.29-.05,20.07-.06,26q0,4.47,0,6.8c0,1.53,0,2.33,0,2.33s0-.77,0-2.28,0-3.79,0-6.75c0-5.95,0-14.71-.07-26,0-22.61-.07-55.28-.13-95.6v-.24h.25l265-.09H331V182c0,46,0,90.19,0,130.59v.31h-.31l-190.6-.15-54.82-.09-14.58,0H66.91Z" style="fill:#263238"></path><path d="M331.16,200.18c0,.18-59.33.33-132.5.33s-132.51-.15-132.51-.33,59.31-.33,132.51-.33S331.16,200,331.16,200.18Z" style="fill:#263238"></path><path d="M331.16,218.79c0,.18-59.33.33-132.5.33S66.15,219,66.15,218.79s59.31-.33,132.51-.33S331.16,218.61,331.16,218.79Z" style="fill:#263238"></path><path d="M331.16,237.4c0,.18-59.33.33-132.5.33s-132.51-.15-132.51-.33,59.31-.33,132.51-.33S331.16,237.22,331.16,237.4Z" style="fill:#263238"></path><path d="M331.16,256c0,.18-59.33.33-132.5.33S66.15,256.19,66.15,256s59.31-.33,132.51-.33S331.16,255.83,331.16,256Z" style="fill:#263238"></path><path d="M331.16,274.62c0,.18-59.33.33-132.5.33s-132.51-.15-132.51-.33,59.31-.33,132.51-.33S331.16,274.44,331.16,274.62Z" style="fill:#263238"></path><path d="M331.16,293.23c0,.18-59.33.33-132.5.33s-132.51-.15-132.51-.33,59.31-.33,132.51-.33S331.16,293.05,331.16,293.23Z" style="fill:#263238"></path><path d="M109.56,313c-.18,0-.33-29.17-.33-65.13s.15-65.14.33-65.14.33,29.16.33,65.14S109.75,313,109.56,313Z" style="fill:#263238"></path><path d="M156,312.6c-.18,0-.33-29.08-.33-64.94s.15-64.94.33-64.94.33,29.07.33,64.94S156.14,312.6,156,312.6Z" style="fill:#263238"></path><path d="M202.35,313c-.18,0-.33-29.17-.33-65.13s.15-65.14.33-65.14.33,29.16.33,65.14S202.53,313,202.35,313Z" style="fill:#263238"></path><path d="M248.74,313c-.18,0-.33-29.17-.33-65.13s.15-65.14.33-65.14.33,29.16.33,65.14S248.93,313,248.74,313Z" style="fill:#263238"></path><path d="M295.14,313c-.18,0-.33-29.17-.33-65.13s.15-65.14.33-65.14.33,29.16.33,65.14S295.32,313,295.14,313Z" style="fill:#263238"></path><path d="M73.72,143.57A2.69,2.69,0,1,1,71,140.8,2.73,2.73,0,0,1,73.72,143.57Z" style="fill:#fff"></path><path d="M82.86,143.57a2.69,2.69,0,1,1-2.69-2.77A2.73,2.73,0,0,1,82.86,143.57Z" style="fill:#fff"></path><path d="M92,143.57a2.69,2.69,0,1,1-2.69-2.77A2.73,2.73,0,0,1,92,143.57Z" style="fill:#fff"></path><path d="M327.48,321l.6-.05a11,11,0,0,0,1.76-.22,11.72,11.72,0,0,0,8.67-7.66c.18-.44.25-.92.39-1.39a14.63,14.63,0,0,0,.21-1.5c.07-1,0-2.12,0-3.24q0-6.75,0-15.52c0-23.37-.05-57.17-.08-98.94q0-15.66,0-32.78c0-5.7,0-11.53,0-17.43a9.6,9.6,0,0,0-8.24-9,42.81,42.81,0,0,0-4.55-.11l-78.42,0-179.67,0h-3a7.71,7.71,0,0,0-2.83.46,7.31,7.31,0,0,0-4.12,3.79,7.21,7.21,0,0,0-.66,2.77c0,1,0,2,0,2.95v75.21c0,30,0,59,0,86.66v5.17a10.58,10.58,0,0,0,.87,4.9A9.64,9.64,0,0,0,66,320.65a22.82,22.82,0,0,0,2.49.06h55.45l68.33,0,98.93.09,26.9,0,7,0,2.39,0s-.81,0-2.39,0l-7,0-26.9.05-98.93.08-68.33,0-38.06,0H68.49a24.16,24.16,0,0,1-2.54-.07,10.13,10.13,0,0,1-8.05-5.84,11.21,11.21,0,0,1-.91-5.1V305c0-27.61,0-56.61,0-86.66q0-22.54,0-45.85V143.13c0-1,0-2,0-3a7.79,7.79,0,0,1,5.12-7,8.34,8.34,0,0,1,3-.49h3l179.67,0,78.42,0a44.49,44.49,0,0,1,4.61.12,9.89,9.89,0,0,1,4.28,1.68,10,10,0,0,1,4.31,7.72c.06,5.94,0,11.74,0,17.45q0,17.1,0,32.78c0,41.77-.07,75.57-.08,98.94q0,8.76,0,15.52c0,1.13,0,2.2-.05,3.25a14.43,14.43,0,0,1-.22,1.51,12.14,12.14,0,0,1-.4,1.41,11.83,11.83,0,0,1-2.7,4.37,12,12,0,0,1-6.08,3.31,11.6,11.6,0,0,1-1.77.19Z" style="fill:#263238"></path></g><g id="freepik--Tab--inject-141"><path d="M292,72.93H508.12A9.05,9.05,0,0,1,517.17,82V380.65A8.38,8.38,0,0,1,508.8,389H292.08a7.58,7.58,0,0,1-7.58-7.58v-301A7.54,7.54,0,0,1,292,72.93Z" style="fill:#fff"></path><path d="M292,72.93H508.12A9.05,9.05,0,0,1,517.17,82v19.76a0,0,0,0,1,0,0H284.5a0,0,0,0,1,0,0V80.47A7.54,7.54,0,0,1,292,72.93Z" style="fill:#e0e0e0"></path><ellipse cx="300.22" cy="86.81" rx="3.82" ry="3.63" style="fill:#fff"></ellipse><ellipse cx="313.1" cy="86.81" rx="3.82" ry="3.63" style="fill:#fff"></ellipse><path d="M329.81,86.81A3.82,3.82,0,1,1,326,83.18,3.73,3.73,0,0,1,329.81,86.81Z" style="fill:#fff"></path><rect x="319.3" y="153.22" width="9.37" height="68.52" style="fill:#92E3A9"></rect><rect x="337.39" y="176.49" width="9.37" height="45.25" style="fill:#92E3A9"></rect><rect x="355.47" y="161.73" width="9.37" height="60.35" style="fill:#92E3A9"></rect><rect x="373.55" y="155.86" width="9.37" height="65.87" style="fill:#92E3A9"></rect><rect x="391.63" y="177.88" width="9.37" height="43.85" style="fill:#92E3A9"></rect><rect x="409.72" y="186.48" width="9.37" height="35.25" style="fill:#92E3A9"></rect><rect x="427.8" y="160.25" width="9.37" height="61.48" style="fill:#92E3A9"></rect><rect x="445.88" y="171.33" width="9.37" height="50.4" style="fill:#92E3A9"></rect><rect x="463.96" y="162.48" width="9.37" height="59.26" style="fill:#92E3A9"></rect><rect x="482.05" y="181.36" width="9.37" height="40.37" style="fill:#92E3A9"></rect><g style="opacity:0.30000000000000004"><rect x="337.39" y="176.49" width="9.37" height="45.25" style="fill:#fff"></rect></g><g style="opacity:0.30000000000000004"><rect x="373.55" y="155.86" width="9.37" height="65.87" style="fill:#fff"></rect></g><g style="opacity:0.30000000000000004"><rect x="409.72" y="186.48" width="9.37" height="35.25" style="fill:#fff"></rect></g><g style="opacity:0.30000000000000004"><rect x="445.88" y="171.33" width="9.37" height="50.4" style="fill:#fff"></rect></g><g style="opacity:0.30000000000000004"><rect x="482.05" y="181.36" width="9.37" height="40.37" style="fill:#fff"></rect></g><path d="M309.64,155.86s0,.11,0,.31,0,.52,0,.91c0,.82,0,2,0,3.56,0,3.13,0,7.68.06,13.47,0,11.62.05,28.17.09,48l-.22-.23,62.13,0,90.78.08,27.5.08,7.48.05,2,0c.44,0,.66,0,.66,0l-.66,0-2,0-7.48.05-27.5.09-90.78.07-62.13,0h-.23v-.23c0-19.8.07-36.35.09-48,0-5.79.05-10.34.07-13.47,0-1.55,0-2.74,0-3.56,0-.39,0-.69,0-.91A1.92,1.92,0,0,1,309.64,155.86Z" style="fill:#263238"></path><rect x="310.13" y="130.01" width="55.6" height="5.76" rx="2.56" style="fill:#e0e0e0"></rect><rect x="304.91" y="245.94" width="182.89" height="5.76" rx="2.56" style="fill:#e0e0e0"></rect><rect x="304.91" y="277.97" width="182.89" height="5.76" rx="2.56" style="fill:#e0e0e0"></rect><rect x="304.91" y="261.88" width="99.28" height="5.76" rx="2.56" style="fill:#e0e0e0"></rect><rect x="415.07" y="261.88" width="71.54" height="5.76" rx="2.56" style="fill:#e0e0e0"></rect><rect x="306.11" y="294.05" width="71.54" height="5.76" rx="2.56" style="fill:#e0e0e0"></rect><path d="M508.8,389a9.36,9.36,0,0,0,2.73-.49,8.42,8.42,0,0,0,5.31-5.78,9.49,9.49,0,0,0,.27-2.82v-3.19c0-2.22,0-4.66,0-7.3q0-7.92,0-18.22c0-27.42-.05-67.09-.08-116.1,0-24.51,0-51.36,0-80.18q0-21.62,0-44.67V84c0-1,0-2-.06-3a8.94,8.94,0,0,0-2.45-5.17,8.85,8.85,0,0,0-5.14-2.57,24.58,24.58,0,0,0-3-.09h-3l-210.86,0A7.28,7.28,0,0,0,285,78.83a14.86,14.86,0,0,0-.19,3.42q0,7,0,13.9v81.32c0,35.27,0,69.29,0,101.7s0,63.21,0,92c0,3.6,0,7.19,0,10.71a7.3,7.3,0,0,0,2,4.61,7.41,7.41,0,0,0,4.46,2.24c.83.08,1.71.05,2.58.06h17.86l38.47,0,116.1.08,31.57.05,8.21,0c1.85,0,2.8,0,2.8,0l-2.8,0-8.21,0-31.57,0-116.1.09H293.79c-.87,0-1.73,0-2.63-.06a7.78,7.78,0,0,1-6.84-7.24c-.05-3.56,0-7.12,0-10.73,0-28.82,0-59.62,0-92s0-66.43,0-101.7v-53.8q0-13.67,0-27.52V80.51a8.93,8.93,0,0,1,.21-1.79,7.83,7.83,0,0,1,8-6l210.86,0h3a26,26,0,0,1,3.05.09,9.28,9.28,0,0,1,8,8.17c.09,1,0,2,.06,3v3q0,11.85,0,23.36,0,23,0,44.67c0,28.82,0,55.67,0,80.18,0,49-.07,88.68-.09,116.1q0,10.29,0,18.22c0,2.64,0,5.08,0,7.3v3.19a9.75,9.75,0,0,1-.29,2.85,8.29,8.29,0,0,1-2.44,4,8.48,8.48,0,0,1-2.95,1.76,8.28,8.28,0,0,1-2.05.42Z" style="fill:#263238"></path><path d="M359.78,344.9A24.2,24.2,0,1,1,335.19,321,24.29,24.29,0,0,1,359.78,344.9Zm-35.77.58a11.57,11.57,0,1,0,11.39-11.81A11.61,11.61,0,0,0,324,345.48Z" style="fill:#e0e0e0"></path><path d="M359.78,344.9A24.29,24.29,0,0,1,336,369.6l-.2-12.69a11.62,11.62,0,0,0-.37-23.24L335.19,321A24.28,24.28,0,0,1,359.78,344.9Z" style="fill:#455a64"></path><path d="M338.14,371.55A27.65,27.65,0,0,1,309.83,344l14.77-.24c.12,7.5,5.83,12.22,13.29,12.1Z" style="fill:#92E3A9"></path><path d="M376.64,347.63a24.2,24.2,0,1,1,24.59,23.92A24.3,24.3,0,0,1,376.64,347.63Zm35.77-.58A11.57,11.57,0,1,0,401,358.87,11.61,11.61,0,0,0,412.41,347.05Z" style="fill:#455a64"></path><path d="M376.64,347.63a24.3,24.3,0,0,1,23.81-24.7l.2,12.69a11.63,11.63,0,0,0,.37,23.25l.21,12.68A24.27,24.27,0,0,1,376.64,347.63Z" style="fill:#92E3A9"></path><path d="M398.28,321a27.65,27.65,0,0,1,28.31,27.55l-14.77.23c-.12-7.49-5.83-12.22-13.29-12.09Z" style="fill:#e0e0e0"></path><path d="M468.73,321.29a24.2,24.2,0,1,1-23.92,24.59A24.29,24.29,0,0,1,468.73,321.29Zm.58,35.77a11.57,11.57,0,1,0-11.81-11.38A11.6,11.6,0,0,0,469.31,357.06Z" style="fill:#455a64"></path><path d="M468.73,321.29a24.29,24.29,0,0,1,24.7,23.81l-12.69.2a11.62,11.62,0,0,0-23.24.38l-12.69.2A24.3,24.3,0,0,1,468.73,321.29Z" style="fill:#92E3A9"></path><path d="M495.38,342.93a27.65,27.65,0,0,1-27.54,28.31l-.24-14.77c7.5-.12,12.22-5.83,12.1-13.29Z" style="fill:#e0e0e0"></path></g><g id="freepik--Chart--inject-141"><rect x="179.44" y="39.91" width="77.53" height="72.87" rx="4.34" style="fill:#fafafa"></rect><path d="M179.44,44.25a2.73,2.73,0,0,1,0-.76,4.3,4.3,0,0,1,.9-2,4.35,4.35,0,0,1,3.17-1.62c1.44,0,3.08,0,4.94,0l31.43-.08,21.71,0h10.54a5.79,5.79,0,0,1,1.59.15,4.58,4.58,0,0,1,2.65,1.85,4.66,4.66,0,0,1,.67,1.53,7.07,7.07,0,0,1,.13,1.64v6.49c0,17.55,0,36.84,0,57.09a4.62,4.62,0,0,1-1.64,3.52,4.34,4.34,0,0,1-1.75.92,6.84,6.84,0,0,1-1.94.17H189.53c-2.08,0-4.1,0-6.16,0a4.66,4.66,0,0,1-2.8-1.3,4.6,4.6,0,0,1-1.32-2.74c-.05-7.85,0-15.09,0-21.73,0-13.26.06-24,.08-31.43,0-3.7,0-6.58,0-8.55q0-1.44,0-2.22c0-.5,0-.76,0-.76s0,.26,0,.76,0,1.26,0,2.22c0,2,0,4.85,0,8.55,0,7.43.05,18.17.08,31.43,0,6.63,0,13.89.06,21.68a4.14,4.14,0,0,0,3.73,3.65c2,0,4.05,0,6.12,0h12.83l27.53,0h22a6.61,6.61,0,0,0,1.8-.15,4.05,4.05,0,0,0,3-3.94c0-20.25,0-39.54,0-57.09,0-2.19,0-4.36,0-6.49a4.63,4.63,0,0,0-.71-2.91,4.16,4.16,0,0,0-2.38-1.67,5.56,5.56,0,0,0-1.48-.13H241.63l-21.71,0L188.49,40h-4.93a4.3,4.3,0,0,0-3.1,1.53,4.35,4.35,0,0,0-.93,2C179.44,44,179.46,44.25,179.44,44.25Z" style="fill:#263238"></path><path d="M237.65,102.05c0,.13-8.86.23-19.79.23s-19.8-.1-19.8-.23,8.86-.23,19.8-.23S237.65,101.93,237.65,102.05Z" style="fill:#263238"></path><path d="M228.84,105.69c0,.12-4.92.22-11,.22s-11-.1-11-.22,4.91-.23,11-.23S228.84,105.56,228.84,105.69Z" style="fill:#263238"></path><path d="M219.42,73.77,239.1,74a19.6,19.6,0,0,1-19.68,19h-.12Z" style="fill:#455a64"></path><path d="M216.3,71,216,90.28A19.31,19.31,0,1,1,236,71Z" style="fill:#92E3A9"></path></g><g id="freepik--speech-bubble--inject-141"><path d="M201.73,161.27l-7.47.73a24.2,24.2,0,1,1,4-7.66h0Z" style="fill:#fff"></path><path d="M201.85,161l-.25-.47-.68-1.32c-.6-1.19-1.47-2.89-2.59-5.11l.19,0h0a.11.11,0,0,1-.15,0,.13.13,0,0,1-.05-.13,24.31,24.31,0,0,0,.64-11.74,24.37,24.37,0,0,0-8.2-13.81,23.85,23.85,0,0,0-36.33,7.06l-.68,1.31-.55,1.36a26.16,26.16,0,0,0-.9,2.76,23.8,23.8,0,0,0,8.13,24.38,24,24,0,0,0,33.87-3.7l.08,0,5.52-.47,1.45-.11c.33,0,.51,0,.51,0l-.46.06-1.41.16-5.59.61.07,0a23.93,23.93,0,0,1-9.37,7.29,24.39,24.39,0,0,1-31.56-11.56,24.7,24.7,0,0,1-2.46-10.89,24.35,24.35,0,0,1,.72-5.79,25,25,0,0,1,.91-2.82l.56-1.39.69-1.34A24.33,24.33,0,0,1,191,128.16a24.62,24.62,0,0,1,8.26,14.09,24.24,24.24,0,0,1-.76,11.87l-.21-.09v0a.12.12,0,0,1,.16,0l0,.05,2.5,5.23c.27.56.47,1,.62,1.32A4.58,4.58,0,0,1,201.85,161Z" style="fill:#263238"></path><rect x="183.91" y="146.2" width="3.69" height="10.4" style="fill:#e0e0e0"></rect><polygon points="182.54 147.07 188.85 147.07 185.63 143.74 182.54 147.07" style="fill:#e0e0e0"></polygon><rect x="173.54" y="131.92" width="4.94" height="28.83" style="fill:#e0e0e0"></rect><polygon points="171.71 133.08 180.15 133.08 175.84 128.64 171.71 133.08" style="fill:#e0e0e0"></polygon><path d="M177,156.19l0,2.72-2.42,0,0-2.64a11.41,11.41,0,0,1-6-2l1.37-2.94a9.77,9.77,0,0,0,4.68,1.78l.05-4c-2.68-.69-5.67-1.63-5.62-5.09,0-2.57,1.92-4.74,5.76-5.13l0-2.69,2.42,0,0,2.64a10.9,10.9,0,0,1,4.89,1.55l-1.25,3a9.85,9.85,0,0,0-3.68-1.31l-.06,4.12c2.68.66,5.62,1.6,5.58,5C182.71,153.63,180.84,155.78,177,156.19Zm-2.28-10.73,0-3.44c-1.28.27-1.8,1-1.81,1.77S173.7,145.11,174.76,145.46Zm4.09,5.89c0-.85-.69-1.32-1.73-1.69l0,3.34C178.29,152.75,178.83,152.13,178.85,151.35Z" style="fill:#92E3A9"></path><rect x="162.91" y="139.77" width="4.26" height="12" style="fill:#e0e0e0"></rect><polygon points="161.33 140.78 168.61 140.78 164.89 136.93 161.33 140.78" style="fill:#e0e0e0"></polygon></g></svg>