<svg xmlns="http://www.w3.org/2000/svg" viewBox="0 0 500 500"><g id="freepik--Floor--inject-36"><path id="freepik--floor--inject-36" d="M77.66,250.73c-95.18,55-95.17,144,0,199s249.49,54.95,344.67,0,95.17-144,0-199S172.84,195.78,77.66,250.73Z" style="fill:#fafafa"></path></g><g id="freepik--Plant--inject-36"><g id="freepik--Plants--inject-36"><path d="M429.61,296.24l-10.5-6.07s-6.25-26-3.76-49.34c3.5-32.86,25.13-45.22,33.35-42.39s10.61,12.4-3,32C437.67,242,427.81,266,429.61,296.24Z" style="fill:#BA68C8"></path><g style="opacity:0.65"><path d="M429.61,296.24l-10.5-6.07s-6.25-26-3.76-49.34c3.5-32.86,25.13-45.22,33.35-42.39s10.61,12.4-3,32C437.67,242,427.81,266,429.61,296.24Z" style="fill:#fff"></path></g><path d="M425.26,283.48h.1a.73.73,0,0,0,.58-.85c-5.76-30.31,4.83-64.36,17.94-78.53a.74.74,0,0,0,0-1,.73.73,0,0,0-1,0c-13.35,14.43-24.15,49-18.3,79.79A.72.72,0,0,0,425.26,283.48Z" style="fill:#fff"></path><path d="M456,311.5c1.57.8,5.74-2.77,6.9-3.64a14.48,14.48,0,0,0,4.56-5.8,13.63,13.63,0,0,0,.8-8.25,32.05,32.05,0,0,0-1.25-4.3c-.48-1.39-1-2.78-1.43-4.17a10.72,10.72,0,0,1-.84-4.23c.23-2.91,2.69-5.06,4.94-6.93,2.48-2.06,5-4.75,4.85-8.23-.15-2.68-1.67-5.1-3.44-7.13s-3.84-3.78-5.45-5.93a8.54,8.54,0,0,1-2-5.32,8.93,8.93,0,0,1,1-3.44c1.11-2.33,2.63-4.49,3.36-7s.45-5.5-1.54-7.15c-1.63-1.35-4-1.43-6.06-1.19a14,14,0,0,0-5.48,2.24c-5.37,3.35-8.19,10.06-13.93,12.72-2.22,1-4.69,1.35-7,2.09s-4.67,2.07-5.65,4.3c-1.94,4.41,2.32,9.51,1,14.15-1.14,4.1-5,5.85-7,9.6a8.59,8.59,0,0,0-.77,5.34,25.47,25.47,0,0,0,2.68,8.82,79.36,79.36,0,0,0,5.31,8.15S455.8,311.38,456,311.5Z" style="fill:#BA68C8"></path><g style="opacity:0.30000000000000004"><path d="M456,311.5c1.57.8,5.74-2.77,6.9-3.64a14.48,14.48,0,0,0,4.56-5.8,13.63,13.63,0,0,0,.8-8.25,32.05,32.05,0,0,0-1.25-4.3c-.48-1.39-1-2.78-1.43-4.17a10.72,10.72,0,0,1-.84-4.23c.23-2.91,2.69-5.06,4.94-6.93,2.48-2.06,5-4.75,4.85-8.23-.15-2.68-1.67-5.1-3.44-7.13s-3.84-3.78-5.45-5.93a8.54,8.54,0,0,1-2-5.32,8.93,8.93,0,0,1,1-3.44c1.11-2.33,2.63-4.49,3.36-7s.45-5.5-1.54-7.15c-1.63-1.35-4-1.43-6.06-1.19a14,14,0,0,0-5.48,2.24c-5.37,3.35-8.19,10.06-13.93,12.72-2.22,1-4.69,1.35-7,2.09s-4.67,2.07-5.65,4.3c-1.94,4.41,2.32,9.51,1,14.15-1.14,4.1-5,5.85-7,9.6a8.59,8.59,0,0,0-.77,5.34,25.47,25.47,0,0,0,2.68,8.82,79.36,79.36,0,0,0,5.31,8.15S455.8,311.38,456,311.5Z" style="fill:#fff"></path></g><path d="M440.84,303.58h0a.69.69,0,0,0,.63-.75c-2.51-27.26,8.83-58.06,17.75-67.3a.68.68,0,0,0,0-1,.69.69,0,0,0-1,0c-9.1,9.42-20.68,40.74-18.13,68.38A.69.69,0,0,0,440.84,303.58Z" style="fill:#fff"></path><path d="M443.55,270a.79.79,0,0,0,.2,0c8.64-3.16,19.55-4.19,19.66-4.2A.68.68,0,0,0,464,265a.67.67,0,0,0-.75-.62c-.11,0-11.2,1.06-20,4.28a.69.69,0,0,0-.41.88A.7.7,0,0,0,443.55,270Z" style="fill:#fff"></path></g></g><g id="freepik--Shadows--inject-36"><path id="freepik--Shadow--inject-36" d="M191.06,458.91a12.28,12.28,0,0,0,6.06-1.49l4.57-2.63a5.14,5.14,0,0,0,0-9.51l-58.42-33.57c5.37-6,7.75-12.66,6.91-19.52-1.06-8.74-7.46-16.91-18-23C120.75,362.6,105.6,359,89.51,359s-31.23,3.64-42.65,10.23C35.14,376,28.68,385.06,28.68,394.83s6.46,18.86,18.18,25.63c11.42,6.6,26.57,10.23,42.64,10.23h0c15.49,0,30.14-3.38,41.4-9.53l53.35,35.89A12.55,12.55,0,0,0,191.06,458.91Z" style="fill:#e0e0e0"></path><path id="freepik--shadow--inject-36" d="M298.64,453c1.7,4.6,6.61,7.45,14.79,8.53L453.25,379.8l15.17-15.36a1.18,1.18,0,0,0-1.21-1.94l-27.91,9.24Z" style="fill:#e0e0e0"></path><path id="freepik--shadow--inject-36" d="M253.31,441.22,118.66,363.57c-5.31-3.07-5.31-8.05,0-11.12L312.94,240.07c5.32-3.07,13.94-3.07,19.25,0l134.64,77.65c5.32,3.07,5.32,8,0,11.12L272.56,441.22C267.24,444.29,258.62,444.29,253.31,441.22Z" style="fill:#e0e0e0"></path></g><g id="freepik--light-bulb--inject-36"><g id="freepik--Bulb--inject-36"><path d="M447.52,168.06l-11.91-4.62a1,1,0,0,1,.69-1.79l11.92,4.62a1,1,0,1,1-.7,1.79Z" style="fill:#ebebeb"></path><path d="M438,175.05a7.35,7.35,0,0,1-4.19-9.51A1,1,0,0,1,435,165l11.91,4.62a.94.94,0,0,1,.55,1.24A7.36,7.36,0,0,1,438,175.05Z" style="fill:#ebebeb"></path><path d="M469.47,148.5a19.78,19.78,0,0,0-12.21-25.91,20,20,0,0,0-24.55,11.33,19.71,19.71,0,0,0,2.8,19.66,5.22,5.22,0,0,1,.81,5.17.86.86,0,0,0,0,.65.89.89,0,0,0,.49.46l1.16.44,1.23.47c.23-.61.57-1.49.73-1.88,1.34-3.36,2.73-6.83,3-10.69a15.3,15.3,0,0,0-.08-2.59,9.87,9.87,0,0,1-1.47-.44,5.77,5.77,0,0,1-1.81-1.06,4.11,4.11,0,0,1-.63-.7,2,2,0,0,1,0-2.51,2.37,2.37,0,0,1,2.84-.74,3,3,0,0,1,1,.62,6.13,6.13,0,0,1,1.73,3,9.17,9.17,0,0,0,3-.39,9.63,9.63,0,0,0,1.54-.57,6.28,6.28,0,0,1,.72-5.36,2.63,2.63,0,0,1,3-.77,3.12,3.12,0,0,1,.84.52,2.58,2.58,0,0,1,.89,2.1,6.35,6.35,0,0,1-3.08,4.45,9.64,9.64,0,0,0,.75,1.45A9.1,9.1,0,0,0,454,147.4l.17.15a5.19,5.19,0,0,1,4.47-.86,3,3,0,0,1,.81.48,2.42,2.42,0,0,1,.8,2,2.08,2.08,0,0,1-1.69,1.9,5.16,5.16,0,0,1-3-.34,11.57,11.57,0,0,1-1.37-.68,17.21,17.21,0,0,0-1.8,1.87c-2.45,3-3.76,6.55-5,10-.13.36-.47,1.25-.7,1.85l1.24.47,1.13.44a.87.87,0,0,0,1.12-.48,5.26,5.26,0,0,1,4.07-3.26A19.9,19.9,0,0,0,469.47,148.5Zm-26.67-5a3.24,3.24,0,0,0-1.55-1.9.91.91,0,0,0-1.13.27.62.62,0,0,0,.06.74,3.91,3.91,0,0,0,1.78,1.2l.43.16.7.23Zm2.72,17.65c1.26-3.38,2.68-7.22,5.35-10.49a17,17,0,0,1,1.71-1.84,12.56,12.56,0,0,1-2.87-4,12.15,12.15,0,0,1-1.63.58,11.34,11.34,0,0,1-3.22.46,16.23,16.23,0,0,1,0,2.52c-.26,4.34-1.85,8.25-3.13,11.4-.14.34-.47,1.18-.69,1.79l3.77,1.45ZM453,139.25a1.2,1.2,0,0,0-2.1-.81,4.66,4.66,0,0,0-.49,3.6l.08.56.46-.35A4.67,4.67,0,0,0,453,139.25Zm5.73,9.8a1,1,0,0,0-.67-1,3.21,3.21,0,0,0-2.43.37l-.67.32.67.31.41.16a4.11,4.11,0,0,0,2.14.32C458.35,149.54,458.74,149.44,458.77,149.05Z" style="fill:#ebebeb"></path></g></g><g id="freepik--Text--inject-36"><path id="freepik--text--inject-36" d="M399.19,57.68l5.28,14.16,1.71-.66-1.67-4.47c-.9-2.4,1-5.33,4.21-6.53l8-3L427,84.6a5.41,5.41,0,0,1-3.2,7l-5,1.87.57,1.54,27.26-10.18L446,83.25l-5,1.87A5.42,5.42,0,0,1,434,82L423.76,54.56l8-3c3.22-1.21,6.56-.23,7.46,2.17l1.67,4.47,1.72-.62-5.29-14.16Z" style="fill:#ebebeb"></path></g><g id="freepik--Gears--inject-36"><g id="freepik--gears--inject-36"><path id="freepik--Gear--inject-36" d="M126.13,44.56l-3.46-1.19a1.36,1.36,0,0,1-.79-1.1,12.07,12.07,0,0,0-.32-2,1.76,1.76,0,0,1,.81-1.5l2.18-1.64c.56-.42.84-1,.62-1.38L123,32.29c-.22-.34-.87-.39-1.47-.12l-2.64,1.22a1.73,1.73,0,0,1-1.62,0,13.1,13.1,0,0,0-1.77-1.25,1.34,1.34,0,0,1-.54-1.27l.45-3.29a1,1,0,0,0-.69-1.09l-3.92-.9a1.12,1.12,0,0,0-1.18.79l-1.09,2.89a1.68,1.68,0,0,1-1.32,1,12.88,12.88,0,0,0-1.65.26,1.65,1.65,0,0,1-1.49-.3l-2.32-2.91c-.25-.32-.92-.29-1.51.06l-2.77,1.66c-.58.35-.91.93-.74,1.3l1.59,3.3a1.79,1.79,0,0,1-.52,1.59c-.26.32-.51.66-.75,1a1.79,1.79,0,0,1-1.47.88l-3.5-.42a1.08,1.08,0,0,0-1.11.84l-.89,3.52a1,1,0,0,0,.52,1.2L94,43.5a1.31,1.31,0,0,1,.79,1.09,12.85,12.85,0,0,0,.32,2,1.76,1.76,0,0,1-.81,1.51l-2.17,1.64c-.56.42-.84,1-.63,1.38l2.19,3.48c.21.34.87.4,1.46.12l2.64-1.21a1.7,1.7,0,0,1,1.62,0,13.76,13.76,0,0,0,1.77,1.25,1.37,1.37,0,0,1,.54,1.28l-.45,3.28a1,1,0,0,0,.69,1.09l3.93.9a1.1,1.1,0,0,0,1.17-.78l1.09-2.9a1.7,1.7,0,0,1,1.32-1,13.3,13.3,0,0,0,1.66-.25,1.6,1.6,0,0,1,1.49.3L115,59.51c.25.31.93.28,1.51-.07l2.77-1.65c.59-.35.92-.93.74-1.3l-1.59-3.31a1.86,1.86,0,0,1,.52-1.59,10.43,10.43,0,0,0,.75-1,1.86,1.86,0,0,1,1.48-.89l3.5.42a1.07,1.07,0,0,0,1.1-.84l.89-3.52A1,1,0,0,0,126.13,44.56Zm-10.06.64a8,8,0,0,1-9.61,5.74,7.62,7.62,0,0,1-5.81-9.28,8.05,8.05,0,0,1,9.61-5.74A7.64,7.64,0,0,1,116.07,45.2Z" style="fill:#f0f0f0"></path><path id="freepik--gear--inject-36" d="M85.9,59.21l-6-.55a2.17,2.17,0,0,1-1.68-1.43,21,21,0,0,0-1.28-3,2.89,2.89,0,0,1,.7-2.7l2.81-3.45c.72-.89.93-2,.46-2.44L76.13,41c-.47-.46-1.53-.29-2.37.38L70,44.3a2.81,2.81,0,0,1-2.57.66,20.84,20.84,0,0,0-3.29-1.3,2.2,2.2,0,0,1-1.35-1.81l-.57-5.39A1.6,1.6,0,0,0,60.74,35l-6.58.1a1.83,1.83,0,0,0-1.56,1.71l-.59,5A2.77,2.77,0,0,1,50.31,44,24.47,24.47,0,0,0,47.78,45a2.68,2.68,0,0,1-2.48.11l-4.81-3.72c-.52-.4-1.58-.09-2.37.7l-3.75,3.7c-.79.78-1.09,1.84-.67,2.35l3.81,4.63c.42.51.28,1.72-.2,2.72-.3.62-.56,1.25-.8,1.89a3,3,0,0,1-2,2l-5.72.7a1.76,1.76,0,0,0-1.42,1.76l0,5.94a1.61,1.61,0,0,0,1.28,1.7l6,.55a2.19,2.19,0,0,1,1.69,1.43,19.85,19.85,0,0,0,1.27,3,2.89,2.89,0,0,1-.7,2.7L34,80.61c-.72.89-.93,2-.45,2.44l4.82,4.68c.47.46,1.53.29,2.37-.38l3.72-3A2.82,2.82,0,0,1,47,83.73a20.58,20.58,0,0,0,3.3,1.3,2.21,2.21,0,0,1,1.34,1.81l.57,5.39a1.6,1.6,0,0,0,1.52,1.46l6.58-.1a1.83,1.83,0,0,0,1.56-1.71l.6-5a2.76,2.76,0,0,1,1.7-2.15,22.29,22.29,0,0,0,2.52-1,2.7,2.7,0,0,1,2.49-.11L74,87.28c.52.4,1.58.09,2.38-.7l3.74-3.7c.79-.78,1.09-1.84.67-2.35L77,75.9c-.42-.51-.28-1.72.2-2.72a19.44,19.44,0,0,0,.8-1.89,3,3,0,0,1,2-2l5.72-.7a1.77,1.77,0,0,0,1.43-1.76l0-5.93A1.63,1.63,0,0,0,85.9,59.21ZM70.18,64.15A13.14,13.14,0,0,1,57.17,77,12.46,12.46,0,0,1,44.33,64.55a13.14,13.14,0,0,1,13-12.86A12.46,12.46,0,0,1,70.18,64.15Z" style="fill:#f0f0f0"></path></g></g><g id="freepik--Thesis--inject-36"><g id="freepik--thesis--inject-36"><path d="M66.56,136.52V365.28a7,7,0,0,1-3.29-.83l-.08,0-.1-.06L42.21,352.29h0l0-229.83L63.24,134.6l3.31,1.91h0Z" style="fill:#e0e0e0"></path><polygon points="188.41 38.02 42.18 122.45 66.55 136.52 212.79 52.09 188.41 38.02" style="fill:#ebebeb"></polygon><path d="M213.1,281.78,78.74,359.32l-8.72,5a6.88,6.88,0,0,1-3.46.93V136.52h0l2.78-1.61.59-.35h0l.06,0,8.72-5L212.79,52.09Z" style="fill:#fafafa"></path><polygon points="66.55 136.52 66.56 136.52 66.56 136.52 139.54 94.07 212.6 51.77 213.15 51.46 213.15 52.09 213.44 166.93 213.46 281.78 213.46 281.99 213.28 282.09 141.69 323.29 70.02 364.35 141.43 322.84 212.92 281.47 212.74 281.78 212.44 166.94 212.42 52.09 212.97 52.41 139.8 94.53 66.56 136.52 66.56 136.52 66.55 136.52" style="fill:#e0e0e0"></polygon><polygon points="58.03 244.94 60.2 132.85 122.81 93.78 57.26 131.15 58.03 244.94" style="opacity:0.1"></polygon><polygon points="51.37 273.79 51.55 127.86 174.42 57.75 48.68 126.2 51.37 273.79" style="opacity:0.1"></polygon><path d="M199,55c.28.54.42.86.42.86L159.36,79l31.76-29.2C195.15,50.54,197.63,52.38,199,55Z" style="opacity:0.1"></path><polygon points="159.36 78.95 199.38 55.84 199.62 49.45 159.36 78.95" style="fill:#fafafa"></polygon><path d="M125,137.38a.27.27,0,0,1,.32,0,.4.4,0,0,1,.13.34v2.35a1.07,1.07,0,0,1-.13.5.79.79,0,0,1-.32.35l-2.92,1.69V154a1.07,1.07,0,0,1-.13.5.9.9,0,0,1-.31.35l-2.18,1.26a.25.25,0,0,1-.31,0,.39.39,0,0,1-.14-.34V144.37l-2.92,1.69a.25.25,0,0,1-.31,0,.39.39,0,0,1-.13-.34v-2.34a1,1,0,0,1,.13-.5.87.87,0,0,1,.31-.36Z" style="fill:#BA68C8"></path><path d="M136.31,130.84a.25.25,0,0,1,.31,0,.39.39,0,0,1,.14.34v14.29a1.08,1.08,0,0,1-.14.5.87.87,0,0,1-.31.36l-2.18,1.25a.27.27,0,0,1-.31,0,.41.41,0,0,1-.13-.35v-5.42L130,144v5.42a1.07,1.07,0,0,1-.13.5.87.87,0,0,1-.31.36l-2.18,1.25a.27.27,0,0,1-.31,0,.41.41,0,0,1-.14-.36V136.85a1.08,1.08,0,0,1,.14-.5.9.9,0,0,1,.31-.35l2.18-1.26a.25.25,0,0,1,.31,0,.39.39,0,0,1,.13.34v5.33l3.69-2.12V133a1,1,0,0,1,.13-.49.87.87,0,0,1,.31-.36Z" style="fill:#BA68C8"></path><path d="M147.39,136.39a.27.27,0,0,1,.31,0,.42.42,0,0,1,.14.35v2.34a1.05,1.05,0,0,1-.14.5.8.8,0,0,1-.31.36l-7.86,4.54a.27.27,0,0,1-.32,0,.39.39,0,0,1-.13-.34V129.84a1.07,1.07,0,0,1,.13-.5.94.94,0,0,1,.32-.36l7.73-4.46a.25.25,0,0,1,.31,0,.39.39,0,0,1,.13.34v2.35a1,1,0,0,1-.13.49.87.87,0,0,1-.31.36L142.15,131v2.39l4.74-2.74a.27.27,0,0,1,.32,0,.39.39,0,0,1,.13.34v2.34a1,1,0,0,1-.13.5.88.88,0,0,1-.32.36l-4.74,2.74v2.48Z" style="fill:#BA68C8"></path><path d="M154.06,120.37a5.35,5.35,0,0,1,1.95-.71,3,3,0,0,1,1.53.16,2.18,2.18,0,0,1,1,.83,2.43,2.43,0,0,1,.39,1.27.89.89,0,0,1-.11.4.62.62,0,0,1-.24.28l-2.18,1.26a.63.63,0,0,1-.37.12.57.57,0,0,1-.29-.09l-.16-.13a.84.84,0,0,0-.3-.15,1.39,1.39,0,0,0-.5,0,2.68,2.68,0,0,0-.73.3,5.91,5.91,0,0,0-.61.41,3.84,3.84,0,0,0-.51.47,2.37,2.37,0,0,0-.37.56,1.52,1.52,0,0,0-.14.63.58.58,0,0,0,.16.46.73.73,0,0,0,.53.1,4.4,4.4,0,0,0,1-.2l1.52-.46a5.9,5.9,0,0,1,1.6-.3,1.92,1.92,0,0,1,1.13.28,1.69,1.69,0,0,1,.68.94,5.08,5.08,0,0,1,.23,1.67,6.87,6.87,0,0,1-.38,2.23,9.52,9.52,0,0,1-1.07,2.14,10.8,10.8,0,0,1-1.63,1.9,11.29,11.29,0,0,1-2.05,1.51,5.8,5.8,0,0,1-2.06.79,3.2,3.2,0,0,1-1.6-.12,2.14,2.14,0,0,1-1-.87,2.64,2.64,0,0,1-.4-1.43.89.89,0,0,1,.11-.4.62.62,0,0,1,.24-.28l2.17-1.26a.82.82,0,0,1,.37-.13.42.42,0,0,1,.26.08,1.83,1.83,0,0,1,.2.17,1,1,0,0,0,.36.2,1.12,1.12,0,0,0,.56,0,2.4,2.4,0,0,0,.84-.33,6.71,6.71,0,0,0,1.47-1.1,1.79,1.79,0,0,0,.59-1.26.42.42,0,0,0-.22-.43,1.27,1.27,0,0,0-.64,0,7.24,7.24,0,0,0-1.11.27c-.45.14-1,.3-1.58.47a2.59,2.59,0,0,1-2.5-.18,3.38,3.38,0,0,1-.79-2.59,6.69,6.69,0,0,1,.33-2,9.49,9.49,0,0,1,.93-2.07,10.64,10.64,0,0,1,1.49-1.9A9,9,0,0,1,154.06,120.37Z" style="fill:#BA68C8"></path><path d="M161.38,131.85a.27.27,0,0,1-.32,0,.4.4,0,0,1-.13-.34V117.23a1,1,0,0,1,.13-.5.82.82,0,0,1,.32-.36l2.17-1.25a.26.26,0,0,1,.31,0,.4.4,0,0,1,.14.34v14.29a1.05,1.05,0,0,1-.14.5.8.8,0,0,1-.31.36Z" style="fill:#BA68C8"></path><path d="M170.63,110.81a5.21,5.21,0,0,1,2-.72,3.05,3.05,0,0,1,1.54.16,2.18,2.18,0,0,1,1,.83,2.43,2.43,0,0,1,.38,1.27.89.89,0,0,1-.11.4.62.62,0,0,1-.24.28L173,114.29a.82.82,0,0,1-.37.13.71.71,0,0,1-.3-.1l-.15-.13a.9.9,0,0,0-.31-.15,1.39,1.39,0,0,0-.5,0,2.68,2.68,0,0,0-.73.3,6.34,6.34,0,0,0-.6.41,4,4,0,0,0-.52.47,2.06,2.06,0,0,0-.36.56,1.38,1.38,0,0,0-.14.63.58.58,0,0,0,.15.46.81.81,0,0,0,.54.11,5.29,5.29,0,0,0,1-.21l1.53-.46a5.91,5.91,0,0,1,1.59-.3,2,2,0,0,1,1.14.28,1.83,1.83,0,0,1,.68.94,5.11,5.11,0,0,1,.22,1.67,6.87,6.87,0,0,1-.38,2.23,9.12,9.12,0,0,1-1.07,2.14,11.25,11.25,0,0,1-3.67,3.41,5.87,5.87,0,0,1-2.06.79,3.08,3.08,0,0,1-1.6-.12,2.21,2.21,0,0,1-1.06-.87,2.7,2.7,0,0,1-.39-1.43.88.88,0,0,1,.1-.4.69.69,0,0,1,.24-.28l2.18-1.26a.75.75,0,0,1,.36-.13.56.56,0,0,1,.27.08l.2.17a1,1,0,0,0,.35.2,1.15,1.15,0,0,0,.57,0,2.17,2.17,0,0,0,.84-.33,6.56,6.56,0,0,0,1.46-1.1,1.73,1.73,0,0,0,.59-1.26q0-.33-.21-.42a1.19,1.19,0,0,0-.65,0,6.89,6.89,0,0,0-1.1.27c-.45.14-1,.3-1.59.47a2.56,2.56,0,0,1-2.49-.18,3.34,3.34,0,0,1-.79-2.59,6.66,6.66,0,0,1,.32-2,9.25,9.25,0,0,1,.94-2.06,10.3,10.3,0,0,1,1.48-1.91A8.64,8.64,0,0,1,170.63,110.81Z" style="fill:#BA68C8"></path><g style="opacity:0.2"><path d="M125,137.38a.27.27,0,0,1,.32,0,.4.4,0,0,1,.13.34v2.35a1.07,1.07,0,0,1-.13.5.79.79,0,0,1-.32.35l-2.92,1.69V154a1.07,1.07,0,0,1-.13.5.9.9,0,0,1-.31.35l-2.18,1.26a.25.25,0,0,1-.31,0,.39.39,0,0,1-.14-.34V144.37l-2.92,1.69a.25.25,0,0,1-.31,0,.39.39,0,0,1-.13-.34v-2.34a1,1,0,0,1,.13-.5.87.87,0,0,1,.31-.36Z"></path><path d="M136.31,130.84a.25.25,0,0,1,.31,0,.39.39,0,0,1,.14.34v14.29a1.08,1.08,0,0,1-.14.5.87.87,0,0,1-.31.36l-2.18,1.25a.27.27,0,0,1-.31,0,.41.41,0,0,1-.13-.35v-5.42L130,144v5.42a1.07,1.07,0,0,1-.13.5.87.87,0,0,1-.31.36l-2.18,1.25a.27.27,0,0,1-.31,0,.41.41,0,0,1-.14-.36V136.85a1.08,1.08,0,0,1,.14-.5.9.9,0,0,1,.31-.35l2.18-1.26a.25.25,0,0,1,.31,0,.39.39,0,0,1,.13.34v5.33l3.69-2.12V133a1,1,0,0,1,.13-.49.87.87,0,0,1,.31-.36Z"></path><path d="M147.39,136.39a.27.27,0,0,1,.31,0,.42.42,0,0,1,.14.35v2.34a1.05,1.05,0,0,1-.14.5.8.8,0,0,1-.31.36l-7.86,4.54a.27.27,0,0,1-.32,0,.39.39,0,0,1-.13-.34V129.84a1.07,1.07,0,0,1,.13-.5.94.94,0,0,1,.32-.36l7.73-4.46a.25.25,0,0,1,.31,0,.39.39,0,0,1,.13.34v2.35a1,1,0,0,1-.13.49.87.87,0,0,1-.31.36L142.15,131v2.39l4.74-2.74a.27.27,0,0,1,.32,0,.39.39,0,0,1,.13.34v2.34a1,1,0,0,1-.13.5.88.88,0,0,1-.32.36l-4.74,2.74v2.48Z"></path><path d="M154.06,120.37a5.35,5.35,0,0,1,1.95-.71,3,3,0,0,1,1.53.16,2.18,2.18,0,0,1,1,.83,2.43,2.43,0,0,1,.39,1.27.89.89,0,0,1-.11.4.62.62,0,0,1-.24.28l-2.18,1.26a.63.63,0,0,1-.37.12.57.57,0,0,1-.29-.09l-.16-.13a.84.84,0,0,0-.3-.15,1.39,1.39,0,0,0-.5,0,2.68,2.68,0,0,0-.73.3,5.91,5.91,0,0,0-.61.41,3.84,3.84,0,0,0-.51.47,2.37,2.37,0,0,0-.37.56,1.52,1.52,0,0,0-.14.63.58.58,0,0,0,.16.46.73.73,0,0,0,.53.1,4.4,4.4,0,0,0,1-.2l1.52-.46a5.9,5.9,0,0,1,1.6-.3,1.92,1.92,0,0,1,1.13.28,1.69,1.69,0,0,1,.68.94,5.08,5.08,0,0,1,.23,1.67,6.87,6.87,0,0,1-.38,2.23,9.52,9.52,0,0,1-1.07,2.14,10.8,10.8,0,0,1-1.63,1.9,11.29,11.29,0,0,1-2.05,1.51,5.8,5.8,0,0,1-2.06.79,3.2,3.2,0,0,1-1.6-.12,2.14,2.14,0,0,1-1-.87,2.64,2.64,0,0,1-.4-1.43.89.89,0,0,1,.11-.4.62.62,0,0,1,.24-.28l2.17-1.26a.82.82,0,0,1,.37-.13.42.42,0,0,1,.26.08,1.83,1.83,0,0,1,.2.17,1,1,0,0,0,.36.2,1.12,1.12,0,0,0,.56,0,2.4,2.4,0,0,0,.84-.33,6.71,6.71,0,0,0,1.47-1.1,1.79,1.79,0,0,0,.59-1.26.42.42,0,0,0-.22-.43,1.27,1.27,0,0,0-.64,0,7.24,7.24,0,0,0-1.11.27c-.45.14-1,.3-1.58.47a2.59,2.59,0,0,1-2.5-.18,3.38,3.38,0,0,1-.79-2.59,6.69,6.69,0,0,1,.33-2,9.49,9.49,0,0,1,.93-2.07,10.64,10.64,0,0,1,1.49-1.9A9,9,0,0,1,154.06,120.37Z"></path><path d="M161.38,131.85a.27.27,0,0,1-.32,0,.4.4,0,0,1-.13-.34V117.23a1,1,0,0,1,.13-.5.82.82,0,0,1,.32-.36l2.17-1.25a.26.26,0,0,1,.31,0,.4.4,0,0,1,.14.34v14.29a1.05,1.05,0,0,1-.14.5.8.8,0,0,1-.31.36Z"></path><path d="M170.63,110.81a5.21,5.21,0,0,1,2-.72,3.05,3.05,0,0,1,1.54.16,2.18,2.18,0,0,1,1,.83,2.43,2.43,0,0,1,.38,1.27.89.89,0,0,1-.11.4.62.62,0,0,1-.24.28L173,114.29a.82.82,0,0,1-.37.13.71.71,0,0,1-.3-.1l-.15-.13a.9.9,0,0,0-.31-.15,1.39,1.39,0,0,0-.5,0,2.68,2.68,0,0,0-.73.3,6.34,6.34,0,0,0-.6.41,4,4,0,0,0-.52.47,2.06,2.06,0,0,0-.36.56,1.38,1.38,0,0,0-.14.63.58.58,0,0,0,.15.46.81.81,0,0,0,.54.11,5.29,5.29,0,0,0,1-.21l1.53-.46a5.91,5.91,0,0,1,1.59-.3,2,2,0,0,1,1.14.28,1.83,1.83,0,0,1,.68.94,5.11,5.11,0,0,1,.22,1.67,6.87,6.87,0,0,1-.38,2.23,9.12,9.12,0,0,1-1.07,2.14,11.25,11.25,0,0,1-3.67,3.41,5.87,5.87,0,0,1-2.06.79,3.08,3.08,0,0,1-1.6-.12,2.21,2.21,0,0,1-1.06-.87,2.7,2.7,0,0,1-.39-1.43.88.88,0,0,1,.1-.4.69.69,0,0,1,.24-.28l2.18-1.26a.75.75,0,0,1,.36-.13.56.56,0,0,1,.27.08l.2.17a1,1,0,0,0,.35.2,1.15,1.15,0,0,0,.57,0,2.17,2.17,0,0,0,.84-.33,6.56,6.56,0,0,0,1.46-1.1,1.73,1.73,0,0,0,.59-1.26q0-.33-.21-.42a1.19,1.19,0,0,0-.65,0,6.89,6.89,0,0,0-1.1.27c-.45.14-1,.3-1.59.47a2.56,2.56,0,0,1-2.49-.18,3.34,3.34,0,0,1-.79-2.59,6.66,6.66,0,0,1,.32-2,9.25,9.25,0,0,1,.94-2.06,10.3,10.3,0,0,1,1.48-1.91A8.64,8.64,0,0,1,170.63,110.81Z"></path></g><path d="M192.44,165.23l-92,53.13c-1.17.67-2.11,0-2.11-1.59h0a5,5,0,0,1,2.11-4l92-53.13c1.16-.67,2.1,0,2.1,1.59h0A5,5,0,0,1,192.44,165.23Z" style="fill:#e0e0e0"></path><path d="M176.22,188.58,116.64,223c-1.17.67-2.11,0-2.11-1.59h0a5,5,0,0,1,2.11-4L176.22,183c1.16-.67,2.1,0,2.1,1.59h0A5,5,0,0,1,176.22,188.58Z" style="fill:#e0e0e0"></path><path d="M192.44,254.61l-92,53.13c-1.17.67-2.11,0-2.11-1.59h0a5,5,0,0,1,2.11-4l92-53.13c1.16-.67,2.1,0,2.1,1.59h0A5,5,0,0,1,192.44,254.61Z" style="fill:#e0e0e0"></path><path d="M176.22,278l-59.58,34.41c-1.17.67-2.11-.05-2.11-1.59h0a5,5,0,0,1,2.11-4l59.58-34.4c1.16-.68,2.1,0,2.1,1.58h0A5,5,0,0,1,176.22,278Z" style="fill:#e0e0e0"></path><path d="M176.22,160.3l-59.58,34.4c-1.17.67-2.11,0-2.11-1.59h0a5,5,0,0,1,2.11-4l59.58-34.4c1.16-.67,2.1,0,2.1,1.59h0A5,5,0,0,1,176.22,160.3Z" style="fill:#e0e0e0"></path><path d="M66.56,357v8.31a7,7,0,0,1-3.29-.83l-.08,0-.1-.06L42.21,352.29h0l0-229.83,20.9,12.07a.8.8,0,0,0,.16.08,6.85,6.85,0,0,0,3.31.85V357Z" style="fill:#37474f"></path><path d="M78.74,129.48V359.32l-8.72,5a6.88,6.88,0,0,1-3.46.93V135.45a6.71,6.71,0,0,0,3.38-.89h0l.06,0Z" style="fill:#455a64"></path></g></g><g id="freepik--magnifying-glass--inject-36"><g id="freepik--magnifying-glass--inject-36"><path d="M32.86,377.53v15.25c0,8.28,5.47,16.55,16.41,22.87,21.87,12.63,57.35,12.63,79.23,0,10.94-6.32,16.41-14.59,16.41-22.87V377.53h0c0-8.28-5.47-16.56-16.41-22.87-21.88-12.63-57.35-12.63-79.23,0C38.33,361,32.86,369.25,32.86,377.53Zm106.63,0c0,6.62-4.87,13.08-13.7,18.18-9.77,5.64-22.88,8.75-36.91,8.75s-27.13-3.11-36.9-8.75c-8.84-5.1-13.7-11.56-13.7-18.18s4.86-13.08,13.7-18.18c9.77-5.64,22.87-8.75,36.9-8.75s27.14,3.11,36.91,8.75C134.62,364.45,139.49,370.91,139.49,377.53Z" style="fill:#BA68C8"></path><path d="M128.5,354.66c-21.88-12.63-57.35-12.63-79.23,0s-21.88,33.11,0,45.74,57.35,12.63,79.23,0S150.38,367.29,128.5,354.66Zm-2.71,41c-9.77,5.64-22.88,8.75-36.91,8.75s-27.13-3.11-36.9-8.75c-8.84-5.1-13.7-11.56-13.7-18.18s4.86-13.08,13.7-18.18c9.77-5.64,22.88-8.75,36.9-8.75s27.14,3.11,36.91,8.75c8.84,5.1,13.7,11.56,13.7,18.18S134.63,390.61,125.79,395.71Z" style="fill:#fff;opacity:0.30000000000000004"></path><path d="M139.5,377.53a15,15,0,0,1-2.19,7.63c-2.22-3.85-6.14-7.46-11.52-10.56-9.77-5.64-22.88-8.75-36.91-8.75S61.75,369,52,374.6c-5.38,3.1-9.29,6.71-11.53,10.56a15.13,15.13,0,0,1-2.18-7.63c0-6.62,4.87-13.08,13.71-18.19,9.77-5.63,22.88-8.74,36.9-8.74s27.14,3.11,36.91,8.74C134.63,364.45,139.5,370.91,139.5,377.53Z" style="fill:#BA68C8"></path><path d="M139.5,377.53a15,15,0,0,1-2.19,7.63c-2.22-3.85-6.14-7.46-11.52-10.56-9.77-5.64-22.88-8.75-36.91-8.75S61.75,369,52,374.6c-5.38,3.1-9.29,6.71-11.53,10.56a15.13,15.13,0,0,1-2.18-7.63c0-6.62,4.87-13.08,13.71-18.19,9.77-5.63,22.88-8.74,36.9-8.74s27.14,3.11,36.91,8.74C134.63,364.45,139.5,370.91,139.5,377.53Z" style="opacity:0.1"></path><path d="M125.79,366.25c-9.77-5.64-22.88-8.74-36.91-8.74s-27.13,3.1-36.9,8.74c-7.29,4.21-11.87,9.34-13.25,14.73,1.38,5.39,6,10.52,13.25,14.73,9.77,5.64,22.88,8.75,36.9,8.75s27.14-3.11,36.91-8.75c7.29-4.21,11.87-9.34,13.25-14.73C137.66,375.59,133.08,370.46,125.79,366.25Z" style="fill:#fff;opacity:0.6000000000000001"></path><path d="M102.09,409v15.24a73.21,73.21,0,0,0,26.4-8.56c10.95-6.32,16.42-14.6,16.42-22.88V377.53a19.47,19.47,0,0,0-.67-5h0c2.65,9.85-2.59,20.28-15.74,27.87C120.94,404.77,111.76,407.62,102.09,409Z" style="opacity:0.1"></path><path d="M126.83,410.11a8.69,8.69,0,0,1,3.9-6.82,2.78,2.78,0,0,1,2.76-.29h0l18.86,10.76h0a2.74,2.74,0,0,1,1.15,2.53,8.69,8.69,0,0,1-3.9,6.82,2.74,2.74,0,0,1-2.77.28h0L128,412.65h0A2.78,2.78,0,0,1,126.83,410.11Z" style="fill:#37474f"></path><path d="M128,412.65a2.78,2.78,0,0,1-1.17-2.54,7.38,7.38,0,0,1,.67-2.94l24.32,13.91a7.7,7.7,0,0,1-2.19,2.05,2.74,2.74,0,0,1-2.77.28L128,412.65Z" style="fill:#263238"></path><path d="M146.45,423.07a11.31,11.31,0,0,1,5.07-8.87,3.63,3.63,0,0,1,3.56-.39h0l0,0h0l47.71,24.47-9.34,16.49L148,426.38A3.61,3.61,0,0,1,146.45,423.07Z" style="fill:#BA68C8"></path><path d="M193.51,454.79,148,426.38a3.61,3.61,0,0,1-1.52-3.31,10.59,10.59,0,0,1,1.7-5.38l50.18,28.6Z" style="opacity:0.1"></path><path d="M198.23,454.29a14.77,14.77,0,0,0,6.65-11.63c0-4.27-3-6-6.71-3.84a14.8,14.8,0,0,0-6.65,11.63C191.53,454.72,194.54,456.44,198.23,454.29Z" style="fill:#BA68C8"></path><g style="opacity:0.2"><path d="M198.23,454.29a14.77,14.77,0,0,0,6.65-11.63c0-4.27-3-6-6.71-3.84a14.8,14.8,0,0,0-6.65,11.63C191.53,454.72,194.54,456.44,198.23,454.29Z"></path></g></g></g><g id="freepik--Pencil--inject-36"><g id="freepik--pencil--inject-36"><path d="M440.37,361.35l24.84-4.86a.77.77,0,0,1,.73,1.26l-16.86,19.09Z" style="fill:#ffa8a7"></path><path d="M465.94,357.75a.77.77,0,0,0-.73-1.26l-4.85.95h0a4.27,4.27,0,0,1,2,4l0,.43Z" style="fill:#263238"></path><path d="M333.23,443.41l2-1.16,2.45-1.4,111.36-64a11.29,11.29,0,0,0-.69-8.24c-1.76-3.94-5.18-7.06-8-7.24l-111.3,64L324.38,428C327.51,426.46,336.35,441.79,333.23,443.41Z" style="fill:#455a64"></path><path d="M341,439l4.53-2.61c1.34-.72.57-4-1-7.41-2.08-4.52-6.15-8.9-7.93-8l-3.35,1.92-1.18.71c1.78-.94,5.86,3.43,7.93,8,1.5,3.26,2.26,6.43,1.12,7.3h0A.27.27,0,0,1,341,439Z" style="fill:#ebebeb"></path><path d="M333.23,443.41l4.49-2.56c3.07-1.6-5.41-16.49-8.65-15.51a.73.73,0,0,0-.19.07l-4.5,2.62C327.51,426.46,336.35,441.79,333.23,443.41Z" style="fill:#ebebeb"></path><path d="M466.05,356.92l-.84-.43-18,9.86L330.76,433.28c-.17-.28-.32-.3-.43-.11,2.65,4.13,4.65,9.34,2.9,10.24l2-1.16,2.45-1.4,111.36-64h0l16.86-19.09A.72.72,0,0,0,466.05,356.92Z" style="opacity:0.15"></path><path d="M314.19,454.31l19-10.9c1.34-.69.6-4-.94-7.33-2.06-4.54-6.12-8.95-7.91-8.05h0L305.25,439c-3.79,2.19-.3,10.43,3.93,14.11C310.75,454.48,312.51,455.1,314.19,454.31Z" style="fill:#f28f8f"></path><path d="M315.32,448.4c-1.09-4.29-4.57-8.5-7.76-9.4a3.13,3.13,0,0,0-2.85.38c-2.87,2.66.46,10.23,4.47,13.71,1.54,1.36,3.27,2,4.91,1.26C315.52,453.51,316.07,451.31,315.32,448.4Z" style="opacity:0.1"></path></g></g><g id="freepik--note-2--inject-36"><g id="freepik--Note--inject-36"><g id="freepik--note--inject-36"><polygon points="137.5 294.3 201.04 330.99 261.64 296.02 198.09 259.33 137.5 294.3" style="opacity:0.25"></polygon><polygon points="137.5 290.84 201.04 327.53 261.64 292.56 198.09 255.87 137.5 290.84" style="fill:#BA68C8"></polygon><polygon points="137.5 290.84 201.04 327.53 261.64 292.56 198.09 255.87 137.5 290.84" style="fill:#fff;opacity:0.7000000000000001"></polygon><polygon points="198.09 255.87 211.32 263.51 150.72 298.49 137.5 290.84 198.09 255.87" style="fill:#BA68C8;opacity:0.2"></polygon></g><path d="M169.39,299.11a4.43,4.43,0,0,0-.65-.18,2.06,2.06,0,0,0-.7,0,2,2,0,0,0-.4.08.69.69,0,0,0-.15-.07,1.28,1.28,0,0,0-.35-.06H167a.69.69,0,0,0-.25,0,1.15,1.15,0,0,0-.57.36,2,2,0,0,0-.25.35,1.39,1.39,0,0,0-.17.74,1,1,0,0,0,.27.7,1.94,1.94,0,0,0,1,.52,3.9,3.9,0,0,0,2.18-.2,1.75,1.75,0,0,0,1.12-1.07C170.39,299.88,170.12,299.4,169.39,299.11Zm-.91.71h0s.08.08.1.11l0,.05h0v0h0a1,1,0,0,0,0,.12v.06h0a.45.45,0,0,1,0,.11.08.08,0,0,1,0,.05s0,0,0,.05l0,0a.1.1,0,0,1,0,0l-.1.11h0l-.06,0-.17.11,0,0-.15,0-.06,0-.1,0h-.16l-.05,0,0,0,0,0-.07-.09h0l0-.07a1,1,0,0,1,0-.16c0-.1-.05-.23,0-.31v0a.19.19,0,0,1,0-.08.88.88,0,0,1,.05-.15,3.1,3.1,0,0,1,.26-.41h0a2.57,2.57,0,0,0,.37.16h0l.05,0,.08,0h0l.14.1Z" style="fill:#37474f"></path><path d="M168.4,300.57c-.07.05,0,0,0,0Z" style="fill:#37474f"></path><path d="M167.76,300.83h0Z" style="fill:#37474f"></path><polygon points="168.62 299.99 168.61 299.98 168.62 299.99 168.62 299.99" style="fill:#37474f"></polygon><path d="M182.83,306.88a3.61,3.61,0,0,0-.64-.19,2.12,2.12,0,0,0-.71,0,2,2,0,0,0-.4.08l-.14-.07a2.14,2.14,0,0,0-.35-.06h-.19a1,1,0,0,0-.25,0,1.15,1.15,0,0,0-.57.36,2,2,0,0,0-.25.35,1.5,1.5,0,0,0-.17.75,1,1,0,0,0,.27.69,1.94,1.94,0,0,0,1,.52,3.9,3.9,0,0,0,2.18-.2,1.81,1.81,0,0,0,1.13-1.06C183.84,307.64,183.57,307.16,182.83,306.88Zm-.91.7h0s.08.08.1.11l0,.05h0v0h0l0,.12v.06h0l0,.11a.14.14,0,0,0,0,.06l0,0,0,0,0,.05-.11.11h0l-.06,0-.17.11,0,0-.15.06-.07,0h-.3l-.05,0,0,0-.06-.09h0l0-.08a.94.94,0,0,1,0-.16.55.55,0,0,1,0-.31v0s0-.05,0-.08,0-.1,0-.14a2.72,2.72,0,0,1,.27-.42h0a1.5,1.5,0,0,0,.36.16h0l.05,0,.08,0h0l.14.1Z" style="fill:#37474f"></path><path d="M195.05,313.93a4.67,4.67,0,0,0-.64-.18,2.43,2.43,0,0,0-.71,0,2.07,2.07,0,0,0-.4.09.46.46,0,0,0-.14-.07,1.43,1.43,0,0,0-.35-.06h-.19a1,1,0,0,0-.25.05,1.08,1.08,0,0,0-.57.36,1.77,1.77,0,0,0-.24.34,1.43,1.43,0,0,0-.18.75,1.07,1.07,0,0,0,.27.7,2,2,0,0,0,1,.52,3.81,3.81,0,0,0,2.18-.21,1.78,1.78,0,0,0,1.13-1.06C196.06,314.69,195.79,314.22,195.05,313.93Zm-.91.7h0s.08.09.1.12l0,0h0a0,0,0,0,1,0,0v0c0,.05,0,0,0,0l0,.12a.09.09,0,0,0,0,.05h0l0,.11a.08.08,0,0,0,0,0l0,0a.05.05,0,0,1,0,0l0,0-.11.1h0l0,0-.06.05-.17.1,0,0-.15.06-.07,0-.1,0h-.16l0,0-.05,0,0,0-.06-.09h0l0-.07a1,1,0,0,1,0-.17.55.55,0,0,1,0-.31h0s0-.06,0-.09l0-.14a2.63,2.63,0,0,1,.27-.41h0a1.19,1.19,0,0,0,.36.16h0l.05,0,.08,0h0a.85.85,0,0,1,.14.1Z" style="fill:#37474f"></path><path d="M181.84,308.33c-.07.05,0,0,0,0Z" style="fill:#37474f"></path><path d="M181.2,308.59h0Z" style="fill:#37474f"></path><polygon points="182.06 307.75 182.06 307.74 182.06 307.75 182.06 307.75" style="fill:#37474f"></polygon><path d="M193,287a1.78,1.78,0,0,1-1.19,0c-.42-.1-1.2.05-.92.37s.23.77-.38.86a1.15,1.15,0,0,1-1.07-.39,3.24,3.24,0,0,0-.2-.36c-.2-.33-1.35-.3-1.29.06a.93.93,0,0,0,.22.43,1.91,1.91,0,0,1,0,1.71c-.13.27-1.62,2-2.6,1.33-.29-.21-1.2-.25-1.16.07,0,.11,0,1.18-.6.88-.32-.15-1.15-.15-1.08.15a2.34,2.34,0,0,1,.07.45.42.42,0,0,1,0,.22c0,.2-.19.27-.66.2-.23-.38-1.37-.24-1.34.1s0,.92,0,1.38l-.18-.11a6.35,6.35,0,0,1-1-.84c-.35-.34-1.51-.24-1.39.16a5.42,5.42,0,0,1,.39,2.91,1.5,1.5,0,0,1-1.22,1.23,2.1,2.1,0,0,1-2.17-1.23A9.07,9.07,0,0,1,174,294c-.2-.78-.57-1.91.05-2.62a7.14,7.14,0,0,1,1.62,2.18c.06.14.69.3.67.1a4.64,4.64,0,0,0-1.67-2.92,1.19,1.19,0,0,0-1.1-.17c-1.72.7-1.33,2.35-1,3.52a8.18,8.18,0,0,0,.85,2.05A4.35,4.35,0,0,0,175,298a4.19,4.19,0,0,0,4.45-.31,2.66,2.66,0,0,0,.57-2.64,2.35,2.35,0,0,0,1.52.18c.83-.21.86-.91.77-1.53a3.52,3.52,0,0,0,.8,0c.85-.17,1-.64,1-1.13a2.69,2.69,0,0,0,.81-.09,1,1,0,0,0,.77-.81,4.35,4.35,0,0,0,2.93-.8,2.4,2.4,0,0,0,1.07-2.08,4,4,0,0,0,1.15.09c1-.08,1.66-.6,1.59-1.17a4,4,0,0,0,1.72-.32C194.77,287.1,193.48,286.73,193,287Z" style="fill:#37474f"></path><path d="M214.37,274.07c.23,1.34-1.19,2.59-3.78,2.15-.28-.05-.74,0-.78.19-.16.57.09,1.31-.44,1.8a1.06,1.06,0,0,1-.85.23,4.29,4.29,0,0,0-.35-1.65c-.07-.16-.33-.26-.59-.29-2.25-.24-1.64,1.32-.47,2.09a1.89,1.89,0,0,1-1.41,1.58c-.84.31-2.17.36-2.64.86a2.43,2.43,0,0,0-.81,0c-.95.21-.78.81-.87,1.32a2.62,2.62,0,0,0-.81.09.82.82,0,0,0-.69.89,4.06,4.06,0,0,0-1.59-.28c-1.5,0-2.18.9-1.82,1.71.1.22.94.37.91.09a1,1,0,0,1,.5-1.12c.51-.28,1.49-.17,1.66.33.1.28.92.44,1.18.2a1,1,0,0,0,.34-.55c0-.11,0-.22,0-.33,0,.08.19-.53.27-.46a1.09,1.09,0,0,0,1.17,0,1,1,0,0,0,.18-.54,1.4,1.4,0,0,0,0-.29.39.39,0,0,1,.22-.46c.24.31,1.33.31,1.28,0-.08-.65,1.53-.64,2.27-.86a3.22,3.22,0,0,0,1.59-1,1.82,1.82,0,0,0,.37-.68,3.22,3.22,0,0,0,1.88-.32c.84-.48.77-1.22.8-1.9,2.82.15,5.34-1,4.49-2.77C215.45,273.77,214.32,273.75,214.37,274.07Z" style="fill:#37474f"></path><path d="M219.61,273c-.21.12.32.35.49.25S219.79,272.94,219.61,273Z" style="fill:#37474f"></path><path d="M211.51,291.45c-.66.6-1.35,1.19-2.11,1.76-.37.27-.73.56-1.15.81s-1.11.25-1.6.48a1.13,1.13,0,0,0-.5.52c-.14.22-.15.31-.62.36a4.07,4.07,0,0,0-.5,0,.72.72,0,0,0-.52.32c-.08.15-.06,1.29-.77.87a1.06,1.06,0,0,0-.83-.08,1.25,1.25,0,0,0-.6.78c-.05.16,0,.4-.2.54-.41.35-.91.12-1.27-.2s-1-.28-1.07,0c-.06.45-.09.89-.19,1.33s-.18,1.15-.83,1.22a1.71,1.71,0,0,1-.75-.1c.06-.08.13-.16.18-.24a1.29,1.29,0,0,0,0-1.67,1.5,1.5,0,0,0-1.68-.33c-.91.48-.7,1.6.19,2.3l-.18.2c-.17.19-.71,1.07-1.08,1.12-.22,0-.63-.18-1-.16s-.4.06-.44.19,0,.11-.05.17a2.08,2.08,0,0,0-1.53-.29,1,1,0,0,0-.71.89,7.9,7.9,0,0,0-1-.44c-.37-.13-.9,0-.94.2s0,.6-.05.9c-.14-.18-.28-.36-.44-.53a4.46,4.46,0,0,0-2.43-1.46,1.72,1.72,0,0,0-2,.79,1.9,1.9,0,0,0,.5,2.29c.11.12.74.23.61,0a2.07,2.07,0,0,1-.39-1.64,1.39,1.39,0,0,1,.42-.74c.52-.45,1.26-.1,1.7.27a8.07,8.07,0,0,1,2.18,3.5c.12.3,1.27.32,1.22,0a11.53,11.53,0,0,1-.06-2.75,6,6,0,0,1,.77.51c.32.26,1.16.21,1.18-.09a4.16,4.16,0,0,1,.12-.69c0-.06.1-.2.16-.32.21.14.55.29.78.42s1,.13,1.05-.12l.06-.43.29.08a1.45,1.45,0,0,0,1-.18,4.88,4.88,0,0,0,1-1.05l.19-.21a2.88,2.88,0,0,0,.42.11,2.26,2.26,0,0,0,2.95-2.44,2.52,2.52,0,0,0,1.79.1c.7-.29.56-.9.89-1.34a1.89,1.89,0,0,0,1.64-.2c.35-.35-.21-.85.57-1.05.39-.11.67,0,1-.25a2,2,0,0,0,.28-.39c.2-.29.54-.33,1-.45a4.05,4.05,0,0,0,1.34-.62,26.49,26.49,0,0,0,3-2.35C212.68,291.49,211.73,291.24,211.51,291.45Z" style="fill:#37474f"></path><path d="M230.65,280.75c-1.47,1.39-3.79,2.18-5.8,3.27-1,.53-1.61,1.36-2.8,1.73-.91.29-1.23.65-1.31,1.23a2.35,2.35,0,0,0-2.19,1.29c-.82-.37-1.46-.9-2.57-.59a2.18,2.18,0,0,0-1.67,2.13c0,.17.68.36.78.17.26-.55.45-1.4,1.3-1.74s1.65.47,2.4.68c.2.05.66.05.72-.1a1.69,1.69,0,0,1,1.77-1.35c.24,0,.59,0,.6-.19,0-.6.29-.89,1.17-1.14a3,3,0,0,0,1.11-.62,12.89,12.89,0,0,1,2.49-1.56c1.81-.87,4-1.65,5.06-3C231.94,280.71,230.89,280.52,230.65,280.75Z" style="fill:#37474f"></path><path d="M222.1,299.81c-1.17.57-2.2,1.25-3.27,1.88a14,14,0,0,0-2.27,1.57c-.66-.71-1.35-1.42-2.05-2.13-.22-.22-1.26-.25-1,.05a3.68,3.68,0,0,1,.8,2.07,2.55,2.55,0,0,1-.14.91,1.85,1.85,0,0,1-.18.44s-.55.81-.81.47a.94.94,0,0,0-.94-.11l-.3.24a2.17,2.17,0,0,0-1,0,.64.64,0,0,0-.54.49.92.92,0,0,0,.06.43l.06.18c.23.37-.06.52-.86.45-.2-.13-.89-.23-.91,0a2,2,0,0,1-.47,1.38,9.66,9.66,0,0,1-1-.77c-.19-.15-1-.33-1,0a3.24,3.24,0,0,1-.9,2.53c-.16.17.62.4.79.24a3.48,3.48,0,0,0,1.14-1.86,2.06,2.06,0,0,0,1.43.43c.79-.09,1-.86,1-1.41a2.68,2.68,0,0,0,1.29,0c.34-.11.52-.28.57-.5a.73.73,0,0,0,0-.33,1.52,1.52,0,0,0-.09-.28c-.13-.2-.07-.37.16-.5a.93.93,0,0,0,.95.1l.27-.22a2.33,2.33,0,0,0,.85.12,1.42,1.42,0,0,0,1.31-.86,2.93,2.93,0,0,0,.34-1.76c.27.29.55.58.81.87s.8.28,1,.1c1.4-1.56,4-2.51,5.92-3.84C223.3,299.91,222.37,299.69,222.1,299.81Z" style="fill:#37474f"></path><path d="M201.9,305.62c-.09-.26-1.1-.35-1.11-.06h0s-.07,0-.08.05a3.49,3.49,0,0,0,0,1.7,4.23,4.23,0,0,1-.33.9,6,6,0,0,1-2,2.19c-.29.2-1.29.95-1.83.53a1.21,1.21,0,0,1-.34-.7,2.19,2.19,0,0,1-.05-.67,2.71,2.71,0,0,1,1.23-1.93,3,3,0,0,1,1,1.26c0,.06.37.23.38.11a2.11,2.11,0,0,0-1.1-1.83,1,1,0,0,0-.76-.1,3.28,3.28,0,0,0-1.77,1.92,1.83,1.83,0,0,0,.92,2.36,3.64,3.64,0,0,0,3.44-.71,6.75,6.75,0,0,0,1.7-1.72c.12.34.25.67.36,1,.3.84.59,1.68.88,2.52.15.41.29.82.43,1.23a3.6,3.6,0,0,0,.47,1.19c.09.26,1.15.37,1.15.05a4.54,4.54,0,0,0-.47-1.4l-.42-1.11-.89-2.34c-.29-.75-.64-1.52-.87-2.3A3,3,0,0,0,201.9,305.62Z" style="fill:#37474f"></path><path d="M238.18,290.87a42.57,42.57,0,0,0-4.31,2.24c-1.4.74-2.84,1.46-4.17,2.23a5.82,5.82,0,0,0-1.43,1.1,4,4,0,0,1-.47.63,2.27,2.27,0,0,1-1.23.25c-1,.06-1.55.49-1.08,1.08.08.12.59.24.53.05a.49.49,0,0,1,.32-.61c.46-.21.8-.06,1.29-.08a1.6,1.6,0,0,0,1.08-.42c.38-.35.56-.76,1-1.11a12.53,12.53,0,0,1,1.87-1.13l3.72-2a32.77,32.77,0,0,0,3.58-1.95C239.11,291,238.42,290.77,238.18,290.87Z" style="fill:#37474f"></path><path d="M240.06,289.81c-.28.17.52.43.78.28S240.32,289.67,240.06,289.81Z" style="fill:#37474f"></path><g id="freepik--Clip--inject-36"><path d="M159.87,266.69l-1.28.74L154,265.25l0,0c-1.37-.79-1.21-2-1.05-3.22s.29-2.18-.72-2.76c-2.89-1.66-8.79-.75-12.13,1.18s-4.94,5.34-2.07,7c1,.59,2.85.5,4.79.42s4.21-.18,5.58.61l.06,0,3.73,2.64-1.23.71-3.82-2.69c-.81-.44-2.45-.37-4.19-.3-2.13.1-4.57.21-6.15-.71a3.42,3.42,0,0,1-1.84-4.17,8.26,8.26,0,0,1,3.9-4.26,19.24,19.24,0,0,1,7.39-2.25,12.29,12.29,0,0,1,7.21,1.07c1.58.9,1.4,2.31,1.23,3.55-.13,1-.25,1.94.52,2.41Z" style="fill:#e0e0e0"></path><polygon points="176.34 254.83 175.03 257.93 150.29 272.22 150.29 269.87 176.34 254.83" style="fill:#263238"></polygon><path d="M176.33,254.83l-26,15,10.23,13.94,7.55-4.36.5.67s1.43,1.17,2.35.65l.65-.38,6.79-3.92.65-.37c.91-.53.28-2.17.28-2.17l-.5-.68,7.77-4.48Z" style="fill:#37474f"></path><path d="M183.74,272l-2.15,1.24c-1.06.61-2.66.63-3.38-.3l-16.64-18.48,0,0c-.82-1.11-.25-2.58.29-4s1-2.58.39-3.4c-1.72-2.33-6.75-1.92-10.1,0s-5.81,5.85-4.09,8.18c.6.83,2.09.94,3.66,1.07s3.43.26,4.24,1.37l0,.05,12.31,20.95c.67,1,0,2.25-1.06,2.86l-2.14,1.24-.74-1,2.15-1.24c.46-.27.79-.83.53-1.18l0-.05-12.31-20.94c-.49-.63-1.82-.73-3.23-.84-1.74-.14-3.72-.29-4.66-1.57s-1-3.24,0-5.22a11.93,11.93,0,0,1,4.6-4.68,14,14,0,0,1,6.69-1.84c2.45,0,4.36.74,5.38,2.12s.3,2.94-.26,4.41c-.45,1.19-.89,2.31-.43,3l16.64,18.47v0c.26.35,1,.31,1.43,0L183,271Z" style="fill:#ebebeb"></path><path d="M167.81,282a2.94,2.94,0,0,0-1.32-2.3,1,1,0,0,0-1-.09l-4.89,2.83,1.86,3.25,4.93-2.85A.93.93,0,0,0,167.81,282Z" style="fill:#455a64"></path><path d="M161.57,285.63c.73.42,1.33.08,1.33-.77a3,3,0,0,0-1.33-2.3c-.73-.42-1.32-.08-1.32.77A2.94,2.94,0,0,0,161.57,285.63Z" style="fill:#263238"></path><path d="M161.67,284.55c.24.13.43,0,.43-.26a1,1,0,0,0-.43-.75c-.24-.14-.44,0-.44.25A1,1,0,0,0,161.67,284.55Z" style="fill:#e0e0e0"></path><path d="M187.89,270.44a2.91,2.91,0,0,0-1.33-2.3.93.93,0,0,0-.94-.09l-4.89,2.82,1.86,3.25,4.93-2.84A.93.93,0,0,0,187.89,270.44Z" style="fill:#455a64"></path><path d="M181.65,274c.73.43,1.33.08,1.33-.76a3,3,0,0,0-1.33-2.3c-.73-.42-1.32-.08-1.32.77A2.92,2.92,0,0,0,181.65,274Z" style="fill:#263238"></path><path d="M181.75,273c.24.14.43,0,.43-.25a.93.93,0,0,0-.43-.75c-.24-.14-.44,0-.44.25A1,1,0,0,0,181.75,273Z" style="fill:#e0e0e0"></path><path d="M181.43,271.92l-.58.33a1.46,1.46,0,0,1-.62.2l.13,1.21a3.5,3.5,0,0,0,1.23-.41l.48-.27Z" style="fill:#e0e0e0"></path><path d="M178.56,275.73a.93.93,0,0,1-.37.84l-7.06,4.07a1.82,1.82,0,0,0,.57-1.15,6.63,6.63,0,0,0,0-1.24,1.41,1.41,0,0,1,.71-1.33l4.5-2.59a.8.8,0,0,1,1,.12A1.89,1.89,0,0,1,178.56,275.73Z" style="fill:#455a64"></path></g></g></g><g id="freepik--note-1--inject-36"><g id="freepik--note--inject-36"><polygon points="24.78 223.68 24.78 298.1 86.43 262.5 86.43 188.09 24.78 223.68" style="opacity:0.15"></polygon><path d="M101.84,258.37s-3,5.09-13.76,11.3L33.78,301l-6.51-64.68,61.64-35.6L93,244.8C93.52,250.91,95.9,257.4,101.84,258.37Z" style="fill:#BA68C8"></path><path d="M101.84,258.37s-3,5.09-13.76,11.3L33.78,301l-6.51-64.68,61.64-35.6L93,244.8C93.52,250.91,95.9,257.4,101.84,258.37Z" style="fill:#fff;opacity:0.30000000000000004"></path><polygon points="88.91 200.75 27.27 236.34 27.26 224.91 88.91 189.32 88.91 200.75" style="fill:#BA68C8"></polygon><path d="M82.59,230.81c-.88.92-2.52,2.09-3.61.8l0-.07a6,6,0,0,0,.69-4.27c-.09-.35-.7-1-1.08-.61a4.37,4.37,0,0,0-1.06,4.42,13.12,13.12,0,0,1-2.36,2.79c-.74.66-1.84,1.58-2.9,1.53-1.37-.06-1.21-2.15-1.17-3.1,0-.42-.86-1.33-1.15-.69a25.15,25.15,0,0,1-2.9,4.47,14.54,14.54,0,0,1-2,2.31,3.5,3.5,0,0,1-.78.54h0a2.54,2.54,0,0,1-.06-.33c0-.55-.85-1.31-1.2-.55-.7,1.54-1.82,5.1-3.78,5.51-.61.13-1.11-.36-1.73-.36a1.81,1.81,0,0,0-1.27.55,18.7,18.7,0,0,0-1.93,2.79c-.24.35-.7,1.14-1.15,1.28-.63.18-.66-1-.75-1.51-.07-.37-.57-.92-1-.63a5.35,5.35,0,0,0-1.82,2.48A4.53,4.53,0,0,1,49,246.5c0-.37-.71-1-1-.55a24,24,0,0,1-3.73,4.38c-.92.86-3.6,3.39-4.9,1.95a3,3,0,0,1-.65-2.13,9.14,9.14,0,0,0,3-3.1A16.26,16.26,0,0,0,44.22,240c0-.28-.23-.69-.54-.69-1.78,0-3,2.45-3.72,3.79a17.54,17.54,0,0,0-2.22,6.57v.2a3.59,3.59,0,0,1-1.83.21c-.26,0-.26.56,0,.61a3.83,3.83,0,0,0,1.85-.09,3.71,3.71,0,0,0,2,3.22c1.68.63,3.52-.83,4.7-1.83a24.5,24.5,0,0,0,3.78-4,4.33,4.33,0,0,0,1.15,1.84c.26.24.71.35.87-.06a7.12,7.12,0,0,1,1.16-2.22c.33,1,.93,2,2.05,1.71,1.3-.38,2.15-2.28,2.82-3.31.35-.52.74-1.38,1.48-1.35s1.25.63,2.19.23c1.82-.77,2.78-2.9,3.57-4.76a1.19,1.19,0,0,0,.68.31c.9.11,1.74-.82,2.29-1.4A26.31,26.31,0,0,0,70,234.38a3.11,3.11,0,0,0,1.38,2.06c1.2.71,2.62.1,3.67-.6a12.44,12.44,0,0,0,3.28-3.31c1.63,1.82,3.84.9,5.26-.73C84,231.3,83.11,230.27,82.59,230.81ZM40,245.65a21.72,21.72,0,0,1,1.63-3.23,5.53,5.53,0,0,1,1.62-1.84,16.92,16.92,0,0,1-2.1,5.75,9.7,9.7,0,0,1-2.34,2.88A18,18,0,0,1,40,245.65Z" style="fill:#fafafa"></path><path d="M85.7,260.84c-5.76,3.25-12.65,4.42-19.19,4.44s-14-.92-19.08-5.23c-.31-.26-.35-1.19.24-.91a41.94,41.94,0,0,0,18.92,4.15,41,41,0,0,0,15.83-3.07L81.15,260a21.08,21.08,0,0,1-3.23-.77,14.69,14.69,0,0,1-1.4-.51,7.11,7.11,0,0,1-1.43-.95.62.62,0,0,1-.24-.66c.12-.31.31-.11.53-.14a4.34,4.34,0,0,1,1.63.28c.47.13.94.24,1.42.33,1,.2,2,.4,3,.54,2.06.29,4.15.41,6.23.54.72.05,1,1,.7,1.58a16.52,16.52,0,0,1-4.18,4.9c-.79.66-1.61,1.28-2.45,1.88a22.66,22.66,0,0,1-2.5,1.67c-.93.49-1.31-1.19-.76-1.71,1.39-1.31,3.12-2.25,4.6-3.44A16.92,16.92,0,0,0,86,260.63h-.08A.72.72,0,0,1,85.7,260.84Z" style="fill:#fafafa"></path></g></g><g id="freepik--speech-bubble--inject-36"><g id="freepik--speech-bubble--inject-36"><g id="freepik--speech-bubble--inject-36"><path d="M298,119.5a46.48,46.48,0,1,0-35.68,35.61c8.4,7.14,21.76,9.86,29.38,5.95a.83.83,0,0,0,.43-.84.81.81,0,0,0-.62-.68A21.19,21.19,0,0,1,278,148.63,45.91,45.91,0,0,0,298,119.5Zm-21.5,28.15a.83.83,0,0,0-.32,1,23.2,23.2,0,0,0,12.73,11.8c-7.33,2.26-18.76-.62-25.84-6.82a.82.82,0,0,0-.72-.17,44.72,44.72,0,1,1,14.15-5.81Z" style="fill:#BA68C8"></path><path d="M276.53,147.65a.83.83,0,0,0-.32,1,23.2,23.2,0,0,0,12.73,11.8c-7.33,2.26-18.76-.62-25.84-6.82a.82.82,0,0,0-.72-.17,44.72,44.72,0,1,1,14.15-5.81Z" style="fill:#fff"></path></g><g id="freepik--graduation-cap--inject-36"><path d="M228.32,118.94l-.06-14.3h0c-.07-2.77,2.3-5.56,7.12-7.69,9.52-4.21,25-4.27,34.53-.13,4.84,2.09,7.23,4.86,7.18,7.62h0l.06,14.25c0,2.76-2.32,7-7.12,9.11-9.52,4.21-25,4.27-34.53.13-4.77-2.06-7.17-6.24-7.19-9h0Z" style="fill:#263238"></path><polygon points="252.63 84.34 288.05 104.61 252.79 125.15 217.37 104.88 252.63 84.34" style="fill:#455a64"></polygon><polygon points="288.05 104.61 288.05 106.06 252.79 126.61 252.79 125.15 288.05 104.61" style="fill:#37474f"></polygon><polygon points="217.37 104.88 217.37 106.34 252.79 126.61 252.79 125.15 217.37 104.88" style="fill:#263238"></polygon><polygon points="274.2 114.14 252.8 128.79 231.34 114.34 252.79 126.61 274.2 114.14" style="opacity:0.1"></polygon><path d="M244.29,111.08,260,101.8a.76.76,0,0,1,1,.26.78.78,0,0,1-.16,1l-.12.09-15.7,9.29" style="fill:#e0e0e0"></path><path d="M242,124.33a2.59,2.59,0,0,0,2.39,0l2,9.84c0,2.39-6.22,2.42-6.23,0Z" style="fill:#BA68C8"></path><path d="M241.89,131.59l-.37,4.11a2.5,2.5,0,0,1-.38-.15Z" style="opacity:0.15"></path><path d="M244.86,135.74l-.87-8.46,1.27,8.31A2.74,2.74,0,0,1,244.86,135.74Z" style="opacity:0.15"></path><path d="M243.46,136h-.39l.17-6.13Z" style="opacity:0.15"></path><path d="M243.21,124.19a.77.77,0,0,0,.76-.77l-.07-9a2.31,2.31,0,0,1,1.15-2l-.76-1.33a3.82,3.82,0,0,0-1.92,3.33l.07,9A.77.77,0,0,0,243.21,124.19Z" style="fill:#e0e0e0"></path><path d="M244.89,123.41a1.69,1.69,0,1,0-1.68,1.69A1.67,1.67,0,0,0,244.89,123.41Z" style="fill:#BA68C8"></path><path d="M241.53,123.52a1.32,1.32,0,0,0,1.88.63,1.4,1.4,0,0,0,0-2.39,1.68,1.68,0,1,1-1.9,1.76Z" style="opacity:0.15"></path></g></g></g></svg>
